<svg width="61" height="61" viewBox="0 0 61 61" fill="none" xmlns="http://www.w3.org/2000/svg">
<path d="M22.4995 37.6932H10.4034C10.1506 37.6932 9.90814 37.7937 9.72939 37.9724C9.55064 38.1511 9.45023 38.3936 9.45023 38.6464V46.4953C9.45023 46.7481 9.55064 46.9906 9.72939 47.1693C9.90814 47.3481 10.1506 47.4485 10.4034 47.4485H22.4995C22.7522 47.4485 22.9947 47.3481 23.1734 47.1693C23.3522 46.9906 23.4526 46.7481 23.4526 46.4953V38.6464C23.4526 38.3936 23.3522 38.1511 23.1734 37.9724C22.9947 37.7937 22.7522 37.6932 22.4995 37.6932ZM21.5463 45.5422H11.3565V39.5995H21.5463V45.5422Z" fill="white"/>
<path d="M58.5219 30.6801L49.6731 26.8343V7.41532C49.6716 6.12777 49.1593 4.89342 48.2487 3.98316C47.338 3.0729 46.1035 2.56111 44.8159 2.5601H32.148C32.1403 2.55956 32.1327 2.55956 32.1251 2.5601H19.4485C19.4409 2.5601 19.4342 2.5601 19.4256 2.5601H6.76147C5.47425 2.56161 4.24018 3.07363 3.32998 3.98383C2.41978 4.89403 1.90776 6.1281 1.90625 7.41532V49.8122C1.90776 51.0994 2.41978 52.3335 3.32998 53.2437C4.24018 54.1539 5.47425 54.6659 6.76147 54.6674H38.3852C38.3976 54.6779 38.4081 54.6913 38.4205 54.7018C40.2027 56.2954 42.2653 57.5445 44.5033 58.3856C44.7186 58.4654 44.9553 58.4654 45.1705 58.3856C45.8145 58.1437 46.4457 57.8689 47.0615 57.5621C49.8096 56.1461 52.2072 54.1348 54.0794 51.6746C57.3761 47.3546 59.1404 42.0598 59.0938 36.6257V31.5542C59.0938 31.3686 59.0398 31.1871 58.9382 31.0318C58.8366 30.8766 58.6919 30.7544 58.5219 30.6801ZM20.4055 4.46635H31.1758V19.1216L26.4159 14.9641C26.2421 14.812 26.0191 14.7282 25.7882 14.7282C25.5574 14.7282 25.3343 14.812 25.1606 14.9641L20.4055 19.1254V4.46635ZM3.8125 49.8122V7.41532C3.81401 6.63367 4.12519 5.88446 4.6779 5.33175C5.23061 4.77904 5.97982 4.46786 6.76147 4.46635H18.4992V21.2213C18.4992 21.4044 18.5519 21.5836 18.6511 21.7375C18.7502 21.8913 18.8915 22.0134 19.0582 22.0891C19.2249 22.1648 19.4098 22.1909 19.5909 22.1643C19.772 22.1377 19.9416 22.0595 20.0795 21.939L25.7887 16.9437L31.4979 21.939C31.6358 22.0595 31.8054 22.1377 31.9865 22.1643C32.1676 22.1909 32.3525 22.1648 32.5192 22.0891C32.6859 22.0134 32.8272 21.8913 32.9264 21.7375C33.0255 21.5836 33.0782 21.4044 33.0782 21.2213V4.46635H44.8159C45.5976 4.46786 46.3468 4.77904 46.8995 5.33175C47.4522 5.88446 47.7634 6.63367 47.7649 7.41532V26.0013L45.2143 24.8928C45.0942 24.8399 44.9644 24.8126 44.8331 24.8126C44.7018 24.8126 44.572 24.8399 44.4518 24.8928L31.1367 30.6763C30.9666 30.7505 30.822 30.8728 30.7204 31.028C30.6188 31.1833 30.5647 31.3648 30.5648 31.5503V36.6219C30.5613 38.8938 30.8632 41.1558 31.4627 43.3472C32.2598 46.3691 33.659 49.199 35.5763 51.667C35.8747 52.0483 36.193 52.4009 36.5075 52.7574H6.76147C5.98048 52.7559 5.23185 52.4452 4.67924 51.8933C4.12664 51.3414 3.81502 50.5932 3.8125 49.8122ZM57.1875 36.6257C57.2346 41.6339 55.6129 46.5151 52.5782 50.4994C50.8788 52.7356 48.7021 54.5645 46.2066 55.8531C45.771 56.0704 45.3106 56.2763 44.8331 56.4669C42.9424 55.7086 41.1982 54.6269 39.6786 53.2702C38.7252 52.4302 37.854 51.5015 37.0766 50.4966C35.3217 48.2239 34.0372 45.6243 33.2984 42.8496C32.7445 40.8215 32.4656 38.7281 32.4692 36.6257V32.1794L44.8312 26.8095L48.3234 28.3259L48.373 28.3469L57.1875 32.1794V36.6257Z" fill="white"/>
<path d="M43.7046 42.5427L40.2057 39.0419C40.1178 38.9509 40.0126 38.8782 39.8963 38.8283C39.78 38.7783 39.6549 38.752 39.5284 38.7509C39.4018 38.7498 39.2763 38.774 39.1592 38.8219C39.0421 38.8698 38.9356 38.9406 38.8461 39.0301C38.7567 39.1196 38.6859 39.226 38.638 39.3431C38.59 39.4603 38.5659 39.5858 38.567 39.7123C38.5681 39.8389 38.5944 39.9639 38.6444 40.0802C38.6943 40.1965 38.7669 40.3017 38.858 40.3896L43.0307 44.5643C43.1193 44.6529 43.2244 44.7232 43.3401 44.7712C43.4558 44.8191 43.5798 44.8438 43.7051 44.8438C43.8303 44.8438 43.9544 44.8191 44.0701 44.7712C44.1858 44.7232 44.2909 44.6529 44.3794 44.5643L52.195 36.7487C52.3689 36.5692 52.4654 36.3285 52.4635 36.0786C52.4617 35.8287 52.3618 35.5895 52.1854 35.4125C52.0089 35.2355 51.77 35.135 51.52 35.1324C51.2701 35.1299 51.0292 35.2257 50.8492 35.399L43.7046 42.5427Z" fill="white"/>
</svg>
