<svg width="70" height="70" viewBox="0 0 70 70" fill="none" xmlns="http://www.w3.org/2000/svg">
<g clip-path="url(#clip0_166_403)">
<path d="M12.3116 54.1337C11.3316 54.1337 10.3896 54.3783 9.55376 54.8376C5.15099 49.1936 2.73438 42.1825 2.73438 35C2.73438 17.2084 17.2084 2.73438 35 2.73438C37.1629 2.73438 39.3248 2.9496 41.4258 3.37418C42.1649 3.52371 42.887 3.0452 43.0365 2.30499C43.186 1.56479 42.7075 0.843811 41.9673 0.693741C39.6885 0.233383 37.3445 0 35 0C25.6513 0 16.8618 3.64067 10.2512 10.2512C3.64067 16.8618 0 25.6513 0 35C0 42.864 2.67029 50.5384 7.53181 56.6908C6.9059 57.6259 6.56944 58.725 6.56944 59.8759C6.56944 61.4097 7.16705 62.8516 8.25172 63.9358C9.33586 65.0204 10.7778 65.6181 12.3116 65.6181C13.8454 65.6181 15.2874 65.0204 16.3721 63.9358C17.4567 62.8516 18.0538 61.4091 18.0538 59.8753C18.0538 58.3421 17.4567 56.8996 16.3721 55.8154C15.2874 54.7308 13.8454 54.1337 12.3116 54.1337ZM14.4382 62.0025C13.8705 62.5707 13.1149 62.8837 12.3116 62.8837C11.5084 62.8837 10.7533 62.5707 10.185 62.0025C9.61678 61.4342 9.30382 60.6791 9.30382 59.8759C9.30382 59.0721 9.61678 58.317 10.185 57.7487C10.7527 57.1805 11.5084 56.8681 12.3116 56.8681C13.1149 56.8681 13.87 57.181 14.4382 57.7487C15.0065 58.317 15.3194 59.0721 15.3194 59.8759C15.3194 60.6791 15.0065 61.4342 14.4382 62.0025Z" fill="#F45B1E"/>
<path d="M62.4671 13.3075C63.9534 11.0779 63.7147 8.02945 61.7488 6.06358C60.6641 4.97945 59.2222 4.38184 57.6884 4.38184C56.1546 4.38184 54.7126 4.97945 53.6279 6.06358C52.5433 7.14825 51.9462 8.59021 51.9462 10.124C51.9462 11.6578 52.5433 13.0998 53.6279 14.1845C54.7126 15.2691 56.1546 15.8662 57.6884 15.8662C58.6684 15.8662 59.6104 15.6216 60.4462 15.1623C64.849 20.8068 67.2656 27.8174 67.2656 34.9999C67.2656 52.7915 52.7916 67.2655 35 67.2655C32.8584 67.2655 30.7169 67.0546 28.6356 66.638C27.8954 66.4901 27.175 66.9702 27.0265 67.7104C26.8786 68.4511 27.3587 69.171 28.0989 69.3195C30.3564 69.7708 32.6785 69.9999 35 69.9999C44.3487 69.9999 53.1382 66.3592 59.7488 59.7487C66.3593 53.1381 70 44.3486 70 34.9999C70 27.1354 67.3292 19.4604 62.4671 13.3075ZM55.5618 12.2512C54.9935 11.6829 54.6806 10.9278 54.6806 10.124C54.6806 9.3208 54.9935 8.56564 55.5618 7.99741C56.1295 7.42917 56.8852 7.11621 57.6884 7.11621C58.4916 7.11621 59.2473 7.42917 59.8155 7.99741C60.9878 9.1702 60.9878 11.0784 59.8155 12.2512C59.2473 12.8189 58.4916 13.1318 57.6884 13.1318C56.8846 13.1318 56.1295 12.8189 55.5618 12.2512Z" fill="#F45B1E"/>
<path d="M29.3582 58.5156C29.3582 59.2708 29.9708 59.8828 30.7254 59.8828H39.2741C40.0292 59.8828 40.6413 59.2708 40.6413 58.5156V55.8651C42.4389 55.3812 44.1575 54.6688 45.7725 53.7385L47.6438 55.6098C47.9002 55.8662 48.2478 56.0104 48.611 56.0104C48.9731 56.0104 49.3213 55.8662 49.5776 55.6093L55.62 49.5627C56.1535 49.0286 56.1535 48.1629 55.62 47.6294L53.7508 45.7602C54.6811 44.1452 55.3935 42.4266 55.8774 40.629H58.5178C59.2729 40.629 59.8849 40.0169 59.8849 39.2618V30.7131C59.8849 29.958 59.2729 29.3459 58.5178 29.3459H55.8768C55.393 27.5488 54.6811 25.8302 53.7508 24.2152L55.6098 22.3562C55.8662 22.0998 56.0104 21.7516 56.0104 21.389C56.0098 21.0264 55.8656 20.6782 55.6093 20.4218L49.5621 14.3795C49.0286 13.846 48.1629 13.846 47.6289 14.38L45.7725 16.237C44.1575 15.3066 42.4389 14.5942 40.6413 14.1103V11.4844C40.6413 10.7292 40.0292 10.1172 39.2741 10.1172H30.7254C29.9708 10.1172 29.3582 10.7292 29.3582 11.4844V14.1109C27.5611 14.5942 25.8425 15.3066 24.2275 16.237L22.3706 14.38C21.8371 13.8465 20.9714 13.846 20.4373 14.3795L14.3907 20.4224C14.1338 20.6787 13.9896 21.0264 13.9896 21.389C13.9896 21.7516 14.1338 22.0998 14.3902 22.3562L16.2492 24.2152C15.3189 25.8302 14.6065 27.5483 14.1226 29.3459H11.487C10.7319 29.3459 10.1199 29.958 10.1199 30.7126L10.1151 39.2612C10.1145 39.6239 10.2587 39.9721 10.5151 40.2284C10.7714 40.4848 11.1191 40.629 11.4822 40.629H14.1226C14.6065 42.4266 15.3189 44.1452 16.2492 45.7602L14.38 47.6294C13.8465 48.1629 13.846 49.0286 14.38 49.5627L20.4224 55.6093C20.6787 55.8656 21.0264 56.0104 21.389 56.0104H21.3895C21.7522 56.0104 22.0998 55.8662 22.3562 55.6098L24.227 53.7385C25.8425 54.6688 27.5611 55.3812 29.3582 55.8651V58.5156ZM24.7632 50.8631C24.2222 50.5133 23.5103 50.5891 23.0542 51.0447L21.3895 52.7094L17.28 48.5966L18.943 46.933C19.3986 46.4774 19.4744 45.7655 19.1246 45.2245C17.8851 43.3062 17.0135 41.2036 16.535 38.9745C16.3993 38.3448 15.8428 37.8946 15.1982 37.8946H12.85L12.8532 32.0803H15.1982C15.8428 32.0803 16.3993 31.6306 16.535 31.0004C17.0135 28.7718 17.8851 26.6692 19.1246 24.7509C19.4744 24.2099 19.3986 23.498 18.943 23.0424L17.2907 21.3895L21.4034 17.28L23.0542 18.9313C23.5103 19.3868 24.2217 19.4621 24.7632 19.1129C26.681 17.8733 28.7836 17.0017 31.0127 16.5232C31.6424 16.3876 32.0926 15.8305 32.0926 15.1865V12.8516H37.9069V15.1859C37.9069 15.8305 38.3566 16.3876 38.9867 16.5227C41.2154 17.0017 43.3185 17.8728 45.2363 19.1123C45.7773 19.4621 46.4892 19.3868 46.9447 18.9307L48.596 17.28L52.7088 21.3895L51.0564 23.0419C50.6004 23.498 50.5251 24.2099 50.8749 24.7509C52.1144 26.6692 52.9855 28.7718 53.4645 31.0004C53.5996 31.6306 54.1566 32.0803 54.8013 32.0803H57.1506V37.8946H54.8013C54.1566 37.8946 53.6002 38.3448 53.4645 38.9745C52.986 41.2031 52.1144 43.3062 50.8749 45.224C50.5251 45.7655 50.6009 46.4774 51.0564 46.933L52.7195 48.596L48.6099 52.7088L46.9453 51.0447C46.4892 50.5886 45.7773 50.5133 45.2363 50.8631C43.3179 52.1027 41.2154 52.9737 38.9867 53.4528C38.3566 53.5884 37.9069 54.1449 37.9069 54.7895V57.1484H32.0926V54.7895C32.0926 54.1454 31.6424 53.5884 31.0127 53.4528C28.7841 52.9742 26.6815 52.1027 24.7632 50.8631Z" fill="#F45B1E"/>
<path d="M46.2969 35C46.2969 28.7708 41.2292 23.7031 35 23.7031C28.7707 23.7031 23.7031 28.7708 23.7031 35C23.7031 41.2293 28.7707 46.297 35 46.297C41.2292 46.297 46.2969 41.2293 46.2969 35ZM26.4374 35C26.4374 30.2784 30.2784 26.4375 35 26.4375C39.7216 26.4375 43.5625 30.279 43.5625 35C43.5625 39.7211 39.7216 43.5626 35 43.5626C30.2784 43.5626 26.4374 39.7216 26.4374 35Z" fill="#F45B1E"/>
<path d="M47.5888 5.17055C47.9488 5.17055 48.3012 5.02422 48.5555 4.77C48.8097 4.51419 48.956 4.16171 48.956 3.80176C48.956 3.44394 48.8102 3.09093 48.5555 2.83511C48.3012 2.5809 47.9488 2.43457 47.5888 2.43457C47.2278 2.43457 46.8769 2.5809 46.6227 2.83511C46.368 3.09093 46.2216 3.44234 46.2216 3.80176C46.2216 4.16278 46.368 4.51419 46.6227 4.77C46.8769 5.02422 47.2278 5.17055 47.5888 5.17055Z" fill="#F45B1E"/>
<path d="M22.471 64.854C22.1116 64.854 21.7586 65.0003 21.5044 65.2545C21.2502 65.5088 21.1038 65.8618 21.1038 66.2212C21.1038 66.5822 21.2502 66.9336 21.5044 67.1878C21.7586 67.442 22.1116 67.5884 22.471 67.5884C22.8304 67.5884 23.1834 67.442 23.4377 67.1878C23.6919 66.9336 23.8382 66.5806 23.8382 66.2212C23.8382 65.8618 23.6919 65.5088 23.4377 65.2545C23.1834 65.0003 22.8304 64.854 22.471 64.854Z" fill="#F45B1E"/>
</g>
<defs>
<clipPath id="clip0_166_403">
<rect width="70" height="70" fill="white"/>
</clipPath>
</defs>
</svg>
