<svg width="70" height="70" viewBox="0 0 70 70" fill="none" xmlns="http://www.w3.org/2000/svg">
<g clip-path="url(#clip0_166_414)">
<path d="M69.7148 29.8538L57.9986 14.6342C57.565 14.0713 56.774 13.9325 56.1743 14.3138L48.6099 19.1246H38.7442C38.6166 19.1246 38.4895 19.1518 38.3667 19.1876L30.7174 21.3895L22.7802 19.2186L15.0679 14.3138C14.4783 13.9389 13.7017 14.066 13.2633 14.6097L0.30437 30.6613C-0.161328 31.2381 -0.0844241 32.0803 0.477405 32.5636L7.26955 38.4089L13.3631 46.6205C11.581 48.5191 11.6157 51.5136 13.47 53.3684C14.2919 54.1897 15.337 54.6538 16.4121 54.7617C16.3747 55.0052 16.3555 55.2525 16.3555 55.5035C16.3555 56.7991 16.8602 58.0173 17.7761 58.9332C18.6925 59.8497 19.9107 60.3544 21.2063 60.3544C21.2239 60.3544 21.241 60.3533 21.2581 60.3528C21.2576 60.3859 21.256 60.4185 21.256 60.4516C21.256 61.7472 21.7607 62.9654 22.6766 63.8818C23.593 64.7977 24.8112 65.3024 26.1068 65.3024C26.3626 65.3024 26.6158 65.2816 26.8641 65.2431C26.9693 66.3219 27.4345 67.3719 28.2591 68.1965C29.2044 69.1423 30.4466 69.6149 31.6888 69.6149C32.931 69.6149 34.1732 69.1423 35.1191 68.1965L35.8609 67.4547L36.1722 67.7057C37.11 68.6141 38.3277 69.0681 39.5453 69.0681C40.7875 69.0681 42.0298 68.5954 42.975 67.6496C43.9401 66.6846 44.4127 65.4108 44.393 64.1435C45.6598 64.1627 46.934 63.6906 47.8991 62.7261C48.863 61.7616 49.3357 60.4889 49.317 59.2222C50.6366 59.243 51.8885 58.7362 52.8225 57.8021C53.7876 56.8371 54.2602 55.5633 54.2405 54.296C55.5083 54.3152 56.7815 53.8431 57.7466 52.8781C59.3936 51.2311 59.6056 48.6852 58.3842 46.8059L62.8335 37.4876L69.5225 31.7315C70.0753 31.2557 70.1597 30.4311 69.7148 29.8538ZM14.6289 17.288L20.1745 20.8143L8.11069 35.5116L3.2764 31.3508L14.6289 17.288ZM15.4113 48.4492L17.085 46.7754C17.1357 46.7247 17.1891 46.6766 17.2436 46.6318C17.571 46.3647 17.9673 46.2056 18.387 46.1677C18.3988 46.1666 18.4111 46.1666 18.4228 46.1661C18.4826 46.1612 18.5424 46.158 18.6028 46.1586C19.1764 46.1666 19.7094 46.401 20.1046 46.8181C20.88 47.6379 20.8384 48.9773 20.0116 49.8041L18.3886 51.4271C17.5678 52.2479 16.2321 52.2479 15.4113 51.4271C14.5904 50.6057 14.5904 49.27 15.4113 48.4492ZM19.7174 56.9919C19.3195 56.5946 19.1005 56.0659 19.1005 55.5035C19.1005 54.9412 19.3195 54.4124 19.7174 54.0146L22.9628 50.7691C23.5845 50.1475 24.5618 49.9771 25.3565 50.3557C26.1757 50.7461 26.6366 51.6353 26.5165 52.5299C26.4524 53.0073 26.2302 53.457 25.8895 53.7983L22.6953 56.9919C22.2974 57.3898 21.7687 57.6088 21.2063 57.6088C20.644 57.6088 20.1152 57.3898 19.7174 56.9919ZM24.6179 61.94C24.22 61.5426 24.001 61.0139 24.001 60.4516C24.001 59.8892 24.22 59.3605 24.6179 58.9626L27.8628 55.7171C28.5277 55.0528 29.5942 54.9096 30.4081 55.3834C31.1515 55.8159 31.5409 56.6651 31.4132 57.511C31.3433 57.9762 31.1222 58.4136 30.7895 58.7463L27.5958 61.94C27.1979 62.3379 26.6692 62.5568 26.1068 62.5568C25.5445 62.5568 25.0158 62.3379 24.6179 61.94ZM30.1999 66.2552C29.379 65.4343 29.379 64.0986 30.1999 63.2778L31.8736 61.6041C31.9243 61.5533 31.9772 61.5058 32.0317 61.4609C32.0333 61.4599 32.0343 61.4588 32.0354 61.4577C32.3078 61.2366 32.6277 61.0887 32.9689 61.0241C32.977 61.023 32.985 61.0219 32.993 61.0209C33.0517 61.0102 33.1115 61.0016 33.1714 60.9963C33.1954 60.9942 33.2194 60.9942 33.244 60.9926C33.2931 60.9899 33.3417 60.9867 33.3914 60.9872C33.9644 60.9952 34.498 61.2292 34.8932 61.6468C34.9418 61.6981 34.9871 61.7515 35.0288 61.8065C35.6601 62.6316 35.5751 63.8573 34.7917 64.6412L33.1772 66.2557C32.3564 67.0765 31.0207 67.076 30.1999 66.2552ZM55.8053 50.9368C54.9844 51.7582 53.6487 51.7576 52.8279 50.9368C52.798 50.9069 52.7665 50.8791 52.7344 50.8529L43.9086 41.9342C43.3751 41.3953 42.5061 41.391 41.9673 41.9246C41.4284 42.4576 41.4241 43.3265 41.9571 43.8653L50.8786 52.8797C50.8796 52.8808 50.8807 52.8818 50.8818 52.8829C51.7026 53.7037 51.7026 55.04 50.8818 55.8608C50.4839 56.2587 49.9552 56.4776 49.3928 56.4776C48.8299 56.4776 48.3012 56.2587 47.9039 55.8608L41.9358 49.8308C41.4028 49.2919 40.5339 49.2876 39.995 49.8206C39.4561 50.3541 39.4519 51.223 39.9849 51.7619L45.8616 57.6996C45.8915 57.7369 45.9236 57.7727 45.9578 57.8069C46.7786 58.6278 46.7786 59.964 45.9578 60.7848C45.1364 61.6057 43.8002 61.6051 42.9793 60.7843L39.7221 57.4929C39.1886 56.954 38.3197 56.9492 37.7808 57.4827C37.2419 58.0157 37.2377 58.8846 37.7707 59.4235L40.9371 62.6225C40.967 62.6599 40.999 62.6962 41.0337 62.7304C41.8546 63.5512 41.8546 64.8874 41.0337 65.7083C40.2129 66.5297 38.8772 66.5291 38.0564 65.7083C37.9618 65.6138 37.8508 65.5411 37.745 65.46C37.6553 65.3916 37.6318 65.3441 37.6767 65.2351C37.7221 65.1246 37.7899 65.0247 37.8353 64.9136C37.8855 64.7897 37.9261 64.6621 37.9656 64.5339C38.176 63.8556 38.238 63.1261 38.1434 62.4222C37.9618 61.0716 37.219 59.8529 36.0932 59.0817C35.4849 58.6657 34.781 58.3928 34.0515 58.2902C34.405 56.7308 33.9804 55.04 32.876 53.873C31.9671 52.9128 30.7393 52.3739 29.4185 52.3558C29.3705 52.3553 29.3224 52.3553 29.2738 52.3558C29.3032 51.0954 28.8449 49.843 27.976 48.925C27.0665 47.9648 25.8387 47.4259 24.5185 47.4077C24.126 47.4024 23.7297 47.4441 23.3474 47.5322C23.1839 46.3952 22.6109 45.3431 21.743 44.5906C20.8805 43.844 19.7959 43.4295 18.6407 43.4135C17.4247 43.3959 16.23 43.8445 15.3269 44.66L10.021 37.5106L22.7145 22.0464L26.76 23.153L21.4766 32.476C20.8378 33.6034 20.6765 34.9119 21.0221 36.1605C21.3676 37.4096 22.1783 38.4489 23.3057 39.0877C23.3762 39.1277 23.4472 39.1656 23.5193 39.2019C23.5247 39.2046 23.53 39.2073 23.5359 39.21C23.7255 39.3045 23.9204 39.3857 24.118 39.454C25.0382 39.7728 26.0321 39.8076 26.9907 39.5427C28.2393 39.1971 29.2786 38.3859 29.9173 37.259L33.3508 31.2002L39.4812 31.6349L55.8058 47.9589C56.6261 48.7803 56.6261 50.1159 55.8053 50.9368ZM56.374 44.6451L41.0599 29.3315C41.0311 29.3021 41.0006 29.2743 40.9691 29.2482C40.7486 29.0645 40.4751 28.9534 40.1867 28.9331L32.6806 28.4006C32.1614 28.3648 31.6455 28.641 31.3892 29.0933L27.529 35.9057C27.2519 36.3949 26.8006 36.7469 26.2585 36.8969C25.717 37.047 25.1487 36.9765 24.659 36.6993C24.1698 36.4222 23.8179 35.9709 23.6678 35.4288C23.5177 34.8868 23.5877 34.3185 23.8654 33.8293L29.0185 24.7349L31.1067 24.134C31.1206 24.1298 31.1339 24.1244 31.1478 24.1202L38.9413 21.8696H48.3578L60.1135 36.8136L56.374 44.6451ZM61.9117 34.6592L51.0404 20.832L56.5887 17.3034L66.747 30.4984L61.9117 34.6592Z" fill="#F45B1E"/>
<path d="M42.4079 16.5473C42.7593 16.5473 43.1107 16.4132 43.3788 16.1451L52.7548 6.76923C53.291 6.23303 53.291 5.36412 52.7548 4.82793C52.2186 4.29173 51.3497 4.29173 50.8135 4.82793L41.4375 14.2038C40.9014 14.74 40.9014 15.6089 41.4375 16.1451C41.7056 16.4132 42.0571 16.5473 42.4079 16.5473Z" fill="#F45B1E"/>
<path d="M26.6212 16.1451C26.8893 16.4132 27.2407 16.5473 27.5921 16.5473C27.943 16.5473 28.2944 16.4132 28.5625 16.1451C29.0987 15.6089 29.0987 14.74 28.5625 14.2038L19.1866 4.82793C18.6504 4.29173 17.7815 4.29173 17.2453 4.82793C16.7091 5.36412 16.7091 6.23303 17.2453 6.76923L26.6212 16.1451Z" fill="#F45B1E"/>
<path d="M35 16.5473C35.7578 16.5473 36.3725 15.9326 36.3725 15.1748V7.4155C36.3725 6.65767 35.7578 6.04297 35 6.04297C34.2421 6.04297 33.6274 6.65767 33.6274 7.4155V15.1748C33.6274 15.9326 34.2421 16.5473 35 16.5473Z" fill="#F45B1E"/>
<path d="M33.7333 2.44063C33.9511 2.96881 34.4943 3.31542 35.0673 3.28551C35.6334 3.25614 36.1306 2.87375 36.3058 2.33489C36.4815 1.79175 36.2903 1.17278 35.8353 0.826709C35.3712 0.473163 34.7239 0.453403 34.2385 0.774372C33.6969 1.13219 33.4871 1.84462 33.7333 2.44063Z" fill="#F45B1E"/>
</g>
<defs>
<clipPath id="clip0_166_414">
<rect width="70" height="70" fill="white"/>
</clipPath>
</defs>
</svg>
