<svg width="74" height="74" viewBox="0 0 74 74" fill="none" xmlns="http://www.w3.org/2000/svg">
<path d="M22.1959 21.2471L27.4066 17.0059L29.3455 18.5004L44.5938 30.275L46.8962 32.0725H36.2527L33.9301 30.275L24.1348 22.7417L22.1959 21.2471Z" fill="#F45B1E"/>
<path d="M19.1867 23.6895L21.1256 25.184L27.6087 30.2735L29.8909 32.071H8.88651L19.1867 23.6895Z" fill="#F45B1E"/>
<path d="M0 37C0 16.6015 16.6015 0 37 0C57.3985 0 74 16.6015 74 37C74 57.3985 57.3985 74 37 74C22.1152 74 9.25 65.1539 3.39301 52.4705H26.2353V42.857C26.2353 40.8979 27.7096 39.2014 29.6687 39.0802C31.8095 38.9389 33.5868 40.6354 33.5868 42.7358V52.4705H48.2495V28.9214L31.8499 16.5005L29.8908 15.0262L35.0207 10.8455L36.9596 12.3199L48.2293 20.9034V17.5104C48.2293 15.7937 49.6228 14.4001 51.3395 14.4001C53.0562 14.4001 54.4498 15.7937 54.4498 17.5104V25.6496L60.5289 30.2948L62.8717 32.0721H54.4498V58.5497H16.9853C22.2364 63.4372 29.2849 66.4263 37 66.4263C53.2178 66.4263 66.4263 53.2178 66.4263 37C66.4263 20.7822 53.2178 7.57369 37 7.57369C20.7822 7.57369 7.57369 20.7822 7.57369 37C7.57369 41.0393 8.40175 44.8766 9.87609 48.3908H1.79749C0.626092 44.7959 0 40.9787 0 37Z" fill="#F45B1E"/>
</svg>
