<svg width="51" height="51" viewBox="0 0 51 51" fill="none" xmlns="http://www.w3.org/2000/svg">
<path d="M50.4573 31.6691C49.4872 30.2435 47.5337 29.8662 46.1037 30.8272L39.5952 35.1829L39.5763 21.6251L41.8374 23.7433C42.3182 24.1936 42.9452 24.4414 43.6034 24.4414C43.6046 24.4414 43.606 24.4414 43.6073 24.4414C44.3179 24.4404 45.004 24.1426 45.4897 23.6241C45.9616 23.1204 46.2091 22.4632 46.1866 21.7733C46.1641 21.0834 45.8742 20.4436 45.3705 19.9718L41.0838 15.9561C40.7903 15.6812 40.3296 15.6962 40.0548 15.9897C39.78 16.2831 39.795 16.7437 40.0884 17.0186L44.3751 21.0343C44.595 21.2403 44.7215 21.5196 44.7314 21.8207C44.7411 22.1218 44.6332 22.4088 44.4271 22.6286C44.2119 22.8583 43.9201 22.985 43.6051 22.9854C43.6045 22.9854 43.604 22.9854 43.6034 22.9854C43.3162 22.9854 43.0426 22.8773 42.8327 22.6806L42.8326 22.6805L25.8112 6.73517C25.5307 6.4725 25.0942 6.4729 24.8144 6.73656L7.83717 22.7296C7.61793 22.9362 7.33125 23.0444 7.03003 23.036C6.72881 23.0271 6.44921 22.9013 6.24262 22.6818C6.03603 22.4626 5.92716 22.1759 5.93622 21.8748C5.94519 21.5736 6.07099 21.294 6.29023 21.0874L24.5364 3.89899C24.9689 3.49149 25.6474 3.49049 26.081 3.8969L36.7559 13.8969C37.0492 14.1717 37.5099 14.1568 37.7848 13.8633C38.0596 13.5699 38.0446 13.1093 37.7513 12.8343L27.0765 2.83437C26.0831 1.90362 24.5289 1.90571 23.5381 2.83925L17.6971 8.34167L17.6955 7.36022C17.6951 7.05083 17.5742 6.76017 17.3551 6.54183C17.1365 6.32378 16.8462 6.20375 16.5374 6.20375C16.5368 6.20375 16.5364 6.20375 16.5358 6.20375L12.3574 6.20963C12.0481 6.21003 11.7575 6.33095 11.539 6.54999C11.3207 6.76904 11.2006 7.05999 11.2011 7.36948L11.2126 14.4504L5.29195 20.0278C4.78952 20.5011 4.50155 21.1417 4.48093 21.8316C4.46031 22.5215 4.70963 23.1781 5.18288 23.6803C5.65602 24.1827 6.29661 24.4708 6.9866 24.4914C7.013 24.4922 7.03939 24.4926 7.06579 24.4926C7.7267 24.4926 8.35255 24.2446 8.83555 23.7894L11.0916 21.6641L11.1006 28.0681C10.3706 27.9618 9.63213 27.906 8.89024 27.906H7.64462V27.4696C7.64462 26.0042 6.4524 24.812 4.98704 24.812H2.65758C1.19222 24.8119 0 26.004 0 27.4695V38.8765C0 39.2785 0.325922 39.6045 0.727945 39.6045C1.12997 39.6045 1.45589 39.2785 1.45589 38.8765V27.4695C1.45589 26.8069 1.99498 26.2678 2.65758 26.2678H4.98694C5.64954 26.2678 6.18863 26.8069 6.18863 27.4695V28.6339V43.555V44.708C6.18863 45.3706 5.64954 45.9096 4.98694 45.9096H2.65758C1.99498 45.9096 1.45589 45.3706 1.45589 44.708V43.4342C1.45589 43.0321 1.12997 42.7062 0.727945 42.7062C0.325922 42.7062 0 43.0321 0 43.4342V44.708C0 46.1733 1.19222 47.3655 2.65758 47.3655H4.98694C6.4523 47.3655 7.64452 46.1734 7.64452 44.708V44.609L18.3051 48.646C18.3248 48.6535 18.3449 48.6601 18.3652 48.6657C18.8287 48.7966 19.2919 48.8623 19.7494 48.8623C19.9968 48.8623 20.2425 48.843 20.4858 48.8046L36.1524 46.5462C36.1561 46.5457 36.1597 46.5452 36.1634 46.5446C37.4954 46.3319 38.7519 45.7688 39.7971 44.9163C39.8062 44.909 39.8152 44.9013 39.8238 44.8934L49.9452 35.7903C51.1239 34.7439 51.344 32.9722 50.4573 31.6691ZM16.24 7.66014L16.2434 9.7111L12.6662 13.0809L12.6574 7.66502L16.24 7.66014ZM25.3148 8.26517L38.1184 20.2593L38.1406 36.1563L36.0796 37.5357L33.8971 37.4133L33.8394 36.8335C33.6363 34.7917 32.129 33.1493 30.1359 32.7573L30.1228 23.2999C30.1218 22.5742 29.5309 21.9844 28.8052 21.9844C28.8046 21.9844 28.8041 21.9844 28.8034 21.9844L21.8653 21.9941C21.5133 21.9946 21.1826 22.1321 20.9342 22.3813C20.6857 22.6304 20.5491 22.9615 20.5496 23.3134L20.5612 31.5591C19.1869 31.245 17.8746 30.7261 16.6477 30.0084C16.4946 29.9189 16.34 29.8324 16.1841 29.7483C16.1234 29.7155 16.0616 29.6848 16.0004 29.6528C15.9055 29.6033 15.8109 29.5535 15.7151 29.506C15.6388 29.4681 15.5616 29.4323 15.4847 29.3957C15.4031 29.357 15.3216 29.3178 15.2394 29.2805C15.1558 29.2425 15.0714 29.2063 14.9871 29.1699C14.9101 29.1366 14.8331 29.1032 14.7556 29.0712C14.669 29.0354 14.5818 29.0011 14.4946 28.9669C14.4172 28.9366 14.3397 28.9065 14.2619 28.8774C14.1755 28.8452 14.0887 28.814 14.0018 28.7834C13.9202 28.7546 13.8385 28.7265 13.7565 28.6991C13.6732 28.6713 13.5897 28.6441 13.5058 28.6178C13.4165 28.5896 13.3267 28.5627 13.2369 28.5361C13.1597 28.5134 13.0826 28.4907 13.005 28.4691C12.9037 28.441 12.8019 28.4146 12.7 28.3885C12.6523 28.3762 12.6049 28.3624 12.5569 28.3505L12.5456 20.2943L25.3148 8.26517ZM28.6798 32.5751L22.5912 31.8742L22.0176 31.8081L22.0058 23.4498L28.6671 23.4405L28.6798 32.5751ZM48.9752 34.7049L38.8638 43.799C38.0212 44.4822 37.0105 44.9342 35.9392 45.1061L20.2793 47.3634C20.276 47.3639 20.2728 47.3644 20.2695 47.3649L20.2587 47.3666C19.7842 47.4417 19.2902 47.4101 18.79 47.2728L7.64462 43.0521V29.3618H8.89024C9.95058 29.3618 11.0037 29.4843 12.0293 29.722C12.0675 29.7309 12.1055 29.74 12.1436 29.7491C12.2696 29.7795 12.3953 29.8108 12.5204 29.8446C12.5314 29.8476 12.5422 29.8508 12.5532 29.8538C12.6786 29.8881 12.8035 29.9242 12.928 29.962C12.9503 29.9688 12.9727 29.9754 12.9949 29.9823C13.1274 30.0232 13.2593 30.066 13.3905 30.1108C13.404 30.1155 13.4175 30.1203 13.431 30.1249C13.7043 30.2193 13.9748 30.3222 14.2419 30.4335C14.2565 30.4396 14.271 30.4457 14.2856 30.4519C14.4188 30.5078 14.5511 30.5657 14.6826 30.6259C14.6861 30.6275 14.6897 30.6292 14.6932 30.6309C14.8203 30.6892 14.9465 30.7498 15.0719 30.8121C15.0866 30.8193 15.1015 30.8265 15.1162 30.8339C15.2387 30.8951 15.3603 30.9586 15.4811 31.0235C15.5039 31.0358 15.5266 31.0483 15.5494 31.0607C15.6713 31.1271 15.7926 31.1949 15.9126 31.2651C17.6449 32.2784 19.5307 32.9347 21.5177 33.2159C21.524 33.2168 21.5302 33.2176 21.5364 33.2183L29.6926 34.1573C29.7377 34.1638 29.7825 34.1713 29.827 34.1796C31.0277 34.4052 31.9754 35.2924 32.2925 36.4478C32.3395 36.6189 32.3725 36.796 32.3907 36.9776L32.4231 37.3033L17.137 35.964C16.7368 35.9291 16.3834 36.2252 16.3483 36.6257C16.3131 37.0262 16.6095 37.3793 17.0099 37.4144L33.1707 38.8303C33.1746 38.8306 33.1784 38.8305 33.1822 38.8308C33.186 38.8311 33.1896 38.8317 33.1935 38.832L36.2413 39.003C36.2549 39.0038 36.2685 39.0041 36.282 39.0041C36.2965 39.0041 36.3107 39.0018 36.325 39.0009C36.3413 38.9999 36.3575 38.9993 36.3737 38.9973C36.3954 38.9946 36.4166 38.9899 36.4379 38.9852C36.4531 38.9818 36.4685 38.9793 36.4834 38.9749C36.5067 38.9683 36.5291 38.9592 36.5518 38.9501C36.5639 38.9453 36.5765 38.9416 36.5884 38.936C36.6224 38.9203 36.6555 38.9021 36.6869 38.881L39.274 37.1497L39.2743 37.1494L46.9145 32.0362C47.6832 31.5196 48.7325 31.7223 49.2536 32.4881C49.7299 33.1879 49.6116 34.1397 48.9752 34.7049Z" fill="white"/>
</svg>
