<svg width="51" height="51" viewBox="0 0 51 51" fill="none" xmlns="http://www.w3.org/2000/svg">
<path d="M48.4114 13.2181C47.9552 13.2181 47.5853 13.5879 47.5853 14.0442C47.5853 14.5005 47.9551 14.8704 48.4114 14.8704C48.9277 14.8704 49.3478 15.2905 49.3478 15.8067V45.7678C49.3478 46.2841 48.9277 46.7042 48.4114 46.7042H6.11343C3.65357 46.7042 1.65232 44.7029 1.65232 42.2431C1.65232 39.7832 3.65347 37.7818 6.11343 37.7818C6.56964 37.7818 6.93959 37.4119 6.93959 36.9556V14.8703H11.4007C11.8569 14.8703 12.2269 14.5005 12.2269 14.0441C12.2269 13.5879 11.857 13.218 11.4007 13.218H6.93949V3.46971C6.93949 3.0135 6.56964 2.64355 6.11333 2.64355C2.74245 2.64355 0 5.386 0 8.75698V42.243C0 45.6139 2.74245 48.3564 6.11343 48.3564H48.4114C49.8388 48.3564 51 47.1951 51 45.7678V15.8066C51 14.3792 49.8388 13.2181 48.4114 13.2181ZM1.65222 8.75698C1.65222 6.57942 3.22077 4.76115 5.28717 4.37257V36.1852C3.86166 36.3787 2.59054 37.0654 1.65222 38.0671V8.75698Z" fill="white"/>
<path d="M37.8372 13.2183H23.7375C23.2813 13.2183 22.9114 13.5881 22.9114 14.0444C22.9114 14.5006 23.2812 14.8706 23.7375 14.8706H37.8372C38.2935 14.8706 38.6634 14.5007 38.6634 14.0444C38.6634 13.5881 38.2936 13.2183 37.8372 13.2183Z" fill="white"/>
<path d="M38.4932 38.2164L15.5818 8.25532C15.3666 7.97393 14.9958 7.86097 14.6607 7.97462C14.325 8.08808 14.0994 8.40285 14.0994 8.75706V38.7182C14.0994 39.1744 14.4692 39.5443 14.9255 39.5443H37.837C38.1513 39.5443 38.4383 39.366 38.5777 39.0842C38.7169 38.8024 38.6841 38.4661 38.4932 38.2164ZM15.7516 37.892V11.1973L36.1651 37.892H15.7516Z" fill="white"/>
<path d="M29.5771 33.8103L19.9877 21.2704C19.7725 20.9891 19.4019 20.8761 19.0666 20.9897C18.7311 21.1033 18.5054 21.4181 18.5054 21.7722V34.3122C18.5054 34.7684 18.8752 35.1383 19.3315 35.1383H28.9209C29.2353 35.1383 29.5223 34.96 29.6616 34.6782C29.801 34.3964 29.7681 34.06 29.5771 33.8103ZM20.1576 33.4861V24.2126L27.2491 33.4861H20.1576Z" fill="white"/>
<path d="M45.6536 9.33129L43.8912 4.92527C43.7659 4.6117 43.4621 4.40601 43.1242 4.40601C42.7863 4.40601 42.4826 4.6117 42.3572 4.92527L40.5948 9.33129C40.5557 9.42901 40.5356 9.5331 40.5356 9.63819V41.3618C40.5356 42.3033 41.3015 43.0691 42.2429 43.0691H44.0053C44.9468 43.0691 45.7126 42.3032 45.7126 41.3618V9.63819C45.7127 9.5331 45.6927 9.42901 45.6536 9.33129ZM43.1242 7.45654L44.0189 9.69327H42.2294L43.1242 7.45654ZM44.0605 41.3618C44.0605 41.3922 44.0358 41.4169 44.0054 41.4169H42.243C42.2127 41.4169 42.188 41.3922 42.188 41.3618V39.5443H44.0605V41.3618ZM44.0605 37.892H42.188V11.3456H44.0605V37.892Z" fill="white"/>
</svg>
