<svg width="51" height="51" viewBox="0 0 51 51" fill="none" xmlns="http://www.w3.org/2000/svg">
<g clip-path="url(#clip0_43_248)">
<path d="M48.2769 3.48364H16.3666C15.9539 3.48364 15.6195 3.81813 15.6195 4.23071C15.6195 4.64329 15.9539 4.97778 16.3666 4.97778H48.277C48.9546 4.97778 49.506 5.52912 49.506 6.20676V10.9455H1.49414V6.20676C1.49414 5.52912 2.04548 4.97778 2.72312 4.97778H13.3168C13.7295 4.97778 14.0638 4.64329 14.0638 4.23071C14.0638 3.81813 13.7295 3.48364 13.3168 3.48364H2.72312C1.22161 3.48364 0 4.70525 0 6.20676V45.8662C0 46.7762 0.740297 47.5165 1.65023 47.5165H17.5667C17.9794 47.5165 18.3138 47.182 18.3138 46.7694C18.3138 46.3568 17.9794 46.0223 17.5667 46.0223H14.0088V29.0023L15.4618 25.5457C15.5233 25.3992 15.5366 25.2369 15.4996 25.0823L13.9996 18.8138C13.9191 18.4776 13.6187 18.2407 13.273 18.2407H10.2731C9.92747 18.2407 9.62705 18.4777 9.54656 18.8138L8.04644 25.0822C8.00949 25.2368 8.02274 25.3991 8.0843 25.5456L9.52594 28.9751V46.0222H1.65023C1.56417 46.0222 1.49414 45.9522 1.49414 45.8661V12.4396H49.5059V15.7073C49.5059 16.1199 49.8402 16.4544 50.2529 16.4544C50.6656 16.4544 51 16.1199 51 15.7073V6.20676C51 4.70525 49.7784 3.48364 48.2769 3.48364ZM10.8625 19.7348H12.6837L13.9895 25.1923L12.6312 28.4236C12.5574 28.5395 12.5145 28.677 12.5145 28.8246V46.0223H11.0201V28.8246C11.0202 28.7252 11.0004 28.6267 10.9618 28.5351L9.55662 25.1923L10.8625 19.7348Z" fill="white"/>
<path d="M50.2529 18.01C49.8402 18.01 49.5058 18.3445 49.5058 18.7571V45.8662C49.5058 45.9522 49.4358 46.0223 49.3497 46.0223H35.7567V42.0307C39.5957 40.2649 42.0488 36.4602 42.0488 32.2006C42.0488 30.3046 41.5511 28.4389 40.6097 26.8049C39.6968 25.2207 38.3871 23.8829 36.8224 22.936C36.3754 22.6655 35.8155 22.6564 35.3611 22.9125C34.9026 23.171 34.6289 23.6397 34.6289 24.1665V30.0053H27.826V24.1665C27.826 23.6396 27.5523 23.1709 27.0938 22.9125C26.6395 22.6565 26.0796 22.6655 25.6326 22.936C24.0677 23.8829 22.7581 25.2207 21.8452 26.8049C20.9038 28.4387 20.4061 30.3045 20.4061 32.2006C20.4061 36.4602 22.8591 40.2649 26.6982 42.0307V46.0224H20.6168C20.2041 46.0224 19.8698 46.3568 19.8698 46.7694C19.8698 47.182 20.2041 47.5165 20.6168 47.5165H49.3498C50.2599 47.5165 51.0001 46.7762 51.0001 45.8663V18.7571C51 18.3445 50.6656 18.01 50.2529 18.01ZM34.2626 41.5399V46.0224H31.9745V38.6354C31.9745 38.2228 31.6401 37.8884 31.2274 37.8884C30.8147 37.8884 30.4803 38.2228 30.4803 38.6354V46.0224H28.1921V41.5399C28.1921 41.2356 28.0077 40.9618 27.7257 40.8475C24.1869 39.413 21.9002 36.0187 21.9002 32.2005C21.9002 28.9361 23.555 25.9741 26.3319 24.2596V30.7523C26.3319 31.1649 26.6663 31.4994 27.079 31.4994H35.3759C35.7886 31.4994 36.123 31.1649 36.123 30.7523V24.2596C38.8998 25.9741 40.5546 28.9361 40.5546 32.2005C40.5546 36.0187 38.268 39.413 34.7291 40.8475C34.4471 40.9618 34.2626 41.2356 34.2626 41.5399Z" fill="white"/>
<path d="M34.0359 7.35229H7.38696C6.97438 7.35229 6.63989 7.68668 6.63989 8.09937C6.63989 8.51195 6.97428 8.84644 7.38696 8.84644H34.0359C34.4485 8.84644 34.7829 8.51195 34.7829 8.09937C34.7829 7.68678 34.4485 7.35229 34.0359 7.35229Z" fill="white"/>
<path d="M37.6488 7.14941C37.2361 7.14941 36.9017 7.4839 36.9017 7.89648V8.02628C36.9017 8.43886 37.2361 8.77335 37.6488 8.77335C38.0615 8.77335 38.3959 8.43886 38.3959 8.02628V7.89648C38.396 7.4839 38.0615 7.14941 37.6488 7.14941Z" fill="white"/>
<path d="M40.6309 7.14941C40.2182 7.14941 39.8838 7.4839 39.8838 7.89648V8.02628C39.8838 8.43886 40.2182 8.77335 40.6309 8.77335C41.0435 8.77335 41.3779 8.43886 41.3779 8.02628V7.89648C41.3779 7.4839 41.0435 7.14941 40.6309 7.14941Z" fill="white"/>
<path d="M43.613 7.14941C43.2004 7.14941 42.866 7.4839 42.866 7.89648V8.02628C42.866 8.43886 43.2004 8.77335 43.613 8.77335C44.0257 8.77335 44.3601 8.43886 44.3601 8.02628V7.89648C44.3601 7.4839 44.0257 7.14941 43.613 7.14941Z" fill="white"/>
<path d="M20.5922 20.3689H20.0736V19.8503C20.0736 19.4378 19.7392 19.1033 19.3265 19.1033C18.9139 19.1033 18.5795 19.4378 18.5795 19.8503V20.3689H18.0609C17.6482 20.3689 17.3138 20.7034 17.3138 21.116C17.3138 21.5286 17.6482 21.863 18.0609 21.863H18.5795V22.3816C18.5795 22.7942 18.9139 23.1287 19.3265 23.1287C19.7392 23.1287 20.0736 22.7942 20.0736 22.3816V21.863H20.5922C21.0049 21.863 21.3393 21.5286 21.3393 21.116C21.3393 20.7034 21.0049 20.3689 20.5922 20.3689Z" fill="white"/>
<path d="M42.367 20.4351H41.8485V19.9165C41.8485 19.5039 41.5141 19.1694 41.1015 19.1694C40.6888 19.1694 40.3544 19.5039 40.3544 19.9165V20.4351H39.8358C39.4231 20.4351 39.0887 20.7696 39.0887 21.1821C39.0887 21.5947 39.4231 21.9292 39.8358 21.9292H40.3544V22.4478C40.3544 22.8604 40.6888 23.1948 41.1015 23.1948C41.5141 23.1948 41.8485 22.8604 41.8485 22.4478V21.9292H42.367C42.7797 21.9292 43.1141 21.5947 43.1141 21.1821C43.1141 20.7696 42.7797 20.4351 42.367 20.4351Z" fill="white"/>
</g>
<defs>
<clipPath id="clip0_43_248">
<rect width="51" height="51" fill="white"/>
</clipPath>
</defs>
</svg>
