<svg width="61" height="61" viewBox="0 0 61 61" fill="none" xmlns="http://www.w3.org/2000/svg">
<g clip-path="url(#clip0_95_456)">
<path d="M0.192973 5.5955L4.26119 12.7144C4.39841 12.955 4.62809 13.1291 4.89669 13.1964L8.69212 14.1453L21.7097 27.1628L23.148 25.7249L9.92673 12.504C9.79662 12.3735 9.63345 12.281 9.45481 12.2363L5.80789 11.3213L2.34422 5.25662L5.3138 2.28704L11.381 5.75406L12.2964 9.40097C12.3407 9.58004 12.4336 9.74362 12.5637 9.87373L25.785 23.095L27.2229 21.6567L14.2054 8.63912L13.2565 4.84578C13.1892 4.57677 13.0151 4.34667 12.7746 4.20902L5.65519 0.14123C5.25816 -0.0846884 4.75863 -0.0177495 4.43481 0.304812L0.367014 4.37302C0.0398501 4.69475 -0.0312725 5.19512 0.192973 5.5955Z" fill="#F45B1E"/>
<path d="M42.4753 20.0434L20.1014 42.4177L18.6631 40.9794L41.0374 18.6055L42.4753 20.0434Z" fill="#F45B1E"/>
<path d="M16.1855 43.2096C16.0015 42.9033 15.6709 42.7163 15.3137 42.7163H9.21176C8.85489 42.7163 8.52396 42.9033 8.3403 43.2096L5.28914 48.2944C5.09543 48.6166 5.09543 49.0194 5.28914 49.342L8.3403 54.4269C8.52396 54.7327 8.85489 54.9201 9.21176 54.9201H15.3137C15.6709 54.9201 16.0015 54.7327 16.1855 54.4269L19.2363 49.342C19.43 49.0194 19.43 48.6166 19.2363 48.2944L16.1855 43.2096ZM14.7384 52.886H9.78743L7.34667 48.8182L9.78743 44.75H14.7384L17.1792 48.8182L14.7384 52.886Z" fill="#F45B1E"/>
<path d="M48.8748 24.4101C55.5917 24.4327 61.0556 19.0056 61.0781 12.2887C61.0815 11.2662 60.956 10.2479 60.7045 9.25679C60.569 8.71166 60.0172 8.37989 59.472 8.51544C59.293 8.56021 59.1298 8.65267 58.9993 8.78278L52.6685 15.1093L47.6456 13.4355L45.9704 8.41378L52.3012 2.08178C52.6982 1.68433 52.6978 1.04046 52.3004 0.643427C52.1694 0.512478 52.0046 0.4196 51.8243 0.375253C45.3103 -1.27437 38.6929 2.66875 37.0433 9.18232C36.7927 10.1705 36.6676 11.1863 36.671 12.2059C36.6735 13.0066 36.7559 13.8049 36.9182 14.5889L14.6455 36.8612C13.8615 36.6992 13.0633 36.6168 12.2629 36.6139C5.52261 36.6139 0.0587158 42.0778 0.0587158 48.8181C0.0587158 55.558 5.52261 61.0219 12.2629 61.0219C19.0028 61.0219 24.4667 55.558 24.4667 48.8181C24.4642 48.0174 24.3814 47.2191 24.2195 46.4351L29.5516 41.103L31.8836 43.435C32.281 43.832 32.9245 43.832 33.3219 43.435L33.8302 42.9262C34.2762 42.4832 34.9971 42.4832 35.443 42.9262C35.8886 43.3705 35.8894 44.0918 35.4451 44.5374C35.4447 44.5378 35.4439 44.5386 35.443 44.5395L34.9347 45.0478C34.5377 45.4448 34.5377 46.0887 34.9347 46.4857L47.0666 58.6176C50.2575 61.8377 55.4544 61.8612 58.6746 58.6703C61.8944 55.4794 61.9178 50.282 58.7269 47.0622C58.7098 47.0447 58.6922 47.0271 58.6746 47.0095L46.5428 34.8781C46.1457 34.4811 45.5019 34.4811 45.1048 34.8781L44.5965 35.3864C44.1501 35.8299 43.4297 35.8299 42.9833 35.3864C42.5382 34.9421 42.5369 34.2208 42.9812 33.7757C42.982 33.7749 42.9829 33.7744 42.9833 33.7736L43.492 33.2649C43.8891 32.8678 43.8891 32.224 43.492 31.8269L41.16 29.4949L46.4922 24.1628C47.2762 24.3247 48.0744 24.4076 48.8748 24.4101ZM52.8706 58.9882C52.1318 58.987 51.3992 58.8535 50.7076 58.5937L58.6504 50.6506C59.849 53.839 58.2362 57.3951 55.0478 58.5937C54.352 58.8552 53.6145 58.9891 52.8706 58.9882ZM41.3492 32.5561C40.2229 33.8995 40.3995 35.9018 41.7428 37.0277C42.9235 38.0171 44.6442 38.0163 45.8236 37.0247L57.2367 48.4479C57.3605 48.5721 57.4764 48.7031 57.5885 48.8361L48.8932 57.5315C48.7597 57.4198 48.6288 57.3039 48.5045 57.1796L37.0826 45.7569C38.2089 44.4135 38.0323 42.4112 36.6889 41.2854C35.5083 40.2955 33.7871 40.2968 32.6078 41.2879L30.9807 39.6609L39.7217 30.9329L41.3492 32.5561ZM45.4559 22.3275L22.3849 45.3938C22.1318 45.6465 22.0302 46.0134 22.1163 46.3602C23.5116 51.8396 20.2006 57.4127 14.7208 58.8075C9.24148 60.2028 3.6684 56.8918 2.27314 51.412C0.878299 45.9326 4.18927 40.3596 9.66905 38.9643C11.3266 38.5426 13.0633 38.5426 14.7208 38.9643C15.0677 39.0492 15.4337 38.9476 15.6873 38.6961L38.7528 15.6294C39.0055 15.3767 39.1071 15.0098 39.0201 14.6634C37.6345 9.24801 40.9011 3.73475 46.3164 2.3487C47.3398 2.08722 48.3982 1.98681 49.4525 2.05249L44.0878 7.41932C43.8154 7.69126 43.72 8.09415 43.8418 8.45938L45.8755 14.5617C45.9771 14.865 46.2156 15.1035 46.5193 15.2043L52.6217 17.2384C52.9865 17.3602 53.3894 17.2652 53.6617 16.9933L59.0265 11.6285C59.0386 11.8226 59.0449 12.0147 59.0449 12.2059C59.0733 17.794 54.5667 22.3471 48.9785 22.376C48.1146 22.3802 47.2536 22.2739 46.4168 22.0597C46.07 21.9731 45.7031 22.0743 45.4504 22.327H45.4559V22.3275Z" fill="#F45B1E"/>
<path d="M52.6459 51.1497L51.2075 52.588L41.0378 42.4183L42.4758 40.98L52.6459 51.1497Z" fill="#F45B1E"/>
</g>
<defs>
<clipPath id="clip0_95_456">
<rect width="61" height="61" fill="white"/>
</clipPath>
</defs>
</svg>
