<svg width="200" height="49" viewBox="0 0 200 49" fill="none" xmlns="http://www.w3.org/2000/svg">
<path d="M74.184 16.216L74.64 15.208C76 15.24 77.136 15.456 78.048 15.856C78.96 16.24 79.64 16.776 80.088 17.464C80.536 18.152 80.76 18.96 80.76 19.888C80.76 20.864 80.536 21.744 80.088 22.528C79.656 23.296 78.992 23.904 78.096 24.352C77.2 24.784 76.088 25 74.76 25H61.056L62.424 15.76L61.056 7H74.256C75.92 7 77.216 7.392 78.144 8.176C79.088 8.944 79.56 10.016 79.56 11.392C79.56 12.16 79.384 12.888 79.032 13.576C78.696 14.264 78.128 14.848 77.328 15.328C76.544 15.792 75.496 16.088 74.184 16.216ZM66.528 23.752L64.392 21.208H73.104C73.728 21.208 74.216 21.056 74.568 20.752C74.92 20.432 75.096 19.992 75.096 19.432C75.096 18.904 74.912 18.472 74.544 18.136C74.176 17.784 73.64 17.608 72.936 17.608H65.688V13.912H72.144C72.64 13.912 73.056 13.76 73.392 13.456C73.728 13.152 73.896 12.752 73.896 12.256C73.896 11.84 73.744 11.496 73.44 11.224C73.152 10.936 72.736 10.792 72.192 10.792H64.416L66.528 8.248L67.752 15.76L66.528 23.752ZM88.0716 25.384C86.7916 25.384 85.6876 25.12 84.7596 24.592C83.8476 24.064 83.1516 23.32 82.6716 22.36C82.1916 21.384 81.9516 20.256 81.9516 18.976V11.248H87.4476V18.184C87.4476 19.064 87.6716 19.744 88.1196 20.224C88.5676 20.704 89.1996 20.944 90.0156 20.944C90.6396 20.944 91.1596 20.824 91.5756 20.584C91.9916 20.344 92.3036 19.992 92.5116 19.528C92.7356 19.064 92.8476 18.496 92.8476 17.824L94.5036 18.688C94.3116 20.144 93.9036 21.376 93.2796 22.384C92.6556 23.376 91.8956 24.128 90.9996 24.64C90.1196 25.136 89.1436 25.384 88.0716 25.384ZM93.7596 25L92.8476 19.312V11.248H98.3436V20.152L99.2796 25H93.7596ZM100.647 10.984L103.407 11.56L106.143 10.984V25H100.647V10.984ZM103.407 10.072C102.479 10.072 101.727 9.84 101.151 9.376C100.575 8.912 100.287 8.288 100.287 7.504C100.287 6.704 100.575 6.072 101.151 5.608C101.727 5.144 102.479 4.912 103.407 4.912C104.367 4.912 105.127 5.144 105.687 5.608C106.263 6.072 106.551 6.704 106.551 7.504C106.551 8.288 106.263 8.912 105.687 9.376C105.127 9.84 104.367 10.072 103.407 10.072ZM108.183 6.52H113.679V25H108.183V6.52ZM128.103 25L127.431 19.864L128.319 18.184L127.431 15.952L128.631 6.52H134.343L132.879 17.68L133.815 25H128.103ZM129.207 18.136C129.015 19.592 128.591 20.872 127.935 21.976C127.295 23.064 126.463 23.912 125.439 24.52C124.431 25.112 123.271 25.408 121.959 25.408C120.631 25.408 119.455 25.104 118.431 24.496C117.407 23.888 116.607 23.04 116.031 21.952C115.471 20.848 115.191 19.576 115.191 18.136C115.191 16.664 115.471 15.384 116.031 14.296C116.607 13.192 117.407 12.344 118.431 11.752C119.455 11.144 120.631 10.84 121.959 10.84C123.271 10.84 124.431 11.136 125.439 11.728C126.463 12.32 127.303 13.168 127.959 14.272C128.615 15.36 129.031 16.648 129.207 18.136ZM120.735 18.136C120.735 18.744 120.855 19.28 121.095 19.744C121.351 20.208 121.703 20.576 122.151 20.848C122.599 21.12 123.111 21.256 123.687 21.256C124.279 21.256 124.847 21.12 125.391 20.848C125.935 20.576 126.415 20.208 126.831 19.744C127.247 19.28 127.551 18.744 127.743 18.136C127.551 17.528 127.247 16.992 126.831 16.528C126.415 16.048 125.935 15.672 125.391 15.4C124.847 15.128 124.279 14.992 123.687 14.992C123.111 14.992 122.599 15.128 122.151 15.4C121.703 15.672 121.351 16.048 121.095 16.528C120.855 16.992 120.735 17.528 120.735 18.136ZM134.794 11.248H140.29L141.226 16.936V25H135.73V16.096L134.794 11.248ZM146.122 10.84C147.466 10.84 148.602 11.104 149.53 11.632C150.458 12.16 151.17 12.912 151.666 13.888C152.178 14.848 152.434 15.976 152.434 17.272V25H146.914V18.064C146.914 17.168 146.674 16.48 146.194 16C145.73 15.52 145.066 15.28 144.202 15.28C143.594 15.28 143.066 15.408 142.618 15.664C142.17 15.92 141.826 16.28 141.586 16.744C141.346 17.208 141.226 17.768 141.226 18.424L139.57 17.56C139.778 16.072 140.194 14.832 140.818 13.84C141.458 12.848 142.234 12.104 143.146 11.608C144.058 11.096 145.05 10.84 146.122 10.84ZM162.626 25.408C160.85 25.408 159.29 25.104 157.946 24.496C156.602 23.888 155.554 23.04 154.802 21.952C154.05 20.848 153.674 19.576 153.674 18.136C153.674 16.664 154.05 15.384 154.802 14.296C155.554 13.192 156.602 12.344 157.946 11.752C159.29 11.144 160.858 10.84 162.65 10.84C164.426 10.84 165.986 11.144 167.33 11.752C168.674 12.344 169.714 13.192 170.45 14.296C171.202 15.384 171.578 16.664 171.578 18.136C171.578 19.576 171.202 20.848 170.45 21.952C169.714 23.04 168.674 23.888 167.33 24.496C165.986 25.104 164.418 25.408 162.626 25.408ZM162.65 21.376C163.37 21.376 163.978 21.248 164.474 20.992C164.986 20.736 165.37 20.368 165.626 19.888C165.898 19.392 166.034 18.808 166.034 18.136C166.034 17.448 165.898 16.864 165.626 16.384C165.37 15.888 164.986 15.512 164.474 15.256C163.978 15 163.37 14.872 162.65 14.872C161.93 14.872 161.314 15 160.802 15.256C160.29 15.512 159.898 15.888 159.626 16.384C159.37 16.864 159.242 17.44 159.242 18.112C159.242 18.8 159.37 19.392 159.626 19.888C159.898 20.368 160.29 20.736 160.802 20.992C161.314 21.248 161.93 21.376 162.65 21.376ZM191.483 21.856H189.826L193.427 11.248H198.923L193.907 25H188.29L184.162 13.888H185.962L181.811 25H176.194L171.178 11.248H176.698L180.298 21.856H178.618L182.458 11.248H187.667L191.483 21.856Z" fill="black"/>
<path d="M64.298 44.126C63.626 44.126 63.0287 43.9953 62.506 43.734C61.9927 43.4633 61.5913 43.0853 61.302 42.6C61.022 42.1053 60.882 41.5407 60.882 40.906V37.28C60.882 36.6453 61.022 36.09 61.302 35.614C61.5913 35.1287 61.9927 34.7553 62.506 34.494C63.0287 34.2233 63.626 34.088 64.298 34.088C64.97 34.088 65.5627 34.2187 66.076 34.48C66.5893 34.732 66.986 35.0913 67.266 35.558C67.5553 36.0247 67.7 36.566 67.7 37.182V37.196C67.7 37.2427 67.686 37.28 67.658 37.308C67.63 37.336 67.5973 37.35 67.56 37.35L66.496 37.406C66.4027 37.406 66.356 37.364 66.356 37.28V37.238C66.356 36.6407 66.1693 36.16 65.796 35.796C65.4227 35.432 64.9233 35.25 64.298 35.25C63.6727 35.25 63.1687 35.432 62.786 35.796C62.4127 36.16 62.226 36.6407 62.226 37.238V40.962C62.226 41.5593 62.4127 42.04 62.786 42.404C63.1687 42.768 63.6727 42.95 64.298 42.95C64.9233 42.95 65.4227 42.768 65.796 42.404C66.1693 42.04 66.356 41.5593 66.356 40.962V40.934C66.356 40.85 66.4027 40.808 66.496 40.808L67.56 40.864C67.6533 40.864 67.7 40.9107 67.7 41.004C67.7 41.62 67.5553 42.166 67.266 42.642C66.986 43.1087 66.5893 43.4727 66.076 43.734C65.5627 43.9953 64.97 44.126 64.298 44.126ZM72.3822 44.112C71.6916 44.112 71.0896 43.9393 70.5762 43.594C70.0629 43.2393 69.7036 42.7493 69.4982 42.124C69.3302 41.62 69.2462 41.0507 69.2462 40.416C69.2462 39.7533 69.3256 39.1933 69.4842 38.736C69.6896 38.12 70.0489 37.6393 70.5622 37.294C71.0756 36.9393 71.6869 36.762 72.3962 36.762C73.0682 36.762 73.6516 36.9393 74.1462 37.294C74.6502 37.6393 75.0096 38.1153 75.2242 38.722C75.3922 39.198 75.4762 39.758 75.4762 40.402C75.4762 41.0553 75.3922 41.6293 75.2242 42.124C75.0189 42.7493 74.6642 43.2393 74.1602 43.594C73.6562 43.9393 73.0636 44.112 72.3822 44.112ZM72.3822 42.95C72.7556 42.95 73.0822 42.8473 73.3622 42.642C73.6422 42.4273 73.8429 42.1287 73.9642 41.746C74.0669 41.3913 74.1182 40.9527 74.1182 40.43C74.1182 39.9073 74.0716 39.4733 73.9782 39.128C73.8569 38.7453 73.6562 38.4513 73.3762 38.246C73.0962 38.0313 72.7556 37.924 72.3542 37.924C71.9716 37.924 71.6402 38.0313 71.3602 38.246C71.0802 38.4513 70.8796 38.7453 70.7582 39.128C70.6556 39.4547 70.6042 39.8887 70.6042 40.43C70.6042 40.9713 70.6556 41.41 70.7582 41.746C70.8702 42.1287 71.0662 42.4273 71.3462 42.642C71.6356 42.8473 71.9809 42.95 72.3822 42.95ZM80.4139 36.776C81.1792 36.776 81.7859 37 82.2339 37.448C82.6819 37.8867 82.9059 38.484 82.9059 39.24V43.86C82.9059 43.9533 82.8592 44 82.7659 44H81.7019C81.6085 44 81.5619 43.9533 81.5619 43.86V39.506C81.5619 39.0393 81.4265 38.6613 81.1559 38.372C80.8852 38.0827 80.5259 37.938 80.0779 37.938C79.6392 37.938 79.2799 38.0827 78.9999 38.372C78.7199 38.6613 78.5799 39.0347 78.5799 39.492V43.86C78.5799 43.9533 78.5332 44 78.4399 44H77.3759C77.2825 44 77.2359 43.9533 77.2359 43.86V37.014C77.2359 36.9207 77.2825 36.874 77.3759 36.874H78.4399C78.5332 36.874 78.5799 36.9207 78.5799 37.014V37.518C78.5799 37.5367 78.5845 37.5507 78.5939 37.56C78.6125 37.5693 78.6265 37.5647 78.6359 37.546C79.0372 37.0327 79.6299 36.776 80.4139 36.776ZM87.3298 44.084C86.7698 44.084 86.2751 44 85.8458 43.832C85.4258 43.664 85.0991 43.4353 84.8658 43.146C84.6324 42.8473 84.5158 42.5207 84.5158 42.166V42.012C84.5158 41.9187 84.5624 41.872 84.6558 41.872H85.6638C85.7571 41.872 85.8038 41.9187 85.8038 42.012V42.082C85.8038 42.3433 85.9438 42.572 86.2238 42.768C86.5131 42.964 86.8771 43.062 87.3158 43.062C87.7358 43.062 88.0764 42.9733 88.3378 42.796C88.5991 42.6093 88.7298 42.376 88.7298 42.096C88.7298 41.8253 88.6084 41.6247 88.3658 41.494C88.1231 41.354 87.7311 41.2093 87.1898 41.06C86.6578 40.9107 86.2098 40.7613 85.8458 40.612C85.4911 40.4533 85.1878 40.234 84.9358 39.954C84.6931 39.6647 84.5718 39.296 84.5718 38.848C84.5718 38.2227 84.8144 37.728 85.2998 37.364C85.7944 36.9907 86.4478 36.804 87.2598 36.804C87.8011 36.804 88.2771 36.8927 88.6878 37.07C89.1078 37.238 89.4298 37.476 89.6538 37.784C89.8778 38.092 89.9898 38.4373 89.9898 38.82V38.862C89.9898 38.9553 89.9431 39.002 89.8498 39.002H88.8698C88.7764 39.002 88.7298 38.9553 88.7298 38.862V38.82C88.7298 38.5493 88.5944 38.3253 88.3238 38.148C88.0624 37.9613 87.7031 37.868 87.2458 37.868C86.8351 37.868 86.4991 37.9473 86.2378 38.106C85.9858 38.2647 85.8598 38.4793 85.8598 38.75C85.8598 39.0207 85.9811 39.226 86.2238 39.366C86.4758 39.506 86.8771 39.6553 87.4278 39.814C87.9691 39.9633 88.4171 40.1127 88.7718 40.262C89.1358 40.402 89.4438 40.6167 89.6958 40.906C89.9478 41.186 90.0738 41.5547 90.0738 42.012C90.0738 42.6467 89.8218 43.1507 89.3178 43.524C88.8231 43.8973 88.1604 44.084 87.3298 44.084ZM95.1463 37.84C95.1463 37.9333 95.0997 37.98 95.0063 37.98H93.4943C93.457 37.98 93.4383 37.9987 93.4383 38.036V41.746C93.4383 42.138 93.527 42.4227 93.7043 42.6C93.8817 42.768 94.157 42.852 94.5303 42.852H94.9363C95.0297 42.852 95.0763 42.8987 95.0763 42.992V43.86C95.0763 43.9533 95.0297 44 94.9363 44C94.6377 44.0187 94.423 44.028 94.2923 44.028C93.583 44.028 93.0463 43.902 92.6823 43.65C92.3277 43.3887 92.1503 42.9127 92.1503 42.222V38.036C92.1503 37.9987 92.1317 37.98 92.0943 37.98H91.2403C91.147 37.98 91.1003 37.9333 91.1003 37.84V37.014C91.1003 36.9207 91.147 36.874 91.2403 36.874H92.0943C92.1317 36.874 92.1503 36.8553 92.1503 36.818V35.166C92.1503 35.0727 92.197 35.026 92.2903 35.026H93.2983C93.3917 35.026 93.4383 35.0727 93.4383 35.166V36.818C93.4383 36.8553 93.457 36.874 93.4943 36.874H95.0063C95.0997 36.874 95.1463 36.9207 95.1463 37.014V37.84ZM99.9223 36.804C100.221 36.804 100.492 36.8647 100.734 36.986C100.8 37.014 100.823 37.07 100.804 37.154L100.58 38.204C100.571 38.288 100.515 38.316 100.412 38.288C100.254 38.2227 100.067 38.19 99.8523 38.19L99.6563 38.204C99.2176 38.2227 98.8536 38.3767 98.5643 38.666C98.2843 38.946 98.1443 39.3147 98.1443 39.772V43.86C98.1443 43.9533 98.0976 44 98.0043 44H96.9403C96.847 44 96.8003 43.9533 96.8003 43.86V37.014C96.8003 36.9207 96.847 36.874 96.9403 36.874H98.0043C98.0976 36.874 98.1443 36.9207 98.1443 37.014V37.756C98.1443 37.784 98.149 37.8027 98.1583 37.812C98.177 37.812 98.191 37.8027 98.2003 37.784C98.6203 37.1307 99.1943 36.804 99.9223 36.804ZM106.238 37.014C106.238 36.9207 106.284 36.874 106.378 36.874H107.428C107.521 36.874 107.568 36.9207 107.568 37.014V43.86C107.568 43.9533 107.521 44 107.428 44H106.378C106.284 44 106.238 43.9533 106.238 43.86V43.342C106.238 43.3233 106.228 43.314 106.21 43.314C106.2 43.3047 106.186 43.3093 106.168 43.328C105.794 43.8413 105.22 44.098 104.446 44.098C103.988 44.098 103.564 44.0093 103.172 43.832C102.789 43.6547 102.481 43.3933 102.248 43.048C102.014 42.7027 101.898 42.2827 101.898 41.788V37.014C101.898 36.9207 101.944 36.874 102.038 36.874H103.088C103.181 36.874 103.228 36.9207 103.228 37.014V41.368C103.228 41.8533 103.354 42.236 103.606 42.516C103.867 42.796 104.231 42.936 104.698 42.936C105.164 42.936 105.538 42.796 105.818 42.516C106.098 42.2267 106.238 41.844 106.238 41.368V37.014ZM112.385 44.112C111.675 44.112 111.069 43.9347 110.565 43.58C110.061 43.216 109.715 42.726 109.529 42.11C109.389 41.6807 109.319 41.116 109.319 40.416C109.319 39.772 109.389 39.2073 109.529 38.722C109.715 38.1247 110.061 37.6487 110.565 37.294C111.078 36.9393 111.685 36.762 112.385 36.762C113.085 36.762 113.696 36.9393 114.219 37.294C114.741 37.6487 115.082 38.0967 115.241 38.638C115.297 38.7873 115.334 38.9413 115.353 39.1C115.353 39.1747 115.311 39.2213 115.227 39.24L114.177 39.394H114.149C114.083 39.394 114.037 39.352 114.009 39.268L113.967 39.044C113.892 38.7267 113.71 38.4607 113.421 38.246C113.131 38.0313 112.781 37.924 112.371 37.924C111.969 37.924 111.629 38.0313 111.349 38.246C111.069 38.4607 110.887 38.7453 110.803 39.1C110.719 39.436 110.677 39.8793 110.677 40.43C110.677 40.9713 110.719 41.41 110.803 41.746C110.896 42.1193 111.078 42.4133 111.349 42.628C111.629 42.8427 111.969 42.95 112.371 42.95C112.781 42.95 113.131 42.8427 113.421 42.628C113.719 42.4133 113.906 42.1333 113.981 41.788C113.99 41.7787 113.99 41.7693 113.981 41.76C113.981 41.7413 113.985 41.7273 113.995 41.718V41.662C114.023 41.5873 114.074 41.5593 114.149 41.578L115.199 41.746C115.273 41.7647 115.311 41.802 115.311 41.858V41.914C115.311 41.998 115.287 42.1007 115.241 42.222C115.082 42.7913 114.741 43.2487 114.219 43.594C113.696 43.9393 113.085 44.112 112.385 44.112ZM120.412 37.84C120.412 37.9333 120.365 37.98 120.272 37.98H118.76C118.723 37.98 118.704 37.9987 118.704 38.036V41.746C118.704 42.138 118.793 42.4227 118.97 42.6C119.147 42.768 119.423 42.852 119.796 42.852H120.202C120.295 42.852 120.342 42.8987 120.342 42.992V43.86C120.342 43.9533 120.295 44 120.202 44C119.903 44.0187 119.689 44.028 119.558 44.028C118.849 44.028 118.312 43.902 117.948 43.65C117.593 43.3887 117.416 42.9127 117.416 42.222V38.036C117.416 37.9987 117.397 37.98 117.36 37.98H116.506C116.413 37.98 116.366 37.9333 116.366 37.84V37.014C116.366 36.9207 116.413 36.874 116.506 36.874H117.36C117.397 36.874 117.416 36.8553 117.416 36.818V35.166C117.416 35.0727 117.463 35.026 117.556 35.026H118.564C118.657 35.026 118.704 35.0727 118.704 35.166V36.818C118.704 36.8553 118.723 36.874 118.76 36.874H120.272C120.365 36.874 120.412 36.9207 120.412 37.014V37.84ZM122.878 35.754C122.617 35.754 122.402 35.67 122.234 35.502C122.066 35.334 121.982 35.1193 121.982 34.858C121.982 34.5967 122.066 34.382 122.234 34.214C122.402 34.046 122.617 33.962 122.878 33.962C123.139 33.962 123.354 34.046 123.522 34.214C123.69 34.382 123.774 34.5967 123.774 34.858C123.774 35.1193 123.69 35.334 123.522 35.502C123.354 35.67 123.139 35.754 122.878 35.754ZM122.318 43.986C122.225 43.986 122.178 43.9393 122.178 43.846V37.014C122.178 36.9207 122.225 36.874 122.318 36.874H123.382C123.475 36.874 123.522 36.9207 123.522 37.014V43.846C123.522 43.9393 123.475 43.986 123.382 43.986H122.318ZM128.546 44.112C127.856 44.112 127.254 43.9393 126.74 43.594C126.227 43.2393 125.868 42.7493 125.662 42.124C125.494 41.62 125.41 41.0507 125.41 40.416C125.41 39.7533 125.49 39.1933 125.648 38.736C125.854 38.12 126.213 37.6393 126.726 37.294C127.24 36.9393 127.851 36.762 128.56 36.762C129.232 36.762 129.816 36.9393 130.31 37.294C130.814 37.6393 131.174 38.1153 131.388 38.722C131.556 39.198 131.64 39.758 131.64 40.402C131.64 41.0553 131.556 41.6293 131.388 42.124C131.183 42.7493 130.828 43.2393 130.324 43.594C129.82 43.9393 129.228 44.112 128.546 44.112ZM128.546 42.95C128.92 42.95 129.246 42.8473 129.526 42.642C129.806 42.4273 130.007 42.1287 130.128 41.746C130.231 41.3913 130.282 40.9527 130.282 40.43C130.282 39.9073 130.236 39.4733 130.142 39.128C130.021 38.7453 129.82 38.4513 129.54 38.246C129.26 38.0313 128.92 37.924 128.518 37.924C128.136 37.924 127.804 38.0313 127.524 38.246C127.244 38.4513 127.044 38.7453 126.922 39.128C126.82 39.4547 126.768 39.8887 126.768 40.43C126.768 40.9713 126.82 41.41 126.922 41.746C127.034 42.1287 127.23 42.4273 127.51 42.642C127.8 42.8473 128.145 42.95 128.546 42.95ZM136.578 36.776C137.343 36.776 137.95 37 138.398 37.448C138.846 37.8867 139.07 38.484 139.07 39.24V43.86C139.07 43.9533 139.023 44 138.93 44H137.866C137.773 44 137.726 43.9533 137.726 43.86V39.506C137.726 39.0393 137.591 38.6613 137.32 38.372C137.049 38.0827 136.69 37.938 136.242 37.938C135.803 37.938 135.444 38.0827 135.164 38.372C134.884 38.6613 134.744 39.0347 134.744 39.492V43.86C134.744 43.9533 134.697 44 134.604 44H133.54C133.447 44 133.4 43.9533 133.4 43.86V37.014C133.4 36.9207 133.447 36.874 133.54 36.874H134.604C134.697 36.874 134.744 36.9207 134.744 37.014V37.518C134.744 37.5367 134.749 37.5507 134.758 37.56C134.777 37.5693 134.791 37.5647 134.8 37.546C135.201 37.0327 135.794 36.776 136.578 36.776ZM147.109 44.126C146.437 44.126 145.839 43.9953 145.317 43.734C144.803 43.4633 144.402 43.0853 144.113 42.6C143.833 42.1053 143.693 41.5407 143.693 40.906V37.28C143.693 36.6453 143.833 36.09 144.113 35.614C144.402 35.1287 144.803 34.7553 145.317 34.494C145.839 34.2233 146.437 34.088 147.109 34.088C147.781 34.088 148.373 34.2187 148.887 34.48C149.4 34.732 149.797 35.0913 150.077 35.558C150.366 36.0247 150.511 36.566 150.511 37.182V37.196C150.511 37.2427 150.497 37.28 150.469 37.308C150.441 37.336 150.408 37.35 150.371 37.35L149.307 37.406C149.213 37.406 149.167 37.364 149.167 37.28V37.238C149.167 36.6407 148.98 36.16 148.607 35.796C148.233 35.432 147.734 35.25 147.109 35.25C146.483 35.25 145.979 35.432 145.597 35.796C145.223 36.16 145.037 36.6407 145.037 37.238V40.962C145.037 41.5593 145.223 42.04 145.597 42.404C145.979 42.768 146.483 42.95 147.109 42.95C147.734 42.95 148.233 42.768 148.607 42.404C148.98 42.04 149.167 41.5593 149.167 40.962V40.934C149.167 40.85 149.213 40.808 149.307 40.808L150.371 40.864C150.464 40.864 150.511 40.9107 150.511 41.004C150.511 41.62 150.366 42.166 150.077 42.642C149.797 43.1087 149.4 43.4727 148.887 43.734C148.373 43.9953 147.781 44.126 147.109 44.126ZM155.193 44.112C154.502 44.112 153.9 43.9393 153.387 43.594C152.873 43.2393 152.514 42.7493 152.309 42.124C152.141 41.62 152.057 41.0507 152.057 40.416C152.057 39.7533 152.136 39.1933 152.295 38.736C152.5 38.12 152.859 37.6393 153.373 37.294C153.886 36.9393 154.497 36.762 155.207 36.762C155.879 36.762 156.462 36.9393 156.957 37.294C157.461 37.6393 157.82 38.1153 158.035 38.722C158.203 39.198 158.287 39.758 158.287 40.402C158.287 41.0553 158.203 41.6293 158.035 42.124C157.829 42.7493 157.475 43.2393 156.971 43.594C156.467 43.9393 155.874 44.112 155.193 44.112ZM155.193 42.95C155.566 42.95 155.893 42.8473 156.173 42.642C156.453 42.4273 156.653 42.1287 156.775 41.746C156.877 41.3913 156.929 40.9527 156.929 40.43C156.929 39.9073 156.882 39.4733 156.789 39.128C156.667 38.7453 156.467 38.4513 156.187 38.246C155.907 38.0313 155.566 37.924 155.165 37.924C154.782 37.924 154.451 38.0313 154.171 38.246C153.891 38.4513 153.69 38.7453 153.569 39.128C153.466 39.4547 153.415 39.8887 153.415 40.43C153.415 40.9713 153.466 41.41 153.569 41.746C153.681 42.1287 153.877 42.4273 154.157 42.642C154.446 42.8473 154.791 42.95 155.193 42.95ZM167.452 36.776C168.162 36.776 168.722 36.9907 169.132 37.42C169.543 37.84 169.748 38.428 169.748 39.184V43.86C169.748 43.9533 169.702 44 169.608 44H168.558C168.465 44 168.418 43.9533 168.418 43.86V39.464C168.418 38.9973 168.288 38.6287 168.026 38.358C167.774 38.078 167.434 37.938 167.004 37.938C166.575 37.938 166.225 38.0733 165.954 38.344C165.684 38.6147 165.548 38.9787 165.548 39.436V43.86C165.548 43.9533 165.502 44 165.408 44H164.358C164.265 44 164.218 43.9533 164.218 43.86V39.464C164.218 38.9973 164.088 38.6287 163.826 38.358C163.574 38.078 163.234 37.938 162.804 37.938C162.375 37.938 162.03 38.0733 161.768 38.344C161.516 38.6147 161.39 38.9787 161.39 39.436V43.86C161.39 43.9533 161.344 44 161.25 44H160.186C160.093 44 160.046 43.9533 160.046 43.86V37.014C160.046 36.9207 160.093 36.874 160.186 36.874H161.25C161.344 36.874 161.39 36.9207 161.39 37.014V37.49C161.39 37.5087 161.395 37.5227 161.404 37.532C161.423 37.5413 161.442 37.5367 161.46 37.518C161.871 37.0233 162.468 36.776 163.252 36.776C163.728 36.776 164.134 36.8693 164.47 37.056C164.806 37.2333 165.068 37.4993 165.254 37.854C165.282 37.8913 165.31 37.8913 165.338 37.854C165.562 37.49 165.856 37.2193 166.22 37.042C166.594 36.8647 167.004 36.776 167.452 36.776ZM177.395 38.666C177.572 39.17 177.661 39.7673 177.661 40.458C177.661 41.1113 177.586 41.676 177.437 42.152C177.241 42.7773 176.919 43.2627 176.471 43.608C176.023 43.944 175.449 44.112 174.749 44.112C174.431 44.112 174.128 44.0513 173.839 43.93C173.559 43.7993 173.316 43.6173 173.111 43.384C173.092 43.3653 173.073 43.3607 173.055 43.37C173.045 43.3793 173.041 43.3933 173.041 43.412V46.534C173.041 46.6273 172.994 46.674 172.901 46.674H171.837C171.743 46.674 171.697 46.6273 171.697 46.534V37.014C171.697 36.9207 171.743 36.874 171.837 36.874H172.901C172.994 36.874 173.041 36.9207 173.041 37.014V37.476C173.041 37.4947 173.045 37.5087 173.055 37.518C173.073 37.5273 173.092 37.5227 173.111 37.504C173.316 37.2707 173.559 37.0887 173.839 36.958C174.119 36.8273 174.422 36.762 174.749 36.762C175.421 36.762 175.976 36.93 176.415 37.266C176.863 37.5927 177.189 38.0593 177.395 38.666ZM175.855 42.278C176.153 41.83 176.303 41.214 176.303 40.43C176.303 39.7113 176.186 39.1327 175.953 38.694C175.682 38.1807 175.239 37.924 174.623 37.924C174.081 37.924 173.671 38.176 173.391 38.68C173.167 39.0813 173.055 39.6693 173.055 40.444C173.055 41.228 173.176 41.8253 173.419 42.236C173.689 42.712 174.086 42.95 174.609 42.95C175.169 42.95 175.584 42.726 175.855 42.278ZM182.023 36.762C182.593 36.762 183.087 36.8647 183.507 37.07C183.937 37.266 184.263 37.546 184.487 37.91C184.721 38.2647 184.837 38.6707 184.837 39.128V43.86C184.837 43.9533 184.791 44 184.697 44H183.633C183.54 44 183.493 43.9533 183.493 43.86V43.356C183.493 43.3093 183.47 43.3 183.423 43.328C183.181 43.58 182.882 43.776 182.527 43.916C182.182 44.0467 181.795 44.112 181.365 44.112C180.675 44.112 180.101 43.9393 179.643 43.594C179.195 43.2393 178.971 42.7073 178.971 41.998C178.971 41.27 179.223 40.7007 179.727 40.29C180.241 39.87 180.955 39.66 181.869 39.66H183.437C183.475 39.66 183.493 39.6413 183.493 39.604V39.226C183.493 38.8153 183.372 38.498 183.129 38.274C182.896 38.0407 182.537 37.924 182.051 37.924C181.659 37.924 181.337 38.0033 181.085 38.162C180.843 38.3113 180.693 38.5167 180.637 38.778C180.609 38.8713 180.553 38.9133 180.469 38.904L179.335 38.75C179.242 38.7313 179.2 38.694 179.209 38.638C179.284 38.0873 179.578 37.6393 180.091 37.294C180.605 36.9393 181.249 36.762 182.023 36.762ZM181.659 42.978C182.154 42.978 182.583 42.8473 182.947 42.586C183.311 42.3247 183.493 41.9933 183.493 41.592V40.766C183.493 40.7287 183.475 40.71 183.437 40.71H182.121C181.571 40.71 181.132 40.8173 180.805 41.032C180.479 41.2467 180.315 41.5453 180.315 41.928C180.315 42.2733 180.437 42.5347 180.679 42.712C180.931 42.8893 181.258 42.978 181.659 42.978ZM189.83 36.776C190.595 36.776 191.202 37 191.65 37.448C192.098 37.8867 192.322 38.484 192.322 39.24V43.86C192.322 43.9533 192.275 44 192.182 44H191.118C191.025 44 190.978 43.9533 190.978 43.86V39.506C190.978 39.0393 190.843 38.6613 190.572 38.372C190.301 38.0827 189.942 37.938 189.494 37.938C189.055 37.938 188.696 38.0827 188.416 38.372C188.136 38.6613 187.996 39.0347 187.996 39.492V43.86C187.996 43.9533 187.949 44 187.856 44H186.792C186.699 44 186.652 43.9533 186.652 43.86V37.014C186.652 36.9207 186.699 36.874 186.792 36.874H187.856C187.949 36.874 187.996 36.9207 187.996 37.014V37.518C187.996 37.5367 188.001 37.5507 188.01 37.56C188.029 37.5693 188.043 37.5647 188.052 37.546C188.453 37.0327 189.046 36.776 189.83 36.776ZM193.838 46.786C193.773 46.786 193.74 46.7393 193.74 46.646V45.82C193.74 45.7267 193.787 45.68 193.88 45.68H193.908C194.282 45.6707 194.576 45.624 194.79 45.54C195.005 45.456 195.182 45.2973 195.322 45.064C195.462 44.84 195.598 44.4993 195.728 44.042C195.738 44.0327 195.738 44.0187 195.728 44C195.728 43.972 195.728 43.958 195.728 43.958L193.39 37.028L193.376 36.972C193.376 36.9067 193.418 36.874 193.502 36.874H194.636C194.72 36.874 194.776 36.9113 194.804 36.986L196.386 42.264C196.396 42.2827 196.41 42.292 196.428 42.292C196.447 42.292 196.461 42.2827 196.47 42.264L198.038 36.986C198.066 36.9113 198.122 36.874 198.206 36.874H199.312C199.415 36.874 199.452 36.9253 199.424 37.028L196.876 44.49C196.662 45.134 196.447 45.61 196.232 45.918C196.018 46.2353 195.738 46.4593 195.392 46.59C195.047 46.7207 194.562 46.786 193.936 46.786H193.838Z" fill="black"/>
<g clip-path="url(#clip0_149_313)">
<path d="M14.6973 14.0691L18.1477 11.2607L19.4315 12.2504L29.5284 20.047L31.0529 21.2373H24.0052L22.4672 20.047L15.9812 15.0588L14.6973 14.0691Z" fill="#F45B1E"/>
<path d="M12.7047 15.6865L13.9885 16.6762L18.2814 20.0462L19.7926 21.2365H5.88428L12.7047 15.6865Z" fill="#F45B1E"/>
<path d="M0 24.5C0 10.9929 10.9929 0 24.5 0C38.0071 0 49 10.9929 49 24.5C49 38.0071 38.0071 49 24.5 49C14.6438 49 6.125 43.1425 2.24672 34.744H17.372V28.3783C17.372 27.0811 18.3483 25.9577 19.6455 25.8775C21.063 25.7838 22.2399 26.9072 22.2399 28.298V34.744H31.949V19.1507L21.0898 10.926L19.7926 9.94978L23.1894 7.1815L24.4733 8.15775L31.9356 13.8414V11.5947C31.9356 10.458 32.8584 9.53521 33.9951 9.53521C35.1318 9.53521 36.0546 10.458 36.0546 11.5947V16.9842L40.08 20.06L41.6313 21.2369H36.0546V38.7694H11.247C14.7241 42.0057 19.3914 43.985 24.5 43.985C35.2388 43.985 43.985 35.2388 43.985 24.5C43.985 13.7612 35.2388 5.01501 24.5 5.01501C13.7612 5.01501 5.01501 13.7612 5.01501 24.5C5.01501 27.1747 5.56332 29.7156 6.53957 32.0426H1.19023C0.414574 29.6621 0 27.1346 0 24.5Z" fill="#F45B1E"/>
</g>
<defs>
<clipPath id="clip0_149_313">
<rect width="49" height="49" fill="white"/>
</clipPath>
</defs>
</svg>
