<svg width="37" height="37" viewBox="0 0 37 37" fill="none" xmlns="http://www.w3.org/2000/svg">
<path d="M31.8718 15.2945H31.7802V13.0507C31.7802 5.84302 25.9373 0 18.7295 0C11.5216 0 5.67871 5.84302 5.67871 13.0507V15.2945H5.12924C3.11437 15.2945 1.55746 17.0804 1.55746 19.1411V24.8651C1.50672 26.8624 3.08475 28.5226 5.082 28.5733C5.09778 28.5738 5.11347 28.5741 5.12924 28.5742H8.51784C8.9978 28.5517 9.36864 28.1442 9.34603 27.6643C9.34524 27.647 9.34393 27.6297 9.34209 27.6125V16.3935C9.34209 15.844 9.02155 15.2945 8.51784 15.2945H7.5104V13.0507C7.5104 6.85458 12.5334 1.8316 18.7295 1.8316C24.9255 1.8316 29.9485 6.85458 29.9485 13.0507V15.2945H28.9411C28.4374 15.2945 28.1168 15.8439 28.1168 16.3935V27.6125C28.0657 28.0903 28.4116 28.5191 28.8894 28.5702C28.9065 28.572 28.9238 28.5734 28.9411 28.5741H29.9943L29.9027 28.7115C28.5286 30.5376 26.3724 31.6072 24.0871 31.5964C23.5868 29.1432 21.1924 27.56 18.7392 28.0603C16.6413 28.4882 15.1287 30.3255 15.1118 32.4664C15.1369 34.9776 17.1798 37 19.691 36.9998C20.9342 36.9797 22.1191 36.4696 22.988 35.5803C23.5743 34.9799 23.9585 34.2115 24.0871 33.3822C26.949 33.3931 29.648 32.052 31.368 29.7647L32.2381 28.4825C34.2071 28.3451 35.4435 27.1087 35.4435 25.3228V19.5988C35.4436 17.63 33.9783 15.2945 31.8718 15.2945ZM7.5104 26.7425H5.12924C4.14319 26.7185 3.36329 25.8998 3.38731 24.9137C3.38775 24.8975 3.38836 24.8813 3.38915 24.865V19.141C3.38915 18.0878 4.12181 17.1261 5.12924 17.1261H7.5104V26.7425ZM21.6602 34.2982C21.1527 34.8485 20.4397 35.1636 19.6911 35.1683C18.2013 35.1446 16.9923 33.9558 16.9436 32.4665C16.943 30.9744 18.1521 29.7643 19.6442 29.7637C21.1364 29.7631 22.3465 30.9722 22.3471 32.4643C22.3471 32.465 22.3471 32.4658 22.3471 32.4665C22.3852 33.1464 22.1359 33.8111 21.6602 34.2982ZM33.6119 25.323C33.6119 26.5594 32.4213 26.7425 31.8718 26.7425H29.9485V17.1262H31.8718C32.8792 17.1262 33.6119 18.5458 33.6119 19.599V25.323Z" fill="#F45B1E"/>
</svg>
