<svg width="37" height="37" viewBox="0 0 37 37" fill="none" xmlns="http://www.w3.org/2000/svg">
<g clip-path="url(#clip0_5_169)">
<path d="M36.4782 14.6937C36.482 14.6565 36.4825 14.619 36.4803 14.5816C36.4933 14.3658 36.4054 14.1472 36.2238 14.0019L31.9249 10.5614V8.86324C31.9249 7.26704 30.6263 5.96847 29.0301 5.96847H26.1862L19.0518 0.258633C19.0515 0.258319 19.0514 0.257986 19.0511 0.257652C18.9122 0.084067 18.7063 -0.00375247 18.5 0.000188034C18.2936 -0.00375247 18.0878 0.0840485 17.9488 0.257652C17.9486 0.257967 17.9484 0.2583 17.9482 0.258633L10.8138 5.96847H7.96982C6.37362 5.96847 5.07505 7.26704 5.07505 8.86324V10.5614L0.776204 14.0019C0.594571 14.1472 0.506622 14.3658 0.519702 14.5816C0.517408 14.619 0.517944 14.6565 0.521737 14.6937C0.519295 14.7174 0.517944 14.7414 0.517944 14.7657V33.7402C0.517944 35.5377 2.06125 37 3.9582 37H33.0417C34.9387 37 36.482 35.5376 36.482 33.7402V14.7657C36.482 14.7414 36.4807 14.7174 36.4782 14.6937ZM31.9249 12.325L34.7445 14.5816L31.9249 16.8382V12.325ZM18.5 1.58057L23.9826 5.96844H13.0174L18.5 1.58057ZM6.45199 8.8632C6.45199 8.0263 7.13292 7.34537 7.96982 7.34537H29.0301C29.867 7.34537 30.548 8.0263 30.548 8.8632V10.9008C30.548 10.9014 30.548 10.9021 30.548 10.9027V17.9402L18.5 27.5826L6.45199 17.9402V8.8632ZM5.07505 12.325V16.8382L2.25548 14.5816L5.07505 12.325ZM1.8949 33.7402V16.0566L13.1004 25.0247L2.09413 34.5467C1.96653 34.3021 1.8949 34.0287 1.8949 33.7402ZM33.0418 35.6231H3.95822C3.66589 35.6231 3.38776 35.567 3.13555 35.4665L14.1936 25.8997L17.9482 28.9046C17.9484 28.9049 17.9486 28.9053 17.9489 28.9056C18.0848 29.0754 18.2849 29.1638 18.4868 29.1638C18.4912 29.1638 18.4956 29.1634 18.5 29.1633C18.5044 29.1634 18.5088 29.1638 18.5132 29.1638C18.7151 29.1638 18.9152 29.0754 19.0511 28.9056C19.0514 28.9053 19.0516 28.9049 19.0518 28.9046L22.8063 25.8997L33.8644 35.4665C33.6122 35.567 33.3341 35.6231 33.0418 35.6231ZM35.1051 33.7402C35.1051 34.0287 35.0334 34.3021 34.9058 34.5467L23.8996 25.0248L35.1051 16.0566V33.7402ZM11.4145 13.8597H25.6581C26.0384 13.8597 26.3466 13.5515 26.3466 13.1712C26.3466 12.791 26.0384 12.4828 25.6581 12.4828H11.4145C11.0342 12.4828 10.726 12.791 10.726 13.1712C10.726 13.5515 11.0342 13.8597 11.4145 13.8597ZM26.3466 17.3135C26.3466 16.9333 26.0384 16.625 25.6581 16.625H11.4145C11.0342 16.625 10.726 16.9333 10.726 17.3135C10.726 17.6938 11.0342 18.002 11.4145 18.002H25.6581C26.0384 18.002 26.3466 17.6938 26.3466 17.3135Z" fill="#F45B1E"/>
</g>
<defs>
<clipPath id="clip0_5_169">
<rect width="37" height="37" fill="white"/>
</clipPath>
</defs>
</svg>
