<svg width="70" height="70" viewBox="0 0 70 70" fill="none" xmlns="http://www.w3.org/2000/svg">
<g clip-path="url(#clip0_166_424)">
<path d="M48.2949 30.0598C45.9342 26.9844 43.69 24.0586 42.3629 20.7008C43.9295 20.0088 45.026 18.4411 45.026 16.6213C45.026 14.7451 43.8605 13.137 42.216 12.4801C42.4793 11.9605 42.9204 11.4555 43.5194 10.7956C44.8431 9.3369 46.4904 7.52155 46.6575 3.97411C46.6808 3.47836 46.4337 3.00887 46.0116 2.74747C44.5992 1.8726 43.4269 2.09696 42.3925 2.29465C41.7311 2.42125 41.1063 2.54061 40.2616 2.43629C39.4175 2.33184 39.0146 2.00713 38.4047 1.51563C37.6831 0.934165 36.7851 0.210376 35.1678 0.0103564C35.0563 -0.00345215 34.9435 -0.00345215 34.8321 0.0103564C33.2147 0.210376 32.3168 0.934165 31.5952 1.51563C30.9853 2.00713 30.5823 2.33184 29.7382 2.43629C28.8939 2.54102 28.2689 2.42125 27.6075 2.29465C26.5732 2.09682 25.401 1.8726 23.9884 2.74747C23.5665 3.00887 23.3192 3.47836 23.3425 3.97411C23.5096 7.52155 25.1569 9.3369 26.4806 10.7956C27.0795 11.4555 27.5207 11.9605 27.784 12.4801C26.1394 13.137 24.974 14.7451 24.974 16.6213C24.974 18.4091 26.0322 19.9535 27.5548 20.6636C26.391 23.6181 24.5196 26.2441 22.8143 28.5153C22.3609 29.1191 22.4829 29.9761 23.0866 30.4295C23.3327 30.6143 23.6208 30.7034 23.9065 30.7034C24.322 30.7034 24.7323 30.5149 25.0008 30.1571C26.9263 27.5925 29.0519 24.5923 30.3181 21.0797H39.5835C41.0266 25.0802 43.6153 28.4543 46.1258 31.7249C50.0661 36.858 54.1406 42.1659 54.1406 50.2205C54.1406 65.6047 40.755 67.2657 35 67.2657C29.245 67.2657 15.8594 65.6049 15.8594 50.2205C15.8594 46.6747 16.6381 43.3698 18.2402 40.1167C18.5738 39.4392 18.295 38.6197 17.6177 38.2861C16.9405 37.9527 16.1208 38.2312 15.7872 38.9086C13.9958 42.5462 13.125 46.2462 13.125 50.2205C13.125 53.8051 13.7959 56.991 15.119 59.6897C16.329 62.1576 18.088 64.2339 20.3473 65.8609C25.0976 69.2819 30.9374 70.0001 35 70.0001C39.0626 70.0001 44.9024 69.2821 49.6527 65.8609C51.912 64.2339 53.671 62.1576 54.881 59.6897C56.2041 56.991 56.875 53.8051 56.875 50.2205C56.875 41.2375 52.5131 35.555 48.2949 30.0598ZM26.181 4.84883C26.41 4.85321 26.6893 4.90311 27.0936 4.98036C27.8549 5.12596 28.8021 5.30752 30.0739 5.15002C31.6914 4.95001 32.5894 4.22622 33.311 3.64475C33.879 3.18702 34.2675 2.87393 35 2.7487C35.7325 2.87393 36.121 3.18702 36.689 3.64475C37.4106 4.22622 38.3086 4.95001 39.9261 5.15002C41.1979 5.30752 42.1452 5.12596 42.9064 4.98036C43.3107 4.90297 43.59 4.85307 43.819 4.84883C43.4898 6.75948 42.5165 7.83176 41.4944 8.95805C40.6913 9.84303 39.808 10.8202 39.4122 12.163H30.5878C30.192 10.8202 29.3087 9.84303 28.5056 8.95819C27.4835 7.83176 26.5102 6.75934 26.181 4.84883ZM29.4323 14.8973H40.5677C41.5183 14.8973 42.2916 15.6707 42.2916 16.6211C42.2916 17.5698 41.5212 18.3417 40.5733 18.3447C40.5712 18.3447 40.5691 18.345 40.5669 18.345H29.4321C28.4815 18.345 27.7082 17.5716 27.7082 16.6211C27.7082 15.6707 28.4817 14.8973 29.4323 14.8973Z" fill="#F45B1E"/>
<path d="M29.5312 37.3369C27.2696 37.3369 25.4297 39.1769 25.4297 41.4385C25.4297 43.7001 27.2696 45.54 29.5312 45.54C31.7929 45.54 33.6328 43.7001 33.6328 41.4385C33.6328 39.1769 31.7929 37.3369 29.5312 37.3369ZM29.5312 42.8057C28.7774 42.8057 28.1641 42.1923 28.1641 41.4385C28.1641 40.6846 28.7774 40.0713 29.5312 40.0713C30.2851 40.0713 30.8984 40.6846 30.8984 41.4385C30.8984 42.1923 30.2851 42.8057 29.5312 42.8057Z" fill="#F45B1E"/>
<path d="M36.3672 52.376C36.3672 54.6376 38.2071 56.4775 40.4688 56.4775C42.7304 56.4775 44.5703 54.6376 44.5703 52.376C44.5703 50.1144 42.7304 48.2744 40.4688 48.2744C38.2071 48.2744 36.3672 50.1144 36.3672 52.376ZM41.8359 52.376C41.8359 53.1298 41.2226 53.7432 40.4688 53.7432C39.7149 53.7432 39.1016 53.1298 39.1016 52.376C39.1016 51.6221 39.7149 51.0088 40.4688 51.0088C41.2226 51.0088 41.8359 51.6221 41.8359 52.376Z" fill="#F45B1E"/>
<path d="M40.4197 37.5199C39.766 37.1423 38.9297 37.3663 38.5521 38.0203L29.0799 54.4265C28.7023 55.0804 28.9264 55.9166 29.5803 56.2941C29.7956 56.4185 30.0307 56.4776 30.2627 56.4776C30.7352 56.4776 31.1947 56.2323 31.4479 55.7937L40.92 39.3874C41.2977 38.7335 41.0736 37.8973 40.4197 37.5199Z" fill="#F45B1E"/>
<path d="M20.2196 35.6279C20.9747 35.6279 21.5868 35.0158 21.5868 34.2607C21.5868 33.5056 20.9747 32.8936 20.2196 32.8936H20.2187C19.4636 32.8936 18.8521 33.5056 18.8521 34.2607C18.8521 35.0158 19.4647 35.6279 20.2196 35.6279Z" fill="#F45B1E"/>
</g>
<defs>
<clipPath id="clip0_166_424">
<rect width="70" height="70" fill="white"/>
</clipPath>
</defs>
</svg>
