<svg width="62" height="62" viewBox="0 0 62 62" fill="none" xmlns="http://www.w3.org/2000/svg">
<g clip-path="url(#clip0_589_103)">
<path d="M60.1911 26.584V60.1916H16.6338L37.3117 35.0862L60.1911 26.584Z" fill="#C4E0FF"/>
<path d="M60.1916 61.4079H16.6343C16.1633 61.4079 15.7351 61.1365 15.5343 60.7107C15.3336 60.2848 15.396 59.7818 15.6953 59.4183L36.3731 34.3128C36.5097 34.1471 36.6873 34.0206 36.8887 33.9458L59.7682 25.4438C60.14 25.3037 60.5587 25.3577 60.8859 25.5852C61.2132 25.8126 61.408 26.1856 61.408 26.5841V60.1916C61.408 60.8633 60.8634 61.4079 60.1916 61.4079ZM19.2119 58.9753H58.9753V28.3338L38.0427 36.1124L19.2119 58.9753Z" fill="black"/>
<path d="M37.3117 26.584V60.1916H9.98047L14.7242 35.0862L37.3117 26.584Z" fill="#E7EEF9"/>
<path d="M37.3115 61.4081H9.98001C9.61772 61.4081 9.27444 61.2465 9.0434 60.968C8.81237 60.6888 8.71734 60.3218 8.78505 59.966L13.5287 34.8605C13.6071 34.443 13.8981 34.0973 14.2954 33.9477L36.8833 25.4457C37.2563 25.3055 37.675 25.3566 38.004 25.5841C38.3319 25.811 38.5279 26.1851 38.5279 26.5843V60.1917C38.5279 60.8634 37.9833 61.4081 37.3115 61.4081ZM11.4476 58.9754H36.0952V28.3417L15.7921 35.9836L11.4476 58.9754Z" fill="black"/>
<path d="M13.2632 15.7947H5.18097L1.80859 60.1912H16.6356L13.2632 15.7947Z" fill="#F9D403"/>
<path d="M16.6362 61.4079H1.80903C1.4705 61.4079 1.14741 61.2665 0.91697 61.0183C0.68653 60.77 0.570716 60.4368 0.596254 60.0995L3.96852 15.7029C4.01663 15.0686 4.54522 14.5786 5.1813 14.5786H13.2633C13.8994 14.5786 14.428 15.0686 14.4761 15.7029L17.849 60.0995C17.8745 60.4368 17.7587 60.77 17.5283 61.0183C17.2978 61.2665 16.9747 61.4079 16.6362 61.4079ZM3.121 58.9752H15.3242L12.1361 17.0113H6.30856L3.121 58.9752Z" fill="black"/>
<path d="M9.2222 17.0114C8.55048 17.0114 8.00586 16.4668 8.00586 15.7951C8.00586 13.537 8.91396 11.5824 10.6316 10.1427C13.9148 7.39052 19.7963 6.6701 27.6432 8.05927C39.3808 10.1398 46.8238 4.64602 48.0324 1.38482C48.2658 0.754671 48.9678 0.436926 49.5956 0.666177C50.2257 0.899587 50.547 1.59982 50.3142 2.22937C48.5194 7.07574 39.4954 12.6289 27.2191 10.4551C20.2026 9.21029 14.8698 9.76204 12.1942 12.007C11.0295 12.9834 10.4385 14.258 10.4385 15.7951C10.4385 16.4668 9.89393 17.0114 9.2222 17.0114Z" fill="black"/>
<path d="M54.3787 42.9598H43.1275C42.4558 42.9598 41.9111 42.4152 41.9111 41.7434C41.9111 41.0717 42.4558 40.5271 43.1275 40.5271H54.3787C55.0504 40.5271 55.595 41.0717 55.595 41.7434C55.595 42.4152 55.0504 42.9598 54.3787 42.9598Z" fill="black"/>
<path d="M54.3787 51.0692H43.1275C42.4558 51.0692 41.9111 50.5245 41.9111 49.8528C41.9111 49.1811 42.4558 48.6365 43.1275 48.6365H54.3787C55.0504 48.6365 55.595 49.1811 55.595 49.8528C55.595 50.5245 55.0504 51.0692 54.3787 51.0692Z" fill="black"/>
<path d="M21.8428 49.8523H30.2004V60.1914H21.8428V49.8523Z" fill="white"/>
<path d="M30.1999 61.4081H21.8423C21.1706 61.4081 20.626 60.8635 20.626 60.1917V49.8528C20.626 49.1811 21.1706 48.6365 21.8423 48.6365H30.1999C30.8717 48.6365 31.4163 49.1811 31.4163 49.8528V60.1917C31.4163 60.8635 30.8717 61.4081 30.1999 61.4081ZM23.0587 58.9754H28.9836V51.0692H23.0587V58.9754Z" fill="black"/>
</g>
<defs>
<clipPath id="clip0_589_103">
<rect width="62" height="62" fill="white"/>
</clipPath>
</defs>
</svg>
