<svg width="62" height="62" viewBox="0 0 62 62" fill="none" xmlns="http://www.w3.org/2000/svg">
<path d="M15.4635 55.2217H1.47656L5.20394 6.77808H11.7484L13.3845 28.109L15.4635 55.2217Z" fill="#2CD8CC"/>
<path d="M15.4633 56.4518H1.47642C1.13198 56.4518 0.812134 56.3042 0.578404 56.0582C0.344674 55.7998 0.221658 55.4677 0.246261 55.1232L3.97364 6.6796C4.02285 6.03991 4.55182 5.54785 5.2038 5.54785H11.7482C12.3879 5.54785 12.9292 6.03991 12.9784 6.6796L16.6935 55.1232C16.7181 55.4677 16.6074 55.7998 16.3736 56.0582C16.1399 56.3165 15.8078 56.4518 15.4633 56.4518ZM2.80499 53.9915H14.1348L10.6042 8.00817H6.34785L2.80499 53.9915Z" fill="black"/>
<path d="M36.9536 34.2104V55.2215H29.2897V46.2168H21.0477V55.2215H15.4628L13.3838 28.1088L28.7239 23.0037L28.7362 23.016C28.1088 26.3866 28.8346 29.7941 30.9012 32.0822C30.9628 32.156 31.0243 32.2299 31.0981 32.3037C33.2016 33.5092 35.1699 34.0874 36.9413 34.1858L36.9536 34.2104Z" fill="#2CD8CC"/>
<path d="M36.9539 56.4517H29.2901C28.6135 56.4517 28.0599 55.8981 28.0599 55.2216V47.4469H22.2781V55.2216C22.2781 55.8981 21.7246 56.4517 21.048 56.4517H15.4631C14.8234 56.4517 14.2821 55.9596 14.2329 55.32L12.1539 28.2073C12.1047 27.6414 12.4615 27.1247 12.9904 26.9402L28.3305 21.835C28.7857 21.6751 29.3024 21.8104 29.6345 22.1795C29.8928 22.4624 30.0158 22.8684 29.942 23.2497C29.3639 26.3374 30.0651 29.339 31.8119 31.2704C31.8365 31.295 31.8611 31.3196 31.8734 31.3442C33.6448 32.3283 35.367 32.8819 37.0031 32.968C37.4214 32.9926 37.8027 33.2263 38.0119 33.6077C38.1103 33.7922 38.1718 34.0136 38.1718 34.2227V55.2339C38.1841 55.8981 37.6305 56.4517 36.9539 56.4517ZM30.5202 53.9914H35.7238V35.293C34.0139 35.0346 32.2547 34.3827 30.4833 33.3739C30.3849 33.3124 30.2988 33.2509 30.2127 33.1648C30.1266 33.0787 30.0527 32.9926 29.9789 32.9065C28.1214 30.8398 27.1619 27.8997 27.2972 24.7751L14.6758 28.97L16.5948 53.9914H19.8055V46.2168C19.8055 45.5402 20.3591 44.9866 21.0357 44.9866H29.2778C29.9543 44.9866 30.5079 45.5402 30.5079 46.2168V53.9914H30.5202Z" fill="black"/>
<path d="M60.5239 20.2729V55.2218H52.8601V46.217H44.618V55.2218H36.9541V34.186C43.0803 34.5428 47.1275 29.29 47.9763 24.3325L60.5239 20.2729Z" fill="#2CD8CC"/>
<path d="M60.5236 56.4518H52.8597C52.1832 56.4518 51.6296 55.8982 51.6296 55.2216V47.447H45.8478V55.2216C45.8478 55.8982 45.2943 56.4518 44.6177 56.4518H36.9538C36.2772 56.4518 35.7236 55.8982 35.7236 55.2216V34.1859C35.7236 33.8415 35.859 33.5216 36.105 33.2879C36.351 33.0542 36.6832 32.9435 37.0276 32.9558C42.3173 33.251 45.9955 28.6379 46.7705 24.1232C46.8443 23.6681 47.1641 23.299 47.607 23.1637L60.1546 19.1042C60.5236 18.9812 60.9419 19.055 61.2617 19.2764C61.5816 19.5101 61.7661 19.8792 61.7661 20.2728V55.2216C61.7538 55.8982 61.2002 56.4518 60.5236 56.4518ZM54.0899 53.9915H59.2935V21.9582L49.0463 25.2796C47.9145 30.2248 43.9165 35.0716 38.184 35.4161V53.9915H43.3875V46.2169C43.3875 45.5403 43.9411 44.9867 44.6177 44.9867H52.8597C53.5363 44.9867 54.0899 45.5403 54.0899 46.2169V53.9915Z" fill="black"/>
<path d="M52.8599 56.4519H44.6179C43.9413 56.4519 43.3877 55.8983 43.3877 55.2217V46.217C43.3877 45.5404 43.9413 44.9868 44.6179 44.9868H52.8599C53.5365 44.9868 54.0901 45.5404 54.0901 46.217V55.2217C54.0901 55.8983 53.5365 56.4519 52.8599 56.4519ZM45.848 53.9916H51.6298V47.4471H45.848V53.9916Z" fill="black"/>
<path d="M29.2906 56.4519H21.0485C20.3719 56.4519 19.8184 55.8983 19.8184 55.2217V46.217C19.8184 45.5404 20.3719 44.9868 21.0485 44.9868H29.2906C29.9672 44.9868 30.5207 45.5404 30.5207 46.217V55.2217C30.5207 55.8983 29.9672 56.4519 29.2906 56.4519ZM22.2787 53.9916H28.0604V47.4471H22.2787V53.9916Z" fill="black"/>
<path d="M51.3718 8.73389C49.6127 11.9569 48.2349 19.141 48.1488 22.6962C48.1365 23.2375 48.075 23.7787 47.9765 24.3323C47.1277 29.2898 43.0805 34.5426 36.9543 34.1859H36.942C35.1706 34.0875 33.2023 33.5093 31.0988 32.3037C31.025 32.2299 30.9635 32.1561 30.9019 32.0823C28.8353 29.7942 28.1095 26.3867 28.7369 23.016C29.2904 19.916 30.9881 16.8529 33.842 14.7125C39.9067 10.1732 51.3718 8.73389 51.3718 8.73389Z" fill="#FFD23F"/>
<path d="M37.5324 35.4284C37.3232 35.4284 37.1018 35.4284 36.8804 35.4038C34.8014 35.2931 32.6486 34.6042 30.4836 33.3617C30.3851 33.3002 30.299 33.2387 30.2129 33.1526C30.1268 33.0665 30.053 32.9804 29.9792 32.8943C27.728 30.397 26.8054 26.6205 27.5189 22.7824C28.1709 19.1534 30.1514 15.9304 33.0915 13.7161C39.3407 9.02918 50.7197 7.56529 51.1994 7.50378C51.6669 7.45458 52.1097 7.6514 52.3681 8.03275C52.6264 8.4141 52.651 8.90616 52.4296 9.31212C50.7566 12.3752 49.4403 19.4363 49.3542 22.7208C49.3419 23.299 49.2804 23.9018 49.1574 24.5415C48.2717 29.9173 43.9046 35.4284 37.5324 35.4284ZM31.8736 31.332C33.6451 32.3161 35.3673 32.8697 37.0034 32.9558C42.3177 33.2633 45.9836 28.6379 46.7586 24.1232C46.857 23.5943 46.9062 23.1145 46.9185 22.6716C46.9923 19.7316 47.9272 14.1589 49.3419 10.3085C45.799 10.9605 38.7625 12.572 34.58 15.6966C32.132 17.5296 30.4836 20.2113 29.9423 23.2375C29.3641 26.3375 30.0653 29.3268 31.8121 31.2581C31.8367 31.2828 31.8613 31.3074 31.8736 31.332Z" fill="black"/>
<path d="M28.6138 39.5986C28.5522 39.5986 28.503 39.5986 28.4415 39.5863C27.7649 39.4879 27.2975 38.8728 27.3959 38.1962C28.7491 28.5518 40.7062 18.6982 41.2106 18.2923C41.7395 17.8617 42.5145 17.9478 42.9451 18.4645C43.3757 18.9935 43.3018 19.7685 42.7729 20.199C42.6622 20.2974 31.0618 29.8558 29.8439 38.5407C29.7455 39.1558 29.2165 39.5986 28.6138 39.5986Z" fill="black"/>
</svg>
