<svg width="80" height="80" viewBox="0 0 80 80" fill="none" xmlns="http://www.w3.org/2000/svg">
<path d="M75.9395 20.7345C75.2239 20.7345 74.6436 21.3146 74.6436 22.0304C74.6436 22.746 75.2237 23.3263 75.9395 23.3263C76.7494 23.3263 77.4083 23.9853 77.4083 24.7951V71.7929C77.4083 72.6028 76.7494 73.2617 75.9395 73.2617H9.58969C5.73109 73.2617 2.59187 70.1224 2.59187 66.2638C2.59187 62.4053 5.73094 59.2657 9.58969 59.2657C10.3053 59.2657 10.8856 58.6856 10.8856 57.9698V23.3262H17.8834C18.5991 23.3262 19.1794 22.746 19.1794 22.0303C19.1794 21.3146 18.5992 20.7343 17.8834 20.7343H10.8855V5.44291C10.8855 4.72728 10.3053 4.14697 9.58953 4.14697C4.30188 4.14697 0 8.44885 0 13.7367V66.2637C0 71.5515 4.30188 75.8534 9.58969 75.8534H75.9395C78.1784 75.8534 80 74.0318 80 71.7929V24.7949C80 22.5559 78.1784 20.7345 75.9395 20.7345ZM2.59172 13.7367C2.59172 10.3209 5.05219 7.46869 8.29359 6.85916V56.7613C6.0575 57.0648 4.06359 58.142 2.59172 59.7134V13.7367Z" fill="#F45B1E"/>
<path d="M59.3526 20.7344H37.2354C36.5198 20.7344 35.9395 21.3145 35.9395 22.0303C35.9395 22.7459 36.5196 23.3262 37.2354 23.3262H59.3526C60.0682 23.3262 60.6485 22.7461 60.6485 22.0303C60.6485 21.3145 60.0684 20.7344 59.3526 20.7344Z" fill="#F45B1E"/>
<path d="M60.382 59.9471L24.4425 12.9493C24.105 12.5079 23.5233 12.3307 22.9977 12.509C22.4711 12.687 22.1172 13.1807 22.1172 13.7363V60.7342C22.1172 61.4498 22.6973 62.0301 23.4131 62.0301H59.3527C59.8458 62.0301 60.2959 61.7504 60.5145 61.3084C60.733 60.8663 60.6814 60.3387 60.382 59.9471ZM24.7089 59.4382V17.5642L56.7302 59.4382H24.7089Z" fill="#F45B1E"/>
<path d="M46.3957 53.0357L31.3535 33.3652C31.016 32.924 30.4346 32.7468 29.9086 32.9249C29.3824 33.1031 29.0283 33.597 29.0283 34.1524V53.8229C29.0283 54.5385 29.6085 55.1188 30.3243 55.1188H45.3664C45.8596 55.1188 46.3097 54.8391 46.5283 54.3971C46.7469 53.9551 46.6954 53.4274 46.3957 53.0357ZM31.62 52.5271V37.9804L42.7439 52.5271H31.62Z" fill="#F45B1E"/>
<path d="M71.6131 14.6376L68.8486 7.72615C68.652 7.23428 68.1754 6.91162 67.6454 6.91162C67.1154 6.91162 66.639 7.23428 66.4423 7.72615L63.6778 14.6376C63.6164 14.7908 63.585 14.9541 63.585 15.119V64.8815C63.585 66.3583 64.7864 67.5596 66.2631 67.5596H69.0276C70.5045 67.5596 71.7057 66.3582 71.7057 64.8815V15.119C71.7059 14.9541 71.6745 14.7908 71.6131 14.6376ZM67.6454 11.6968L69.0489 15.2054H66.2418L67.6454 11.6968ZM69.1142 64.8815C69.1142 64.9291 69.0754 64.9679 69.0278 64.9679H66.2632C66.2156 64.9679 66.1768 64.9291 66.1768 64.8815V62.0305H69.1142V64.8815ZM69.1142 59.4386H66.1768V17.7972H69.1142V59.4386Z" fill="#F45B1E"/>
</svg>
