<svg width="49" height="49" viewBox="0 0 49 49" fill="none" xmlns="http://www.w3.org/2000/svg">
<g clip-path="url(#clip0_31_8)">
<path d="M14.6973 14.0688L18.1477 11.2604L19.4315 12.25L29.5284 20.0467L31.0529 21.2369H24.0052L22.4672 20.0467L15.9812 15.0584L14.6973 14.0688Z" fill="#F45B1E"/>
<path d="M12.7047 15.687L13.9885 16.6766L18.2814 20.0467L19.7926 21.2369H5.88428L12.7047 15.687Z" fill="#F45B1E"/>
<path d="M0 24.5C0 10.9929 10.9929 0 24.5 0C38.0071 0 49 10.9929 49 24.5C49 38.0071 38.0071 49 24.5 49C14.6438 49 6.125 43.1425 2.24672 34.744H17.372V28.3783C17.372 27.0811 18.3483 25.9577 19.6455 25.8775C21.063 25.7838 22.2399 26.9072 22.2399 28.298V34.744H31.949V19.1507L21.0898 10.926L19.7926 9.94978L23.1894 7.1815L24.4733 8.15775L31.9356 13.8414V11.5947C31.9356 10.458 32.8584 9.53521 33.9951 9.53521C35.1318 9.53521 36.0546 10.458 36.0546 11.5947V16.9842L40.08 20.06L41.6313 21.2369H36.0546V38.7694H11.247C14.7241 42.0057 19.3914 43.985 24.5 43.985C35.2388 43.985 43.985 35.2388 43.985 24.5C43.985 13.7612 35.2388 5.01501 24.5 5.01501C13.7612 5.01501 5.01501 13.7612 5.01501 24.5C5.01501 27.1747 5.56332 29.7156 6.53957 32.0426H1.19023C0.414574 29.6621 0 27.1346 0 24.5Z" fill="#F45B1E"/>
</g>
<defs>
<clipPath id="clip0_31_8">
<rect width="49" height="49" fill="white"/>
</clipPath>
</defs>
</svg>
