<svg width="54" height="54" viewBox="0 0 54 54" fill="none" xmlns="http://www.w3.org/2000/svg">
<g clip-path="url(#clip0_216_1382)">
<path d="M51.1167 3.68848H17.3294C16.8924 3.68848 16.5383 4.04264 16.5383 4.47949C16.5383 4.91634 16.8924 5.27051 17.3294 5.27051H51.1168C51.8343 5.27051 52.4181 5.85428 52.4181 6.57178V11.5892H1.58203V6.57178C1.58203 5.85428 2.1658 5.27051 2.8833 5.27051H14.1001C14.5371 5.27051 14.8911 4.91634 14.8911 4.47949C14.8911 4.04264 14.5371 3.68848 14.1001 3.68848H2.8833C1.29347 3.68848 0 4.98195 0 6.57178V48.5642C0 49.5276 0.783844 50.3115 1.7473 50.3115H18.6C19.037 50.3115 19.3911 49.9573 19.3911 49.5204C19.3911 49.0836 19.037 48.7294 18.6 48.7294H14.8328V30.7082L16.3713 27.0483C16.4365 26.8932 16.4505 26.7214 16.4114 26.5577L14.8231 19.9204C14.7379 19.5645 14.4198 19.3136 14.0538 19.3136H10.8774C10.5114 19.3136 10.1933 19.5646 10.1081 19.9204L8.51976 26.5576C8.48064 26.7213 8.49466 26.8931 8.55984 27.0482L10.0863 30.6794V48.7293H1.7473C1.65618 48.7293 1.58203 48.6552 1.58203 48.5641V13.1713H52.418V16.6312C52.418 17.068 52.772 17.4222 53.209 17.4222C53.6459 17.4222 54 17.068 54 16.6312V6.57178C54 4.98195 52.7065 3.68848 51.1167 3.68848ZM11.5015 20.8956H13.4298L14.8125 26.6741L13.3742 30.0955C13.296 30.2182 13.2507 30.3638 13.2507 30.52V48.7294H11.6683V30.52C11.6684 30.4148 11.6474 30.3106 11.6066 30.2135L10.1188 26.6741L11.5015 20.8956Z" fill="white"/>
<path d="M53.209 19.0693C52.772 19.0693 52.418 19.4235 52.418 19.8604V48.5641C52.418 48.6552 52.3438 48.7294 52.2527 48.7294H37.8601V44.503C41.9249 42.6334 44.5222 38.6048 44.5222 34.0946C44.5222 32.0871 43.9953 30.1117 42.9985 28.3816C42.0319 26.7042 40.6452 25.2877 38.9884 24.2851C38.5152 23.9986 37.9223 23.989 37.4412 24.2602C36.9557 24.5339 36.6659 25.0302 36.6659 25.5879V31.7702H29.4629V25.5879C29.4629 25.0301 29.1731 24.5338 28.6876 24.2602C28.2065 23.9891 27.6137 23.9986 27.1404 24.2851C25.4834 25.2877 24.0969 26.7042 23.1302 28.3816C22.1334 30.1115 21.6065 32.087 21.6065 34.0946C21.6065 38.6048 24.2038 42.6334 28.2687 44.503V48.7295H21.8296C21.3926 48.7295 21.0386 49.0836 21.0386 49.5205C21.0386 49.9573 21.3926 50.3115 21.8296 50.3115H52.2528C53.2163 50.3115 54.0001 49.5277 54.0001 48.5642V19.8604C54 19.4235 53.6459 19.0693 53.209 19.0693ZM36.2781 43.9834V48.7295H33.8553V40.908C33.8553 40.4712 33.5013 40.117 33.0643 40.117C32.6274 40.117 32.2733 40.4712 32.2733 40.908V48.7295H29.8505V43.9834C29.8505 43.6612 29.6553 43.3712 29.3567 43.2503C25.6097 41.7313 23.1884 38.1373 23.1884 34.0945C23.1884 30.6381 24.9406 27.5019 27.8809 25.6865V32.5612C27.8809 32.9981 28.2349 33.3522 28.6719 33.3522H37.4569C37.8939 33.3522 38.2479 32.9981 38.2479 32.5612V25.6865C41.1881 27.5019 42.9402 30.6381 42.9402 34.0945C42.9402 38.1373 40.5191 41.7313 36.772 43.2503C36.4734 43.3712 36.2781 43.6612 36.2781 43.9834Z" fill="white"/>
<path d="M36.038 7.78491H7.82153C7.38468 7.78491 7.03052 8.13897 7.03052 8.57593C7.03052 9.01278 7.38458 9.36694 7.82153 9.36694H36.038C36.475 9.36694 36.829 9.01278 36.829 8.57593C36.829 8.13908 36.475 7.78491 36.038 7.78491Z" fill="white"/>
<path d="M39.8633 7.57007C39.4263 7.57007 39.0723 7.92423 39.0723 8.36108V8.49851C39.0723 8.93536 39.4263 9.28953 39.8633 9.28953C40.3002 9.28953 40.6543 8.93536 40.6543 8.49851V8.36108C40.6544 7.92423 40.3002 7.57007 39.8633 7.57007Z" fill="white"/>
<path d="M43.021 7.57007C42.584 7.57007 42.23 7.92423 42.23 8.36108V8.49851C42.23 8.93536 42.584 9.28953 43.021 9.28953C43.458 9.28953 43.812 8.93536 43.812 8.49851V8.36108C43.812 7.92423 43.458 7.57007 43.021 7.57007Z" fill="white"/>
<path d="M46.1785 7.57007C45.7415 7.57007 45.3875 7.92423 45.3875 8.36108V8.49851C45.3875 8.93536 45.7415 9.28953 46.1785 9.28953C46.6154 9.28953 46.9695 8.93536 46.9695 8.49851V8.36108C46.9695 7.92423 46.6154 7.57007 46.1785 7.57007Z" fill="white"/>
<path d="M21.8035 21.5671H21.2544V21.0181C21.2544 20.5812 20.9003 20.2271 20.4634 20.2271C20.0264 20.2271 19.6724 20.5812 19.6724 21.0181V21.5671H19.1233C18.6863 21.5671 18.3323 21.9213 18.3323 22.3582C18.3323 22.795 18.6863 23.1492 19.1233 23.1492H19.6724V23.6982C19.6724 24.1351 20.0264 24.4893 20.4634 24.4893C20.9003 24.4893 21.2544 24.1351 21.2544 23.6982V23.1492H21.8035C22.2404 23.1492 22.5945 22.795 22.5945 22.3582C22.5945 21.9213 22.2404 21.5671 21.8035 21.5671Z" fill="white"/>
<path d="M44.859 21.6372H44.3101V21.0881C44.3101 20.6513 43.956 20.2971 43.519 20.2971C43.0821 20.2971 42.728 20.6513 42.728 21.0881V21.6372H42.179C41.742 21.6372 41.3879 21.9914 41.3879 22.4282C41.3879 22.8651 41.742 23.2192 42.179 23.2192H42.728V23.7683C42.728 24.2052 43.0821 24.5593 43.519 24.5593C43.956 24.5593 44.3101 24.2052 44.3101 23.7683V23.2192H44.859C45.296 23.2192 45.65 22.8651 45.65 22.4282C45.65 21.9914 45.296 21.6372 44.859 21.6372Z" fill="white"/>
</g>
<defs>
<clipPath id="clip0_216_1382">
<rect width="54" height="54" fill="white"/>
</clipPath>
</defs>
</svg>
