<svg width="81" height="81" viewBox="0 0 81 81" fill="none" xmlns="http://www.w3.org/2000/svg">
<path fill-rule="evenodd" clip-rule="evenodd" d="M70.2335 39.2517C69.5451 39.3679 69.0804 40.0204 69.1966 40.7101C69.4709 42.3317 69.6094 43.9632 69.6094 45.5625C69.6094 54.4832 65.6333 62.5353 59.227 67.8968C58.1081 60.6323 52.9505 54.8058 46.1015 52.7207C48.8245 50.9043 50.625 47.8095 50.625 44.2969C50.625 38.7128 46.0828 34.1719 40.5 34.1719C34.9172 34.1719 30.375 38.7128 30.375 44.2969C30.375 47.8095 32.1755 50.9043 34.8985 52.7207C28.0495 54.8058 22.8919 60.6323 21.773 67.8968C15.3667 62.5353 11.3906 54.4832 11.3906 45.5625C11.3906 43.9632 11.5291 42.3317 11.8034 40.7101C11.9196 40.0204 11.4549 39.3679 10.7665 39.2517C10.062 39.133 9.42421 39.6002 9.30679 40.2899C9.01016 42.0474 8.85938 43.8223 8.85938 45.5625C8.85938 61.106 19.9608 74.2245 35.2558 76.7557C35.325 76.7681 35.3955 76.773 35.4635 76.773C36.0715 76.773 36.608 76.333 36.7105 75.715C36.8255 75.0254 36.3583 74.3728 35.6686 74.2591C31.4038 73.5532 27.5022 71.9407 24.1234 69.6534C24.7339 61.0644 31.7928 54.4219 40.5 54.4219C49.2072 54.4219 56.2661 61.0644 56.8766 69.6534C53.4978 71.9407 49.5962 73.5532 45.3314 74.2591C44.6417 74.3728 44.1745 75.0254 44.2895 75.715C44.392 76.333 44.9285 76.773 45.5365 76.773C45.6045 76.773 45.675 76.7681 45.7442 76.7557C61.0392 74.2245 72.1406 61.106 72.1406 45.5625C72.1406 43.8223 71.9898 42.0474 71.6932 40.2899C71.5758 39.6002 70.9306 39.1306 70.2335 39.2517ZM32.9062 44.2969C32.9062 40.1094 36.3126 36.7031 40.5 36.7031C44.6874 36.7031 48.0938 40.1094 48.0938 44.2969C48.0938 48.4843 44.6874 51.8906 40.5 51.8906C36.3126 51.8906 32.9062 48.4843 32.9062 44.2969Z" fill="white"/>
<path fill-rule="evenodd" clip-rule="evenodd" d="M54.36 13.8677C54.2105 13.408 53.815 13.0742 53.3379 13.005L45.251 11.8309L41.6346 4.50162C41.2094 3.64139 39.7905 3.64139 39.3653 4.50162L35.7489 11.8309L27.662 13.005C27.1849 13.0742 26.7894 13.408 26.6399 13.8677C26.4916 14.325 26.6151 14.8293 26.96 15.1655L32.8123 20.8682L31.4305 28.9218C31.3489 29.3988 31.5442 29.8784 31.9335 30.1602C32.3253 30.4445 32.8407 30.4865 33.2671 30.2566L40.4999 26.4523L47.7328 30.2566C47.9182 30.3555 48.1209 30.4024 48.3223 30.4024C48.5844 30.4024 48.8452 30.3209 49.0664 30.1602C49.4557 29.8784 49.651 29.3988 49.5694 28.9218L48.1876 20.8682L54.0399 15.1655C54.3847 14.8293 54.5083 14.325 54.36 13.8677ZM45.9444 19.5186C45.6465 19.8102 45.5105 20.228 45.581 20.6408L46.6414 26.8231L41.0895 23.9037C40.9041 23.8073 40.7026 23.7579 40.4999 23.7579C40.2972 23.7579 40.0958 23.8073 39.9104 23.9037L34.3585 26.8231L35.4189 20.6408C35.4894 20.228 35.3534 19.8102 35.0555 19.5186L30.564 15.1432L36.771 14.241C37.1839 14.1792 37.5398 13.9221 37.724 13.5489L40.4999 7.92276L43.2759 13.5489C43.4601 13.9221 43.816 14.1792 44.2288 14.241L50.4358 15.1432L45.9444 19.5186Z" fill="white"/>
<path fill-rule="evenodd" clip-rule="evenodd" d="M10.2139 34.2314C10.1324 34.7085 10.3276 35.1881 10.717 35.4699C11.11 35.7542 11.6266 35.7937 12.0506 35.5663L17.7187 32.5851L23.3868 35.5663C23.5722 35.6652 23.7749 35.7121 23.9764 35.7121C24.2384 35.7121 24.4992 35.6306 24.7204 35.4699C25.1097 35.1881 25.305 34.7085 25.2235 34.2314L24.1408 27.9206L28.7274 23.4514C29.0722 23.1152 29.1958 22.6109 29.0475 22.1536C28.898 21.6938 28.5025 21.3601 28.0254 21.2909L21.6874 20.3714L18.8533 14.6266C18.4281 13.7664 17.0093 13.7664 16.5841 14.6266L13.75 20.3714L7.41201 21.2909C6.93493 21.3601 6.53942 21.6938 6.38987 22.1536C6.24155 22.6109 6.36515 23.1152 6.70998 23.4514L11.2966 27.9206L10.2139 34.2314ZM10.314 23.4291L14.7722 22.7815C15.185 22.7197 15.5409 22.4626 15.7251 22.0894L17.7187 18.0478L19.7123 22.0894C19.8965 22.4626 20.2524 22.7197 20.6652 22.7815L25.1233 23.4291L21.8975 26.571C21.5996 26.8626 21.4637 27.2804 21.5341 27.6932L22.2955 32.1328L18.3082 30.0366C18.1229 29.9402 17.9214 29.8907 17.7187 29.8907C17.516 29.8907 17.3145 29.9402 17.1291 30.0366L13.1419 32.1328L13.9033 27.6932C13.9737 27.2804 13.8378 26.8626 13.5399 26.571L10.314 23.4291Z" fill="white"/>
<path fill-rule="evenodd" clip-rule="evenodd" d="M73.5879 21.2909L67.2499 20.3714L64.4158 14.6266C63.9906 13.7664 62.5718 13.7664 62.1466 14.6266L59.3125 20.3714L52.9745 21.2909C52.4974 21.3601 52.1019 21.6938 51.9524 22.1536C51.8041 22.6109 51.9276 23.1152 52.2725 23.4514L56.8591 27.9206L55.7764 34.2314C55.6949 34.7085 55.8901 35.1881 56.2795 35.4699C56.6713 35.7542 57.1867 35.7937 57.6131 35.5663L63.2812 32.5851L68.9493 35.5663C69.1347 35.6652 69.3374 35.7121 69.5389 35.7121C69.8009 35.7121 70.0617 35.6306 70.2829 35.4699C70.6722 35.1881 70.8675 34.7085 70.786 34.2314L69.7033 27.9206L74.2899 23.4514C74.6347 23.1152 74.7583 22.6109 74.61 22.1536C74.4605 21.6938 74.065 21.3601 73.5879 21.2909ZM67.46 26.571C67.1621 26.8626 67.0262 27.2804 67.0966 27.6932L67.858 32.1328L63.8707 30.0366C63.6854 29.9402 63.4839 29.8907 63.2812 29.8907C63.0785 29.8907 62.877 29.9402 62.6916 30.0366L58.7044 32.1328L59.4658 27.6932C59.5362 27.2804 59.4003 26.8626 59.1024 26.571L55.8765 23.4291L60.3347 22.7815C60.7475 22.7197 61.1034 22.4626 61.2876 22.0894L63.2812 18.0478L65.2748 22.0894C65.459 22.4626 65.8149 22.7197 66.2277 22.7815L70.6858 23.4291L67.46 26.571Z" fill="white"/>
<path d="M40.5 77.2031C41.199 77.2031 41.7656 76.6365 41.7656 75.9375C41.7656 75.2385 41.199 74.6719 40.5 74.6719C39.801 74.6719 39.2344 75.2385 39.2344 75.9375C39.2344 76.6365 39.801 77.2031 40.5 77.2031Z" fill="white"/>
</svg>
