<svg width="54" height="54" viewBox="0 0 54 54" fill="none" xmlns="http://www.w3.org/2000/svg">
<path d="M53.4254 33.532C52.3983 32.0225 50.3298 31.623 48.8157 32.6405L41.9244 37.2525L41.9043 22.8971L44.2985 25.1399C44.8076 25.6167 45.4714 25.8792 46.1683 25.8792C46.1696 25.8792 46.1711 25.8792 46.1724 25.8792C46.9248 25.8781 47.6513 25.5627 48.1656 25.0138C48.6652 24.4804 48.9273 23.7845 48.9034 23.0541C48.8796 22.3236 48.5727 21.6462 48.0393 21.1466L43.5005 16.8947C43.1898 16.6036 42.702 16.6195 42.411 16.9302C42.12 17.2409 42.1359 17.7286 42.4465 18.0197L46.9854 22.2716C47.2183 22.4897 47.3522 22.7854 47.3626 23.1043C47.373 23.4231 47.2587 23.727 47.0404 23.9597C46.8126 24.2029 46.5036 24.3371 46.1701 24.3375C46.1695 24.3375 46.1689 24.3375 46.1683 24.3375C45.8642 24.3375 45.5745 24.223 45.3523 24.0148L45.3522 24.0147L27.3295 7.13134C27.0325 6.85322 26.5703 6.85364 26.2741 7.13282L8.29818 24.0667C8.06604 24.2854 7.7625 24.4 7.44356 24.3911C7.12463 24.3816 6.82857 24.2484 6.60983 24.016C6.39109 23.7839 6.27581 23.4804 6.28541 23.1615C6.2949 22.8426 6.42811 22.5466 6.66025 22.3278L25.9797 4.12833C26.4376 3.69686 27.1561 3.6958 27.6152 4.12611L38.918 14.7143C39.2286 15.0053 39.7164 14.9895 40.0075 14.6788C40.2985 14.3681 40.2825 13.8804 39.9719 13.5893L28.6693 3.00108C27.6174 2.01558 25.9718 2.01779 24.9227 3.00625L18.7381 8.83234L18.7364 7.79316C18.736 7.46557 18.608 7.15781 18.376 6.92663C18.1445 6.69576 17.8372 6.56867 17.5102 6.56867C17.5096 6.56867 17.5091 6.56867 17.5084 6.56867L13.0843 6.57489C12.7568 6.57531 12.4491 6.70335 12.2178 6.93528C11.9866 7.1672 11.8594 7.47528 11.86 7.80297L11.8722 15.3004L5.60324 21.2059C5.07125 21.707 4.76634 22.3853 4.74451 23.1158C4.72268 23.8462 4.98667 24.5415 5.48775 25.0733C5.98873 25.6052 6.667 25.9103 7.39758 25.9321C7.42553 25.9329 7.45348 25.9334 7.48143 25.9334C8.18121 25.9334 8.84387 25.6707 9.35529 25.1888L11.7441 22.9385L11.7535 29.7192C10.9807 29.6066 10.1987 29.5476 9.41319 29.5476H8.09431V29.0854C8.09431 27.5339 6.83195 26.2715 5.2804 26.2715H2.81391C1.26236 26.2714 0 27.5336 0 29.0853V41.1634C0 41.589 0.345094 41.9341 0.770766 41.9341C1.19644 41.9341 1.54153 41.589 1.54153 41.1634V29.0853C1.54153 28.3837 2.11233 27.8129 2.81391 27.8129H5.28029C5.98187 27.8129 6.55267 28.3837 6.55267 29.0853V30.3182V46.117V47.3378C6.55267 48.0394 5.98187 48.6102 5.28029 48.6102H2.81391C2.11233 48.6102 1.54153 48.0394 1.54153 47.3378V45.9891C1.54153 45.5634 1.19644 45.2183 0.770766 45.2183C0.345094 45.2183 0 45.5634 0 45.9891V47.3378C0 48.8894 1.26236 50.1517 2.81391 50.1517H5.28029C6.83184 50.1517 8.0942 48.8895 8.0942 47.3378V47.2331L19.3819 51.5075C19.4028 51.5154 19.424 51.5224 19.4455 51.5284C19.9362 51.667 20.4268 51.7365 20.9111 51.7365C21.1731 51.7365 21.4333 51.7162 21.6908 51.6754L38.279 49.2843C38.2829 49.2837 38.2867 49.2831 38.2906 49.2825C39.701 49.0573 41.0315 48.4611 42.1381 47.5585C42.1477 47.5507 42.1572 47.5425 42.1664 47.5342L52.8832 37.8956C54.1312 36.7877 54.3642 34.9117 53.4254 33.532ZM17.1953 8.11072L17.1989 10.2823L13.4113 13.8503L13.4019 8.11589L17.1953 8.11072ZM26.8039 8.75134L40.3607 21.451L40.3842 38.2831L38.2019 39.7437L35.891 39.614L35.83 39.0002C35.6149 36.8383 34.0189 35.0992 31.9086 34.6842L31.8947 24.6705C31.8936 23.902 31.268 23.2776 30.4997 23.2776C30.499 23.2776 30.4985 23.2776 30.4978 23.2776L23.1514 23.2879C22.7788 23.2884 22.4287 23.434 22.1656 23.6978C21.9025 23.9616 21.7579 24.3122 21.7584 24.6847L21.7706 33.4155C20.3155 33.0829 18.9261 32.5335 17.627 31.7736C17.4649 31.6788 17.3012 31.5872 17.1361 31.4982C17.0718 31.4635 17.0064 31.4309 16.9416 31.3971C16.8411 31.3447 16.7409 31.2919 16.6395 31.2416C16.5587 31.2015 16.477 31.1636 16.3955 31.1249C16.3092 31.0838 16.2229 31.0424 16.1359 31.0028C16.0473 30.9626 15.958 30.9244 15.8687 30.8858C15.7872 30.8505 15.7057 30.8151 15.6236 30.7812C15.5319 30.7434 15.4396 30.707 15.3472 30.6708C15.2652 30.6387 15.1832 30.6069 15.1008 30.5761C15.0094 30.5419 14.9175 30.5089 14.8254 30.4765C14.739 30.4461 14.6526 30.4163 14.5657 30.3873C14.4775 30.3579 14.3891 30.3291 14.3003 30.3011C14.2057 30.2713 14.1107 30.2428 14.0155 30.2147C13.9338 30.1906 13.8522 30.1666 13.77 30.1438C13.6627 30.1139 13.555 30.086 13.4471 30.0584C13.3965 30.0454 13.3463 30.0307 13.2955 30.0182L13.2836 21.4881L26.8039 8.75134ZM30.3669 34.4913L23.9201 33.7491L23.3127 33.6792L23.3003 24.8292L30.3534 24.8193L30.3669 34.4913ZM51.8561 36.7463L41.1499 46.3754C40.2577 47.0988 39.1875 47.5773 38.0532 47.7594L21.4722 50.1495C21.4687 50.15 21.4653 50.1506 21.4618 50.1511L21.4503 50.1529C20.948 50.2324 20.4249 50.1989 19.8953 50.0535L8.09431 45.5846V31.089H9.41319C10.5359 31.089 11.651 31.2186 12.7369 31.4704C12.7773 31.4798 12.8176 31.4894 12.8579 31.4991C12.9913 31.5312 13.1244 31.5643 13.2569 31.6002C13.2685 31.6034 13.28 31.6067 13.2916 31.6099C13.4244 31.6462 13.5566 31.6845 13.6885 31.7244C13.7121 31.7316 13.7358 31.7387 13.7593 31.746C13.8996 31.7893 14.0393 31.8346 14.1782 31.882C14.1925 31.887 14.2067 31.892 14.2211 31.897C14.5104 31.9969 14.7968 32.1058 15.0797 32.2237C15.0951 32.2302 15.1105 32.2366 15.1259 32.2431C15.2669 32.3024 15.4071 32.3637 15.5463 32.4274C15.55 32.4291 15.5538 32.4309 15.5575 32.4327C15.6921 32.4945 15.8257 32.5586 15.9585 32.6245C15.9741 32.6322 15.9898 32.6398 16.0054 32.6476C16.1351 32.7125 16.2638 32.7797 16.3917 32.8484C16.4159 32.8614 16.4399 32.8747 16.4641 32.8878C16.5932 32.9581 16.7215 33.0298 16.8486 33.1042C18.6828 34.1771 20.6796 34.8721 22.7835 35.1698C22.7901 35.1707 22.7966 35.1716 22.8033 35.1723L31.4392 36.1666C31.487 36.1734 31.5344 36.1813 31.5816 36.1902C32.8529 36.429 33.8563 37.3684 34.192 38.5917C34.2418 38.7729 34.2768 38.9604 34.296 39.1527L34.3303 39.4976L18.1451 38.0796C17.7213 38.0425 17.3471 38.3561 17.31 38.7801C17.2727 39.2042 17.5865 39.5781 18.0105 39.6152L35.1219 41.1144C35.1261 41.1147 35.1301 41.1146 35.1341 41.115C35.1381 41.1153 35.142 41.1159 35.1461 41.1162L38.3731 41.2973C38.3876 41.2982 38.4019 41.2985 38.4163 41.2985C38.4315 41.2985 38.4466 41.2961 38.4618 41.2951C38.479 41.294 38.4962 41.2934 38.5133 41.2913C38.5363 41.2883 38.5587 41.2834 38.5813 41.2784C38.5975 41.2749 38.6137 41.2722 38.6295 41.2676C38.6542 41.2605 38.6779 41.2509 38.7019 41.2413C38.7147 41.2361 38.728 41.2322 38.7407 41.2263C38.7766 41.2097 38.8117 41.1905 38.845 41.1681L41.5842 39.335L41.5845 39.3346L49.6742 33.9207C50.4881 33.3737 51.5991 33.5883 52.1508 34.3991C52.6552 35.1402 52.53 36.1479 51.8561 36.7463Z" fill="white"/>
</svg>
