<svg width="76" height="76" viewBox="0 0 76 76" fill="none" xmlns="http://www.w3.org/2000/svg">
<circle cx="38" cy="38" r="38" fill="#F45B1E"/>
<path d="M33.0384 37.3844H29.1345C28.6697 37.3844 28.2746 37.2218 27.9492 36.8964C27.6241 36.5711 27.4613 36.1761 27.4613 35.7112V35.1537C27.4613 33.9221 27.897 32.8707 28.7685 31.9992C29.64 31.128 30.6915 30.6922 31.9231 30.6922H33.0384C33.3404 30.6922 33.6017 30.5818 33.8226 30.3611C34.0433 30.1403 34.1537 29.879 34.1537 29.5769V27.346C34.1537 27.0439 34.0432 26.7824 33.8226 26.5616C33.6018 26.3411 33.3405 26.2305 33.0384 26.2305H31.9231C30.7146 26.2305 29.5617 26.466 28.4636 26.9363C27.3657 27.4069 26.416 28.0431 25.6142 28.8449C24.8125 29.6463 24.1765 30.5961 23.7059 31.6942C23.2353 32.7921 23 33.9454 23 35.1537V47.4226C23 48.3526 23.3252 49.1422 23.9758 49.7931C24.6265 50.4437 25.4168 50.7689 26.3462 50.7689H33.0388C33.9682 50.7689 34.7582 50.4437 35.4089 49.7931C36.0595 49.1422 36.3848 48.3526 36.3848 47.4226V40.7306C36.3848 39.8008 36.0595 39.0112 35.4085 38.3602C34.758 37.7098 33.9677 37.3844 33.0384 37.3844Z" fill="white"/>
<path d="M51.0241 38.3602C50.3736 37.7098 49.5835 37.3844 48.6539 37.3844H44.7501C44.2856 37.3844 43.8901 37.2218 43.5653 36.8964C43.2398 36.5711 43.0773 36.1761 43.0773 35.7112V35.1537C43.0773 33.9221 43.5131 32.8707 44.3841 31.9992C45.2553 31.128 46.3068 30.6922 47.5389 30.6922H48.654C48.9561 30.6922 49.2176 30.5818 49.4382 30.3611C49.6588 30.1403 49.7696 29.879 49.7696 29.5769V27.346C49.7696 27.0439 49.6588 26.7824 49.4382 26.5616C49.2176 26.3411 48.9561 26.2305 48.654 26.2305H47.5389C46.3298 26.2305 45.1771 26.466 44.0787 26.9363C42.981 27.4069 42.0316 28.0431 41.2298 28.8449C40.428 29.6463 39.7917 30.5961 39.3213 31.6942C38.8509 32.7921 38.6152 33.9454 38.6152 35.1537V47.4226C38.6152 48.3526 38.9407 49.1422 39.5912 49.7931C40.2417 50.4437 41.0318 50.7689 41.9613 50.7689H48.6535C49.5832 50.7689 50.3732 50.4437 51.0236 49.7931C51.6746 49.1422 51.9994 48.3526 51.9994 47.4226V40.7306C51.9994 39.8008 51.6746 39.0112 51.0241 38.3602Z" fill="white"/>
</svg>
