<svg width="83" height="83" viewBox="0 0 83 83" fill="none" xmlns="http://www.w3.org/2000/svg">
<path d="M78.7873 21.5119C78.0448 21.5119 77.4427 22.1138 77.4427 22.8564C77.4427 23.5989 78.0446 24.201 78.7873 24.201C79.6275 24.201 80.3111 24.8846 80.3111 25.7248V74.485C80.3111 75.3253 79.6275 76.0089 78.7873 76.0089H9.9493C5.94601 76.0089 2.68907 72.7519 2.68907 68.7486C2.68907 64.7453 5.94585 61.4881 9.9493 61.4881C10.6918 61.4881 11.2938 60.8862 11.2938 60.1435V24.2008H18.5541C19.2965 24.2008 19.8986 23.5989 19.8986 22.8563C19.8986 22.1138 19.2967 21.5117 18.5541 21.5117H11.2937V5.6469C11.2937 4.90444 10.6918 4.30237 9.94914 4.30237C4.4632 4.30237 0 8.76556 0 14.2517V68.7485C0 74.2346 4.4632 78.6978 9.9493 78.6978H78.7873C81.1101 78.6978 83 76.8079 83 74.485V25.7246C83 23.4016 81.1101 21.5119 78.7873 21.5119ZM2.68891 14.2517C2.68891 10.7078 5.24164 7.74865 8.6046 7.11626V58.8898C6.28466 59.2046 4.21598 60.3222 2.68891 61.9525V14.2517Z" fill="#F45B1E"/>
<path d="M61.5782 21.512H38.6316C37.8892 21.512 37.2871 22.1139 37.2871 22.8565C37.2871 23.599 37.889 24.201 38.6316 24.201H61.5782C62.3207 24.201 62.9228 23.5991 62.9228 22.8565C62.9228 22.1139 62.3208 21.512 61.5782 21.512Z" fill="#F45B1E"/>
<path d="M62.6451 62.1954L25.3578 13.4352C25.0077 12.9772 24.4041 12.7934 23.8588 12.9784C23.3125 13.163 22.9453 13.6753 22.9453 14.2517V63.012C22.9453 63.7544 23.5472 64.3565 24.2898 64.3565H61.5771C62.0887 64.3565 62.5558 64.0663 62.7826 63.6077C63.0092 63.1491 62.9557 62.6017 62.6451 62.1954ZM25.6342 61.6674V18.2231L58.8563 61.6674H25.6342Z" fill="#F45B1E"/>
<path d="M48.1358 55.0245L32.5295 34.6164C32.1794 34.1586 31.5762 33.9747 31.0305 34.1596C30.4845 34.3444 30.1172 34.8568 30.1172 35.4331V55.8412C30.1172 56.5837 30.7191 57.1857 31.4617 57.1857H47.068C47.5796 57.1857 48.0466 56.8956 48.2734 56.4369C48.5002 55.9783 48.4467 55.4309 48.1358 55.0245ZM32.8061 54.4968V39.4046L44.3471 54.4968H32.8061Z" fill="#F45B1E"/>
<path d="M74.2999 15.1862L71.4317 8.01561C71.2277 7.50529 70.7333 7.17053 70.1834 7.17053C69.6336 7.17053 69.1393 7.50529 68.9352 8.01561L66.067 15.1862C66.0033 15.3452 65.9707 15.5146 65.9707 15.6856V67.3142C65.9707 68.8465 67.2172 70.0928 68.7493 70.0928H71.6175C73.1497 70.0928 74.396 68.8463 74.396 67.3142V15.6856C74.3962 15.5146 74.3636 15.3452 74.2999 15.1862ZM70.1834 12.1351L71.6395 15.7753H68.7272L70.1834 12.1351ZM71.7073 67.3142C71.7073 67.3637 71.6671 67.4039 71.6176 67.4039H68.7494C68.7 67.4039 68.6598 67.3637 68.6598 67.3142V64.3564H71.7073V67.3142ZM71.7073 61.6673H68.6598V18.4644H71.7073V61.6673Z" fill="#F45B1E"/>
</svg>
