<svg width="64" height="65" viewBox="0 0 64 65" fill="none" xmlns="http://www.w3.org/2000/svg">
<path d="M58.3517 46.1274H57.9767C57.797 45.5849 57.5778 45.0562 57.32 44.544L57.5876 44.2752C57.9602 43.9018 58.1657 43.4053 58.1657 42.8755C58.1657 42.3467 57.9601 41.8502 57.5881 41.4777L56.5124 40.4011V29.0676C56.5124 27.6807 55.3835 26.5527 53.9963 26.5527H52.0783L53.5812 9.77722C53.6188 9.35353 53.6754 8.71376 53.0592 8.07358L49.4684 4.34611C49.1022 3.95906 48.8556 3.87449 48.3468 3.83005L46.946 3.70423C46.9451 3.70413 46.9444 3.70353 46.9435 3.70353C46.9426 3.70343 46.9419 3.70393 46.941 3.70383L16.9879 1.01301C16.2428 0.94064 15.5104 1.17235 14.9317 1.65619C14.3526 2.14002 13.9971 2.81934 13.9312 3.56761L11.9244 25.934H6.02737C6.02297 25.934 6.01857 25.934 6.01417 25.934C5.34037 25.934 4.73487 26.1676 4.30767 26.5928C3.90287 26.9965 3.68897 27.5311 3.68897 28.1401L3.66797 54.1582C3.66797 56.1297 4.62747 58.4607 9.06497 58.6027C9.17797 58.647 9.29907 58.6759 9.42767 58.6759H37.1381L38.7719 60.3112C39.5156 61.056 40.8207 61.0551 41.5654 60.3112L41.8325 60.0434C42.3418 60.3004 42.8701 60.5204 43.414 60.7003V61.0795C43.414 62.1694 44.3017 63.0569 45.393 63.0569H48.6572C49.747 63.0569 50.6333 62.1694 50.6333 61.0795V60.7003C51.1782 60.5204 51.707 60.3015 52.2148 60.0444L52.4848 60.3151C53.2592 61.0814 54.5117 61.0804 55.2783 60.3112L57.5874 58.0005C57.96 57.6272 58.1655 57.1307 58.1655 56.6018C58.1655 56.0729 57.9599 55.5765 57.5898 55.206L57.3198 54.9343C57.5776 54.4211 57.7973 53.8923 57.9765 53.3498H58.3515C59.4428 53.3498 60.331 52.4623 60.331 51.3725V48.1049C60.3311 47.015 59.443 46.1274 58.3517 46.1274ZM54.5123 29.0676V38.7001C53.8244 38.4698 53.0337 38.6199 52.481 39.1661L52.2149 39.433C51.7071 39.1759 51.1783 38.957 50.6334 38.7771V38.3988C50.6334 37.3081 49.7472 36.4205 48.6573 36.4205H45.3931C44.3018 36.4205 43.4141 37.308 43.4141 38.3988V38.7771C42.8702 38.957 42.3418 39.1768 41.8326 39.434L41.5655 39.1661C40.7955 38.3968 39.543 38.3959 38.772 39.1661L36.4624 41.4778C35.6919 42.249 35.6919 43.5031 36.4624 44.2743L36.7296 44.5421C36.4728 45.0524 36.2535 45.5821 36.0738 46.1275H35.6954C34.606 46.1275 33.7198 47.015 33.7198 48.1049V51.3725C33.7198 52.4623 34.606 53.3498 35.6954 53.3498H36.0738C36.2535 53.8952 36.4727 54.425 36.7301 54.9353L36.4625 55.2041C36.0591 55.6077 35.8726 56.144 35.8919 56.6742H10.4278V35.7744C10.4278 35.702 10.4888 35.6405 10.5611 35.6405H32.2979C32.6592 35.6405 32.9927 35.445 33.17 35.1302L36.2979 29.5568L36.481 29.2167C36.6006 28.9894 36.8013 28.6087 36.938 28.5545H53.9961C54.276 28.5545 54.5123 28.7896 54.5123 29.0676ZM51.6021 9.44692C51.6001 9.49336 51.5938 9.5432 51.5889 9.59935L51.5874 9.61637L47.4473 9.24163L47.7596 5.78731L48.1075 5.81864L51.6021 9.44692ZM15.9234 3.74497C15.9424 3.52948 16.0455 3.3335 16.2134 3.19267C16.3814 3.05245 16.5938 2.98398 16.8072 3.0065L45.7673 5.60835L45.4429 9.2001C45.399 9.69614 45.5518 10.1805 45.8731 10.5631C46.1934 10.9453 46.6426 11.1794 47.1353 11.2234L51.4087 11.6105L50.07 26.5527H36.938C35.6235 26.5527 35.0747 27.5936 34.7119 28.2827L31.7124 33.6386H13.2414L15.9234 3.74497ZM5.66807 54.1582L5.68907 28.1401C5.68907 28.1035 5.69297 28.0375 5.71887 28.0116C5.74717 27.9827 5.84587 27.9514 6.02307 27.9358H11.7449L11.2332 33.6388H10.5611C9.38477 33.6388 8.42777 34.5966 8.42777 35.7745V56.5602C5.67717 56.2762 5.66807 54.8731 5.66807 54.1582ZM57.2286 51.348C56.7721 51.348 56.3736 51.6569 56.2603 52.0997C56.0352 52.9745 55.6866 53.8161 55.2232 54.602C54.9918 54.9939 55.0547 55.4934 55.3755 55.816L56.1738 56.5843L53.896 58.8959L53.0996 58.0983C52.7759 57.7748 52.2739 57.7113 51.8804 57.9459C51.1099 58.4053 50.2696 58.7542 49.3838 58.982C48.9419 59.0964 48.6333 59.4952 48.6333 59.9517L48.6573 61.055L45.4141 61.0794V59.9514C45.4141 59.4949 45.1055 59.0961 44.6641 58.9827C43.7813 58.754 42.9405 58.4051 42.1656 57.9447C42.0069 57.8508 41.8306 57.805 41.6558 57.805C41.397 57.805 41.1412 57.9057 40.9483 58.0982L40.1861 58.8958L38.3126 57.0461C38.2707 56.9953 38.2259 56.9518 38.175 56.9102L37.8786 56.6175L38.6755 55.816C38.9973 55.4925 39.0593 54.991 38.8259 54.5991C38.3659 53.825 38.0178 52.9843 37.7912 52.0997C37.6774 51.6579 37.279 51.348 36.8224 51.348L35.7199 51.3725L35.6955 48.1293H36.8225C37.279 48.1293 37.6775 47.8204 37.7913 47.3777C38.0179 46.4941 38.3665 45.6525 38.8269 44.8744C39.0598 44.4814 38.9968 43.98 38.6736 43.6565L37.8767 42.8931L40.1516 40.5814L40.9485 41.379C41.2713 41.7016 41.7727 41.7661 42.1658 41.5325C42.9407 41.0721 43.7815 40.7231 44.6643 40.4944C45.1057 40.381 45.4143 39.9823 45.4143 39.5258L45.3933 38.4223L48.6335 38.3988V39.5259C48.6335 39.9824 48.9421 40.3811 49.384 40.4955C50.2697 40.7232 51.1101 41.0723 51.8806 41.5317C52.2742 41.7663 52.7761 41.7017 53.0998 41.3792L53.8644 40.5816L54.7796 41.485C54.801 41.5085 54.8226 41.5294 54.8461 41.5507L56.1725 42.8601L55.3761 43.6606C55.0548 43.9841 54.9918 44.4836 55.2233 44.8756C55.6862 45.6605 56.0348 46.5031 56.2604 47.3779C56.3742 47.8207 56.7726 48.1295 57.2287 48.1295L58.3312 48.1051L58.3517 51.3482L57.2286 51.348Z" fill="white"/>
<path d="M47.0254 43.2334C43.4414 43.2334 40.5254 46.152 40.5254 49.7393C40.5254 53.3265 43.4414 56.2451 47.0254 56.2451C50.6094 56.2451 53.5254 53.3265 53.5254 49.7393C53.5254 46.152 50.6094 43.2334 47.0254 43.2334ZM47.0254 54.2433C44.544 54.2433 42.5254 52.2229 42.5254 49.7393C42.5254 47.2556 44.544 45.2352 47.0254 45.2352C49.5068 45.2352 51.5254 47.2556 51.5254 49.7393C51.5254 52.2229 49.5068 54.2433 47.0254 54.2433Z" fill="white"/>
<path d="M21.7526 14.8033L43.1842 16.7288C43.2145 16.7312 43.2447 16.7327 43.2745 16.7327C43.7867 16.7327 44.2227 16.3413 44.2696 15.8213C44.3189 15.271 43.9132 14.7843 43.3629 14.7349L21.9313 12.8094C21.3795 12.7624 20.8952 13.1666 20.8459 13.7169C20.7966 14.2672 21.2023 14.7539 21.7526 14.8033Z" fill="white"/>
<path d="M21.2399 20.4983L42.6745 22.4234C42.7048 22.4258 42.735 22.4273 42.7648 22.4273C43.277 22.4273 43.713 22.0358 43.7599 21.5159C43.8092 20.9651 43.4035 20.4788 42.8532 20.4295L21.4186 18.5044C20.8639 18.4629 20.383 18.8617 20.3332 19.412C20.2839 19.9627 20.6896 20.449 21.2399 20.4983Z" fill="white"/>
</svg>
