<svg width="59" height="59" viewBox="0 0 59 59" fill="none" xmlns="http://www.w3.org/2000/svg">
<g clip-path="url(#clip0_722_29)">
<path d="M43.5273 26.1587L44.8311 24.855L46.1348 26.1587L44.8311 27.4624L43.5273 26.1587Z" fill="#F45B1E"/>
<path d="M46.1328 23.543L47.4365 22.2392L48.7403 23.543L47.4365 24.8467L46.1328 23.543Z" fill="#F45B1E"/>
<path d="M40.917 28.7563L42.2207 27.4526L43.5244 28.7563L42.2207 30.0601L40.917 28.7563Z" fill="#F45B1E"/>
<path d="M48.7402 20.9365L50.044 19.6328L51.3477 20.9365L50.044 22.2403L48.7402 20.9365Z" fill="#F45B1E"/>
<path d="M28.9355 16.772L30.2393 15.4682L31.543 16.772L30.2393 18.0757L28.9355 16.772Z" fill="#F45B1E"/>
<path d="M31.543 14.165L32.8467 12.8613L34.1504 14.165L32.8467 15.4688L31.543 14.165Z" fill="#F45B1E"/>
<path d="M36.7588 8.95215L38.0625 7.64842L39.3662 8.95215L38.0625 10.2559L36.7588 8.95215Z" fill="#F45B1E"/>
<path d="M34.1514 11.5586L35.4551 10.2549L36.7588 11.5586L35.4551 12.8623L34.1514 11.5586Z" fill="#F45B1E"/>
<path d="M30.4219 45.1719H32.2656V47.0156H30.4219V45.1719Z" fill="#F45B1E"/>
<path d="M26.7344 45.1719H28.5781V47.0156H26.7344V45.1719Z" fill="#F45B1E"/>
<path d="M23.0469 45.1719H24.8906V47.0156H23.0469V45.1719Z" fill="#F45B1E"/>
<path d="M23.0469 41.4844H32.2656V43.3281H23.0469V41.4844Z" fill="#F45B1E"/>
<path d="M52.5469 52.5469H6.45312V6.45312H26.7344V0.921875H0.921875V58.0781H58.0781V32.2656H52.5469V52.5469ZM54.3906 34.1094H56.2344V56.2344H2.76562V2.76562H24.8906V4.60938H4.60938V54.3906H54.3906V34.1094Z" fill="#F45B1E"/>
<path d="M41.5959 0.921875C40.0094 0.921875 38.7188 2.2125 38.7188 3.79905C38.7188 4.56789 39.0174 5.29064 39.5613 5.83362L42.4855 8.75781L28.1965 23.0469H8.29688V50.7031H35.9531V30.8035L50.2422 16.5145L53.1664 19.4387C53.702 19.9743 54.4432 20.2812 55.201 20.2812C56.7875 20.2812 58.0781 18.9906 58.0781 17.4041V0.921875H41.5959ZM23.0469 26.7344V30.4219H21.2031V26.7344H19.3594V30.4219H17.5156V24.8906H26.7344V30.4219H24.8906V26.7344H23.0469ZM34.1094 48.8594H10.1406V24.8906H15.6719V32.2656H28.5781V24.8906H34.1094V48.8594ZM56.2344 17.4041C56.2344 17.9738 55.7707 18.4375 55.201 18.4375C54.929 18.4375 54.6626 18.3269 54.4699 18.1351L50.2422 13.9074L35.9531 28.1965V23.0469H30.8035L45.0926 8.75781L40.8649 4.53009C40.6694 4.33466 40.5625 4.07561 40.5625 3.79905C40.5625 3.22933 41.0262 2.76562 41.5959 2.76562H56.2344V17.4041Z" fill="#F45B1E"/>
</g>
<defs>
<clipPath id="clip0_722_29">
<rect width="59" height="59" fill="white"/>
</clipPath>
</defs>
</svg>
