<svg width="83" height="77" viewBox="0 0 83 77" fill="none" xmlns="http://www.w3.org/2000/svg">
<path d="M82.1168 48.0609C80.538 45.7408 77.3588 45.1267 75.0315 46.6908L64.4393 53.7795L64.4085 31.7148L68.0884 35.162C68.8709 35.8949 69.8912 36.2982 70.9624 36.2982C70.9643 36.2982 70.9666 36.2982 70.9687 36.2982C72.1252 36.2966 73.2418 35.8119 74.0323 34.9681C74.8002 34.1483 75.203 33.0788 75.1664 31.956C75.1298 30.8332 74.658 29.792 73.8382 29.0241L66.8618 22.4888C66.3843 22.0414 65.6345 22.0658 65.1873 22.5434C64.74 23.021 64.7645 23.7706 65.2419 24.218L72.2183 30.7533C72.5762 31.0885 72.7821 31.5431 72.7981 32.0331C72.814 32.5232 72.6383 32.9902 72.3029 33.348C71.9527 33.7218 71.4778 33.928 70.9652 33.9287C70.9642 33.9287 70.9634 33.9287 70.9624 33.9287C70.495 33.9287 70.0497 33.7526 69.7082 33.4326L69.708 33.4325L42.0064 7.48216C41.5499 7.05468 40.8396 7.05533 40.3842 7.48443L12.7546 33.5124C12.3978 33.8486 11.9312 34.0247 11.441 34.011C10.9508 33.9965 10.4958 33.7917 10.1596 33.4346C9.82334 33.0778 9.64616 32.6112 9.66091 32.1212C9.6755 31.631 9.88024 31.1759 10.237 30.8397L39.9318 2.86642C40.6356 2.20323 41.7399 2.20161 42.4456 2.86302L59.8184 19.1375C60.2958 19.5848 61.0455 19.5604 61.4929 19.0829C61.9402 18.6053 61.9157 17.8557 61.4383 17.4083L44.0657 1.1338C42.449 -0.380953 39.9196 -0.377549 38.3071 1.14174L28.8012 10.0967L28.7986 8.4994C28.7979 7.99589 28.6011 7.52285 28.2446 7.16751C27.8888 6.81265 27.4164 6.61731 26.9139 6.61731C26.9129 6.61731 26.9121 6.61731 26.9111 6.61731L20.1111 6.62687C19.6076 6.62752 19.1347 6.82432 18.7792 7.1808C18.4239 7.53728 18.2284 8.0108 18.2292 8.51448L18.248 20.0383L8.61238 29.1153C7.7947 29.8855 7.32605 30.928 7.29249 32.0508C7.25893 33.1736 7.66469 34.2422 8.43488 35.0596C9.2049 35.8772 10.2474 36.3461 11.3704 36.3796C11.4133 36.3809 11.4563 36.3816 11.4992 36.3816C12.5748 36.3816 13.5934 35.9779 14.3794 35.2371L18.051 31.7783L18.0656 42.2005C16.8777 42.0275 15.6758 41.9367 14.4684 41.9367H12.4412V41.2264C12.4412 38.8416 10.501 36.9013 8.11617 36.9013H4.32508C1.94029 36.9011 0 38.8413 0 41.2262V59.7906C0 60.4449 0.530422 60.9753 1.1847 60.9753C1.83897 60.9753 2.36939 60.4449 2.36939 59.7906V41.2262C2.36939 40.1479 3.24673 39.2705 4.32508 39.2705H8.11601C9.19436 39.2705 10.0717 40.1479 10.0717 41.2262V43.1213V67.4046V69.281C10.0717 70.3594 9.19436 71.2367 8.11601 71.2367H4.32508C3.24673 71.2367 2.36939 70.3594 2.36939 69.281V67.208C2.36939 66.5537 1.83897 66.0233 1.1847 66.0233C0.530422 66.0233 0 66.5537 0 67.208V69.281C0 71.6658 1.94029 73.6061 4.32508 73.6061H8.11601C10.5008 73.6061 12.4411 71.666 12.4411 69.281V69.12L29.7907 75.69C29.8228 75.7022 29.8554 75.7129 29.8884 75.7221C30.6427 75.9351 31.3967 76.042 32.1411 76.042C32.5438 76.042 32.9437 76.0107 33.3396 75.9481L58.8363 72.2728C58.8423 72.2719 58.8481 72.271 58.8541 72.27C61.0219 71.9239 63.0669 71.0075 64.7679 69.6201C64.7826 69.6082 64.7972 69.5957 64.8113 69.5829L81.2834 54.768C83.2017 53.0651 83.5598 50.1816 82.1168 48.0609ZM26.4298 8.98751L26.4353 12.3253L20.6137 17.8095L20.5992 8.99545L26.4298 8.98751ZM41.1986 9.97216L62.0359 29.4921L62.072 55.3636L58.7178 57.6085L55.1658 57.4093L55.072 56.4658C54.7414 53.1429 52.2884 50.4698 49.0447 49.8319L49.0233 34.4405C49.0217 33.2593 48.0601 32.2995 46.8791 32.2995C46.8781 32.2995 46.8773 32.2995 46.8762 32.2995L35.5846 32.3154C35.0119 32.3162 34.4737 32.5399 34.0694 32.9455C33.6649 33.3509 33.4427 33.8898 33.4435 34.4624L33.4623 47.8819C31.2257 47.3706 29.09 46.5262 27.0933 45.3582C26.8442 45.2125 26.5926 45.0718 26.3389 44.9349C26.24 44.8816 26.1395 44.8315 26.0398 44.7795C25.8855 44.6989 25.7315 44.6179 25.5755 44.5405C25.4513 44.4789 25.3257 44.4206 25.2006 44.3611C25.0678 44.298 24.9352 44.2343 24.8014 44.1735C24.6653 44.1118 24.528 44.0529 24.3908 43.9936C24.2655 43.9394 24.1402 43.885 24.0141 43.8329C23.873 43.7747 23.7312 43.7188 23.5892 43.6632C23.4632 43.6139 23.3371 43.565 23.2105 43.5176C23.0699 43.4651 22.9288 43.4144 22.7872 43.3646C22.6545 43.3177 22.5215 43.272 22.388 43.2274C22.2524 43.1822 22.1166 43.138 21.9801 43.095C21.8347 43.0491 21.6886 43.0054 21.5424 42.9621C21.4168 42.9251 21.2913 42.8882 21.165 42.8531C21.0001 42.8073 20.8345 42.7643 20.6686 42.7218C20.591 42.7019 20.5138 42.6794 20.4357 42.6601L20.4174 29.549L41.1986 9.97216ZM46.675 49.5354L36.7661 48.3947L35.8325 48.2872L35.8134 34.6844L46.6543 34.6692L46.675 49.5354ZM79.7048 53.0015L63.2489 67.8018C61.8776 68.9137 60.2327 69.6492 58.4892 69.929L33.0035 73.6027C32.9982 73.6035 32.993 73.6043 32.9876 73.6051L32.97 73.6079C32.1978 73.7301 31.3938 73.6786 30.5798 73.4552L12.4412 66.5863V44.306H14.4684C16.1941 44.306 17.9081 44.5052 19.5771 44.8921C19.6392 44.9066 19.7012 44.9213 19.7631 44.9362C19.9681 44.9857 20.1727 45.0366 20.3763 45.0917C20.3942 45.0966 20.4118 45.1018 20.4297 45.1066C20.6338 45.1624 20.8371 45.2212 21.0397 45.2827C21.076 45.2937 21.1125 45.3046 21.1486 45.3157C21.3642 45.3824 21.5789 45.4519 21.7924 45.5249C21.8144 45.5325 21.8363 45.5403 21.8583 45.5479C22.303 45.7014 22.7433 45.8689 23.1781 46.0501C23.2017 46.06 23.2254 46.0699 23.2491 46.0799C23.4658 46.171 23.6813 46.2652 23.8952 46.3631C23.9009 46.3657 23.9068 46.3685 23.9124 46.3712C24.1193 46.4662 24.3247 46.5648 24.5288 46.6661C24.5528 46.6779 24.5769 46.6896 24.6009 46.7016C24.8003 46.8013 24.9981 46.9046 25.1947 47.0103C25.2318 47.0302 25.2688 47.0506 25.3059 47.0707C25.5043 47.1789 25.7016 47.2891 25.897 47.4034C28.7162 49.0525 31.7853 50.1207 35.019 50.5783C35.0292 50.5798 35.0393 50.5811 35.0495 50.5822L48.3232 52.1104C48.3966 52.1209 48.4696 52.1331 48.542 52.1467C50.4961 52.5137 52.0384 53.9576 52.5544 55.8379C52.6309 56.1164 52.6847 56.4047 52.7142 56.7002L52.7669 57.2303L27.8896 55.0507C27.2383 54.9938 26.6631 55.4758 26.606 56.1275C26.5488 56.7793 27.0311 57.354 27.6828 57.411L53.9837 59.7154C53.99 59.7159 53.9962 59.7158 54.0024 59.7162C54.0085 59.7167 54.0145 59.7177 54.0208 59.7182L58.9809 59.9965C59.0031 59.9978 59.0252 59.9983 59.0472 59.9983C59.0707 59.9983 59.0939 59.9946 59.1172 59.9931C59.1437 59.9915 59.1701 59.9905 59.1963 59.9873C59.2317 59.9827 59.2662 59.9751 59.3009 59.9675C59.3257 59.962 59.3507 59.958 59.375 59.9508C59.4129 59.94 59.4494 59.9252 59.4862 59.9104C59.506 59.9025 59.5264 59.8965 59.5459 59.8874C59.6011 59.8618 59.655 59.8323 59.7062 59.7979L63.9165 56.9803L63.917 56.9798L76.3511 48.6584C77.6021 47.8176 79.3097 48.1475 80.1577 49.3938C80.9329 50.5327 80.7405 52.0817 79.7048 53.0015Z" fill="#F45B1E"/>
</svg>
