<svg width="88" height="88" viewBox="0 0 88 88" fill="none" xmlns="http://www.w3.org/2000/svg">
<path d="M77.3442 29.8898V7.03125C77.3442 6.25359 76.7156 5.625 75.938 5.625H61.8755C61.0978 5.625 60.4692 6.25359 60.4692 7.03125V14.7009L44.5364 0.361406C44.2776 0.129375 43.943 0 43.5956 0C43.0542 0 43.0542 0 21.5597 19.3458L0.465927 38.3302C0.179052 38.5875 0.0117084 38.9517 0.000458393 39.3384C-0.00938536 39.7238 0.139677 40.0964 0.41249 40.3692L4.63124 44.588C5.15718 45.1139 6.00655 45.1406 6.55921 44.6442L9.84421 41.7248V85.7812C9.84421 86.5589 10.4728 87.1875 11.2505 87.1875H75.938C76.7156 87.1875 77.3442 86.5589 77.3442 85.7812V41.7248L80.6292 44.6442C80.895 44.8819 81.2297 45 81.563 45C81.9244 45 82.2844 44.8608 82.5572 44.588L86.7759 40.3692C87.0487 40.0964 87.1978 39.7238 87.188 39.3384C87.1767 38.9531 87.0094 38.5889 86.7225 38.3302L77.3442 29.8898ZM63.2817 8.4375H74.5317V27.3586L63.2817 17.2336V8.4375ZM12.6567 72.4064L23.79 63.7467L29.0353 68.992L16.2145 84.375H12.6567V72.4064ZM37.432 41.0681C35.5069 39.143 33.1036 37.7283 30.4837 36.9787L25.7798 35.6344C25.5056 35.5556 25.313 35.3025 25.313 35.0156C25.313 34.7709 25.4494 34.5516 25.6687 34.4419C26.573 33.9891 27.5855 33.75 28.5966 33.75H28.6036C32.7942 33.7542 36.9075 34.5023 40.838 35.9761C44.0147 37.1672 46.8441 38.9883 49.2459 41.3902L53.438 45.5822V48.6366C53.438 50.2945 54.0834 51.8527 55.2562 53.0255C56.1745 53.9438 57.3319 54.5245 58.5848 54.7397L53.3353 59.9892C53.1201 58.7363 52.538 57.5789 51.6211 56.6606C50.4469 55.4892 48.8887 54.8438 47.2308 54.8438C44.5097 54.8438 41.9531 55.9027 40.0294 57.8264L39.3755 58.4803L34.3326 53.4375L37.4925 50.2777C38.7075 49.0627 39.3755 47.4483 39.3741 45.6694C39.3741 43.9552 38.7061 42.3422 37.432 41.0681ZM61.8755 55.4259L65.512 59.0625L57.6567 66.9178L54.0201 63.2812L61.8755 55.4259ZM35.9808 59.0625L29.5317 65.5116L27.3014 63.2812L33.7505 56.8322L35.9808 59.0625ZM74.5317 84.375H19.8778L32.0194 69.8077C32.4848 69.2494 32.4483 68.4267 31.9322 67.912L31.5201 67.5L37.9692 61.0509L38.3812 61.463C38.9311 62.0128 39.8198 62.0128 40.3697 61.463L42.0178 59.8148C43.41 58.4227 45.262 57.6562 47.2308 57.6562C48.1378 57.6562 48.99 58.0092 49.6312 58.6505C50.2725 59.2917 50.6255 60.1453 50.6255 61.0509V63.2812C50.6255 63.6553 50.7731 64.0125 51.0375 64.2755L56.6625 69.9005C56.9367 70.1747 57.2967 70.3125 57.6567 70.3125C58.0167 70.3125 58.3767 70.1747 58.6509 69.9005L68.4947 60.0567C69.0445 59.5069 69.0445 58.6181 68.4947 58.0683L62.8697 52.4433C62.6067 52.1789 62.2495 52.0312 61.8755 52.0312H59.6451C58.7381 52.0312 57.8859 51.6783 57.2447 51.037C56.6034 50.3958 56.2505 49.5422 56.2505 48.6366V45C56.2505 44.6259 56.1028 44.2687 55.8384 44.0058L51.2344 39.4017C48.547 36.7144 45.3816 34.6767 41.8195 33.3394C37.5797 31.7503 33.1359 30.9417 28.6064 30.9375C28.6036 30.9375 28.5994 30.9375 28.5966 30.9375C27.1523 30.9375 25.7039 31.2792 24.413 31.9247C23.2331 32.5125 22.5005 33.698 22.5005 35.0156C22.5005 36.5498 23.5298 37.9153 25.0064 38.3386L29.7103 39.683C31.8717 40.3003 33.8545 41.4675 35.5041 43.1156C36.1861 43.7977 36.5616 44.7047 36.5616 45.7327C36.563 46.6973 36.1861 47.6044 35.5041 48.2864L31.35 52.4405C30.8001 52.9903 30.8001 53.8791 31.35 54.4289L31.762 54.8438L25.313 61.2928L24.9009 60.8808C24.3989 60.3787 23.6016 60.3281 23.0433 60.7655L12.6567 68.843V39.2245L43.5942 11.7253L74.5317 39.2245V84.375ZM81.5067 41.6616L44.528 8.79328C44.2622 8.55562 43.9275 8.4375 43.5942 8.4375C43.2609 8.4375 42.9262 8.55562 42.6605 8.79328L5.68171 41.6616L3.44858 39.4284C9.43921 34.0383 38.0353 8.30109 43.5956 3.29906L83.7398 39.4284L81.5067 41.6616Z" fill="#F45B1E"/>
</svg>
