<svg width="90" height="90" viewBox="0 0 90 90" fill="none" xmlns="http://www.w3.org/2000/svg">
<g clip-path="url(#clip0_899_93)">
<path d="M3.34159 36.2871C3.92945 36.9963 4.78467 37.4306 5.70411 37.487H5.91714C6.47238 37.4861 7.01876 37.3475 7.50712 37.0835V60.7051C7.51037 63.6281 9.8791 65.9968 12.802 66H43.448L34.7167 76.0963C31.6798 79.6067 32.0635 84.9144 35.574 87.9513C39.0844 90.9882 44.3921 90.6046 47.429 87.094L65.4287 66.2729C72.0502 68.0803 79.1342 66.2634 84.0683 61.492C89.0024 56.7206 91.0561 49.7017 89.4717 43.0232C89.2243 41.957 88.3976 41.1209 87.3342 40.8617C86.2859 40.5994 85.1793 40.9525 84.4768 41.7736L76.1385 51.417L67.3082 51.255L65.8742 42.5386L74.214 32.8982C74.9223 32.0843 75.1131 30.9415 74.7075 29.9418C74.2957 28.9287 73.3493 28.233 72.2595 28.1419C70.3182 27.9808 68.3636 28.1143 66.4621 28.5378L60.0062 22.661V9.39106C60.0037 7.51984 58.4874 6.00353 56.6163 6.00117H49.8965C48.0253 6.00368 46.509 7.51999 46.5066 9.39106V10.4035L36.0308 0.890654C34.7496 -0.296884 32.7699 -0.296884 31.4888 0.890654L1.13363 28.4497C-0.24893 29.7292 -0.381059 31.8697 0.833643 33.3095L3.34159 36.2871ZM27.0066 63V46.5004C27.0066 45.6721 27.6781 45.0005 28.5065 45.0005H39.0063C39.8346 45.0005 40.5062 45.6721 40.5062 46.5004V63.0002H27.0066V63ZM43.5063 63V46.5004C43.5063 44.0152 41.4916 42.0005 39.0064 42.0005H28.5066C26.0214 42.0005 24.0067 44.0152 24.0067 46.5004V63.0002H12.8019C11.5351 62.9986 10.5086 61.9719 10.507 60.7053V34.5083L33.7565 13.3974L56.5232 34.0836C56.2967 34.319 56.0552 34.5335 55.8407 34.7826C50.9324 40.4399 49.7186 48.4171 52.7223 55.2782L46.0429 63H43.5063ZM70.5569 31.0582C70.9709 31.0582 71.3865 31.0732 71.8004 31.1047L63.1561 41.1004C62.8648 41.4375 62.7384 41.8864 62.8111 42.3259L64.5615 52.9666C64.6787 53.6812 65.2895 54.21 66.0135 54.2236L76.7953 54.4215C77.2412 54.4301 77.6677 54.24 77.9592 53.9026L86.608 43.9008C87.9088 49.6813 86.0001 55.7146 81.6115 59.6953C77.2229 63.676 71.0324 64.9888 65.406 63.132C64.8292 62.9436 64.1957 63.1212 63.8009 63.582L45.1564 85.1307C43.8933 86.5915 41.9468 87.2675 40.0502 86.904C38.1535 86.5406 36.5949 85.1929 35.9612 83.3686C35.3276 81.5443 35.7154 79.5206 36.9786 78.0598L55.6262 56.5052C56.0217 56.0472 56.1033 55.3966 55.8332 54.8553C53.2871 49.7552 53.563 43.7008 56.5623 38.8535C59.5616 34.0062 64.8566 31.0573 70.5568 31.0598V31.0582H70.5569ZM49.5063 9.39106C49.5118 9.17803 49.6832 9.00663 49.8964 9.00102H56.6162C56.8292 9.00648 57.0006 9.17788 57.0062 9.39106V19.9373L49.5063 13.1274V9.39106ZM3.15705 30.6606L33.5106 3.10171C33.6495 2.96766 33.8696 2.96766 34.0085 3.10171L63.1259 29.5507C61.5708 30.2009 60.1062 31.0495 58.7685 32.0752L34.769 10.2671C34.1969 9.74729 33.3235 9.74729 32.7515 10.2671L7.95695 32.7757H7.94795L6.15704 34.4032C6.08603 34.4664 5.99406 34.501 5.89899 34.5006C5.79564 34.4928 5.70057 34.4408 5.63797 34.3581L3.1225 31.3793C2.95376 31.1645 2.96838 30.8583 3.15705 30.6606Z" fill="#F45B1E"/>
<path fill-rule="evenodd" clip-rule="evenodd" d="M43.2796 76.8117L40.5271 80.0231C40.0143 80.6545 40.0981 81.5795 40.7161 82.1083C41.3341 82.6373 42.2611 82.5772 42.8057 81.973L45.5581 78.7616C46.071 78.1301 45.9871 77.2051 45.3691 76.6763C44.7511 76.1475 43.8242 76.2074 43.2796 76.8117Z" fill="#F45B1E"/>
</g>
<defs>
<clipPath id="clip0_899_93">
<rect width="90" height="90" fill="white"/>
</clipPath>
</defs>
</svg>
