<svg width="90" height="90" viewBox="0 0 90 90" fill="none" xmlns="http://www.w3.org/2000/svg">
<g clip-path="url(#clip0_899_80)">
<path d="M8.52511 66.1916C8.91587 66.8629 8.68841 67.7237 8.01711 68.1145C7.79457 68.244 7.55128 68.3055 7.31099 68.3055C6.82671 68.3055 6.35544 68.0552 6.09423 67.6065C1.26359 59.308 -0.757191 49.8619 0.250563 40.2892C1.50881 28.3361 7.3465 17.5886 16.6884 10.0263C26.0301 2.46405 37.7568 -1.00763 49.7107 0.250608C57.727 1.09436 65.2624 4.02428 71.6835 8.76545L70.7086 5.34862C70.4956 4.60172 70.9283 3.82354 71.675 3.61049C72.4218 3.39709 73.2001 3.83004 73.4133 4.57694L75.6198 12.3103C75.7384 12.726 75.6591 13.1732 75.405 13.5228C75.1508 13.8726 74.7498 14.086 74.3177 14.1015L66.281 14.3903C66.2638 14.391 66.2467 14.3912 66.2297 14.3912C65.4763 14.3912 64.8524 13.7944 64.8252 13.0354C64.7974 12.2593 65.4041 11.6075 66.1801 11.5795L70.5399 11.4229C64.4086 6.74678 57.1511 3.86186 49.416 3.04764C26.2852 0.613245 5.48252 17.451 3.04759 40.5834C2.10295 49.558 3.99699 58.4131 8.52511 66.1916ZM83.9048 22.3927C83.5143 21.7216 82.6535 21.4941 81.9822 21.8851C81.311 22.2758 81.0837 23.1368 81.4745 23.8079C86.003 31.5854 87.897 40.4405 86.9522 49.4161C85.7725 60.622 80.2998 70.6978 71.542 77.7874C62.7842 84.8772 51.7887 88.1321 40.5837 86.9521C32.8527 86.1384 25.5905 83.2517 19.4605 78.5768L23.8197 78.4202C24.5957 78.3924 25.2024 77.7406 25.1746 76.9644C25.1466 76.1883 24.5012 75.5783 23.7188 75.6094L15.682 75.8981C15.25 75.9135 14.8492 76.1269 14.5948 76.4767C14.3408 76.8264 14.2616 77.2736 14.38 77.6893L16.5864 85.4226C16.7627 86.0406 17.326 86.4434 17.938 86.4434C18.0658 86.4434 18.1957 86.4258 18.3246 86.389C19.0713 86.176 19.5041 85.3978 19.291 84.6509L18.3163 81.2348C24.7367 85.9749 32.2772 88.9057 40.289 89.7491C41.894 89.918 43.4933 90.0017 45.085 90.0017C55.3469 90.0013 65.2239 86.5202 73.3112 79.9734C82.6531 72.4111 88.4906 61.6635 89.749 49.7105C90.7572 40.1364 88.7362 30.6901 83.9048 22.3927ZM24.1865 65.2206V45.0057L23.8889 45.222C23.8884 45.2223 23.8879 45.2227 23.8875 45.223C21.3951 47.0288 17.8979 46.4709 16.0916 43.9783C14.2855 41.4859 14.8436 37.9887 17.3361 36.1824L41.7228 18.4645C43.7248 17.0138 46.3898 17.0391 48.3601 18.5252L72.665 36.1836C75.1562 37.9889 75.7145 41.4861 73.9082 43.9785C73.0333 45.1859 71.7406 45.9803 70.2681 46.2155C69.9703 46.2631 69.672 46.2865 69.3762 46.2865C68.2094 46.2865 67.0756 45.921 66.1124 45.2232L65.8134 45.0059V65.2208C65.8134 69.2889 62.5038 72.5985 58.4357 72.5985H31.5641C27.4961 72.5983 24.1865 69.2887 24.1865 65.2206ZM49.3819 51.16C49.3819 50.3866 48.7526 49.7573 47.9792 49.7573H42.0209C41.2475 49.7573 40.6182 50.3866 40.6182 51.16V69.7858H49.3821V51.16H49.3819ZM63.0008 42.9625L44.9999 29.884L26.999 42.9625V65.2208C26.999 67.7381 29.0469 69.786 31.5642 69.786H37.8055V51.1602C37.8055 48.8358 39.6966 46.945 42.0208 46.945H47.979C50.3034 46.945 52.1943 48.8358 52.1943 51.1602V69.786H58.4356C60.9527 69.786 63.0008 67.7381 63.0008 65.2208V42.9625ZM44.1734 27.008C44.4196 26.8289 44.7099 26.7394 44.9999 26.7394C45.2899 26.7394 45.5801 26.8289 45.8264 27.008L67.7641 42.9466C68.3617 43.3798 69.0948 43.5545 69.8248 43.438C70.5553 43.3212 71.1969 42.9271 71.6308 42.3281C72.5271 41.0913 72.2499 39.3561 71.0132 38.4598L46.696 20.7926C46.6883 20.787 46.6804 20.7812 46.6728 20.7754C45.71 20.0455 44.3539 20.0313 43.3744 20.7411L18.988 38.4589C17.7499 39.3561 17.4729 41.0914 18.369 42.3281C19.2653 43.5647 21.0008 43.8417 22.2373 42.9458L44.1734 27.008Z" fill="#F45B1E"/>
</g>
<defs>
<clipPath id="clip0_899_80">
<rect width="90" height="90" fill="white"/>
</clipPath>
</defs>
</svg>
