<svg width="57" height="57" viewBox="0 0 57 57" fill="none" xmlns="http://www.w3.org/2000/svg">
<path d="M28.5004 0C16.8898 0 7.44434 9.4455 7.44434 21.0561C7.44434 24.8784 9.15855 28.9892 9.23039 29.1626C9.78404 30.4768 10.8765 32.518 11.6642 33.7145L26.1012 55.5892C26.6921 56.486 27.5665 57 28.5004 57C29.4343 57 30.3087 56.486 30.8996 55.5905L45.3378 33.7145C46.1268 32.518 47.218 30.4768 47.7716 29.1626C47.8435 28.9905 49.5565 24.8796 49.5565 21.0561C49.5565 9.4455 40.111 0 28.5004 0ZM45.4877 28.2015C44.9935 29.3794 43.9766 31.2782 43.2694 32.3508L28.8311 54.2268C28.5462 54.6591 28.4558 54.6591 28.1709 54.2268L13.7327 32.3508C13.0254 31.2782 12.0085 29.3782 11.5143 28.2003C11.4933 28.1495 9.92152 24.3656 9.92152 21.0561C9.92152 10.8117 18.256 2.47718 28.5004 2.47718C38.7448 2.47718 47.0793 10.8117 47.0793 21.0561C47.0793 24.3705 45.5038 28.1643 45.4877 28.2015Z" fill="#F45B1E"/>
<path d="M28.5008 9.91016C22.3537 9.91016 17.3535 14.9116 17.3535 21.0575C17.3535 27.2034 22.3537 32.2048 28.5008 32.2048C34.648 32.2048 39.6482 27.2034 39.6482 21.0575C39.6482 14.9116 34.648 9.91016 28.5008 9.91016ZM28.5008 29.7276C23.7211 29.7276 19.8307 25.8384 19.8307 21.0575C19.8307 16.2765 23.7211 12.3873 28.5008 12.3873C33.2806 12.3873 37.171 16.2765 37.171 21.0575C37.171 25.8384 33.2806 29.7276 28.5008 29.7276Z" fill="#F45B1E"/>
</svg>
