<svg width="21" height="21" viewBox="0 0 21 21" fill="none" xmlns="http://www.w3.org/2000/svg">
<path d="M20.1543 6.44152C19.6127 5.17196 18.8394 4.03298 17.8564 3.0563C15.8706 1.08371 13.2605 0 10.499 0C10.4761 0 10.4527 0.000160217 10.4298 0.000160217C7.62009 0.0185852 4.98693 1.13225 3.0153 3.13593C1.04415 5.13928 -0.026421 7.79103 0.000495469 10.603C0.0274119 13.3973 1.13051 16.0135 3.10678 17.9693C5.08178 19.9239 7.70693 21.0001 10.5 21H10.505C12.5511 20.9992 14.5343 20.4089 16.2399 19.2935L15.3421 17.9204C13.9038 18.8611 12.2308 19.3585 10.5042 19.3593C10.5027 19.3593 10.5016 19.3593 10.5002 19.3593C5.66144 19.3593 1.68758 15.4249 1.64112 10.5871C1.61821 8.21432 2.52167 5.97689 4.18472 4.2866C5.84825 2.596 8.06998 1.65632 10.4406 1.64078C10.4599 1.64062 10.4792 1.64062 10.4987 1.64062C12.8238 1.64062 15.0242 2.55546 16.6999 4.22027C18.415 5.92402 19.3594 8.1826 19.3594 10.5801V10.8896C19.3594 12.3032 18.2093 13.4531 16.7959 13.4531C15.3824 13.4531 14.2324 12.3032 14.2324 10.8896V5.70116H12.5918V6.5298C12.0049 6.13615 11.2993 5.90624 10.541 5.90624C8.50561 5.90624 6.84961 7.56224 6.84961 9.59764V11.4023C6.84961 13.4377 8.50561 15.0937 10.541 15.0937C11.7764 15.0937 12.8718 14.4836 13.5424 13.5491C14.314 14.4913 15.4858 15.0937 16.7959 15.0937C19.1141 15.0937 21 13.2078 21 10.8896V10.5801C21 9.14887 20.7154 7.75642 20.1543 6.44152ZM12.5918 11.4023C12.5918 12.5331 11.6718 13.4531 10.541 13.4531C9.4102 13.4531 8.49023 12.5331 8.49023 11.4023V9.59764C8.49023 8.46683 9.4102 7.54686 10.541 7.54686C11.6718 7.54686 12.5918 8.46683 12.5918 9.59764V11.4023Z" fill="white" fill-opacity="0.7"/>
</svg>
