<svg width="54" height="54" viewBox="0 0 54 54" fill="none" xmlns="http://www.w3.org/2000/svg">
<path d="M51.2592 13.9956C50.7761 13.9956 50.3844 14.3872 50.3844 14.8704C50.3844 15.3534 50.776 15.7451 51.2592 15.7451C51.8058 15.7451 52.2506 16.1899 52.2506 16.7366V48.4601C52.2506 49.0067 51.8058 49.4515 51.2592 49.4515H6.47304C3.86849 49.4515 1.74952 47.3325 1.74952 44.728C1.74952 42.1234 3.86838 40.0042 6.47304 40.0042C6.95609 40.0042 7.3478 39.6126 7.3478 39.1295V15.745H12.0713C12.5544 15.745 12.9461 15.3534 12.9461 14.8703C12.9461 14.3872 12.5545 13.9955 12.0713 13.9955H7.34769V3.67383C7.34769 3.19078 6.95609 2.79907 6.47293 2.79907C2.90377 2.79907 0 5.70284 0 9.27211V44.7279C0 48.2971 2.90377 51.2009 6.47304 51.2009H51.2592C52.7704 51.2009 54 49.9713 54 48.4601V16.7364C54 15.2251 52.7704 13.9956 51.2592 13.9956ZM1.74941 9.27211C1.74941 6.96646 3.41023 5.04123 5.59818 4.6298V38.3138C4.08881 38.5186 2.74293 39.2457 1.74941 40.3064V9.27211Z" fill="white"/>
<path d="M40.0626 13.9956H25.1335C24.6505 13.9956 24.2588 14.3872 24.2588 14.8704C24.2588 15.3534 24.6504 15.7451 25.1335 15.7451H40.0626C40.5457 15.7451 40.9374 15.3535 40.9374 14.8704C40.9374 14.3872 40.5458 13.9956 40.0626 13.9956Z" fill="white"/>
<path d="M40.7575 40.4645L16.4983 8.74096C16.2705 8.44301 15.8778 8.32341 15.523 8.44375C15.1676 8.56388 14.9287 8.89716 14.9287 9.27221V40.9957C14.9287 41.4788 15.3203 41.8705 15.8035 41.8705H40.0627C40.3955 41.8705 40.6994 41.6817 40.8469 41.3833C40.9944 41.085 40.9596 40.7288 40.7575 40.4645ZM16.6781 40.121V11.856L38.2925 40.121H16.6781Z" fill="white"/>
<path d="M31.3167 35.799L21.1632 22.5214C20.9354 22.2236 20.543 22.104 20.188 22.2242C19.8327 22.3444 19.5938 22.6778 19.5938 23.0528V36.3303C19.5938 36.8134 19.9854 37.2051 20.4685 37.2051H30.622C30.9548 37.2051 31.2587 37.0163 31.4063 36.7179C31.5538 36.4196 31.519 36.0634 31.3167 35.799ZM21.3432 35.4557V25.6366L28.8518 35.4557H21.3432Z" fill="white"/>
<path d="M48.3389 9.88029L46.4728 5.21509C46.3402 4.88308 46.0185 4.66528 45.6607 4.66528C45.303 4.66528 44.9814 4.88308 44.8486 5.21509L42.9826 9.88029C42.9411 9.98376 42.9199 10.094 42.9199 10.2052V43.7949C42.9199 44.7918 43.7309 45.6027 44.7277 45.6027H46.5937C47.5906 45.6027 48.4014 44.7917 48.4014 43.7949V10.2052C48.4016 10.094 48.3804 9.98376 48.3389 9.88029ZM45.6607 7.89526L46.6081 10.2636H44.7133L45.6607 7.89526ZM46.6521 43.7949C46.6521 43.8271 46.626 43.8533 46.5938 43.8533H44.7278C44.6956 43.8533 44.6694 43.8271 44.6694 43.7949V41.8705H46.6521V43.7949ZM46.6521 40.121H44.6694V12.0131H46.6521V40.121Z" fill="white"/>
</svg>
