<svg width="54" height="54" viewBox="0 0 54 54" fill="none" xmlns="http://www.w3.org/2000/svg">
<g clip-path="url(#clip0_903_1013)">
<path d="M51.1167 3.68848H17.3294C16.8924 3.68848 16.5383 4.04264 16.5383 4.47949C16.5383 4.91634 16.8924 5.27051 17.3294 5.27051H51.1168C51.8343 5.27051 52.4181 5.85428 52.4181 6.57178V11.5892H1.58203V6.57178C1.58203 5.85428 2.1658 5.27051 2.8833 5.27051H14.1001C14.5371 5.27051 14.8911 4.91634 14.8911 4.47949C14.8911 4.04264 14.5371 3.68848 14.1001 3.68848H2.8833C1.29347 3.68848 0 4.98195 0 6.57178V48.5642C0 49.5276 0.783844 50.3115 1.7473 50.3115H18.6C19.037 50.3115 19.3911 49.9573 19.3911 49.5204C19.3911 49.0836 19.037 48.7294 18.6 48.7294H14.8328V30.7082L16.3713 27.0483C16.4365 26.8932 16.4505 26.7214 16.4114 26.5577L14.8231 19.9204C14.7379 19.5645 14.4198 19.3136 14.0538 19.3136H10.8774C10.5114 19.3136 10.1933 19.5646 10.1081 19.9204L8.51976 26.5576C8.48064 26.7213 8.49466 26.8931 8.55984 27.0482L10.0863 30.6794V48.7293H1.7473C1.65618 48.7293 1.58203 48.6552 1.58203 48.5641V13.1713H52.418V16.6312C52.418 17.068 52.772 17.4222 53.209 17.4222C53.6459 17.4222 54 17.068 54 16.6312V6.57178C54 4.98195 52.7065 3.68848 51.1167 3.68848ZM11.5015 20.8956H13.4298L14.8125 26.6741L13.3742 30.0955C13.296 30.2182 13.2507 30.3638 13.2507 30.52V48.7294H11.6683V30.52C11.6684 30.4148 11.6474 30.3106 11.6066 30.2135L10.1188 26.6741L11.5015 20.8956Z" fill="white"/>
<path d="M53.2095 19.0693C52.7725 19.0693 52.4184 19.4235 52.4184 19.8604V48.5641C52.4184 48.6552 52.3443 48.7294 52.2532 48.7294H37.8606V44.503C41.9254 42.6334 44.5227 38.6048 44.5227 34.0946C44.5227 32.0871 43.9958 30.1117 42.999 28.3816C42.0324 26.7042 40.6457 25.2877 38.9889 24.2851C38.5157 23.9986 37.9228 23.989 37.4417 24.2602C36.9562 24.5339 36.6664 25.0302 36.6664 25.5879V31.7702H29.4634V25.5879C29.4634 25.0301 29.1736 24.5338 28.6881 24.2602C28.207 23.9891 27.6142 23.9986 27.1409 24.2851C25.4839 25.2877 24.0973 26.7042 23.1307 28.3816C22.1339 30.1115 21.607 32.087 21.607 34.0946C21.607 38.6048 24.2043 42.6334 28.2692 44.503V48.7295H21.8301C21.3931 48.7295 21.0391 49.0836 21.0391 49.5205C21.0391 49.9573 21.3931 50.3115 21.8301 50.3115H52.2533C53.2168 50.3115 54.0006 49.5277 54.0006 48.5642V19.8604C54.0005 19.4235 53.6464 19.0693 53.2095 19.0693ZM36.2786 43.9834V48.7295H33.8558V40.908C33.8558 40.4712 33.5018 40.117 33.0648 40.117C32.6279 40.117 32.2738 40.4712 32.2738 40.908V48.7295H29.851V43.9834C29.851 43.6612 29.6558 43.3712 29.3572 43.2503C25.6102 41.7313 23.1889 38.1373 23.1889 34.0945C23.1889 30.6381 24.9411 27.5019 27.8813 25.6865V32.5612C27.8813 32.9981 28.2354 33.3522 28.6724 33.3522H37.4574C37.8943 33.3522 38.2484 32.9981 38.2484 32.5612V25.6865C41.1886 27.5019 42.9407 30.6381 42.9407 34.0945C42.9407 38.1373 40.5196 41.7313 36.7725 43.2503C36.4739 43.3712 36.2786 43.6612 36.2786 43.9834Z" fill="white"/>
<path d="M36.0378 7.78491H7.82129C7.38444 7.78491 7.03027 8.13897 7.03027 8.57593C7.03027 9.01278 7.38433 9.36694 7.82129 9.36694H36.0378C36.4747 9.36694 36.8288 9.01278 36.8288 8.57593C36.8288 8.13908 36.4747 7.78491 36.0378 7.78491Z" fill="white"/>
<path d="M39.8633 7.57007C39.4263 7.57007 39.0723 7.92423 39.0723 8.36108V8.49851C39.0723 8.93536 39.4263 9.28953 39.8633 9.28953C40.3002 9.28953 40.6543 8.93536 40.6543 8.49851V8.36108C40.6544 7.92423 40.3002 7.57007 39.8633 7.57007Z" fill="white"/>
<path d="M43.0205 7.57007C42.5836 7.57007 42.2295 7.92423 42.2295 8.36108V8.49851C42.2295 8.93536 42.5836 9.28953 43.0205 9.28953C43.4575 9.28953 43.8115 8.93536 43.8115 8.49851V8.36108C43.8115 7.92423 43.4575 7.57007 43.0205 7.57007Z" fill="white"/>
<path d="M46.1787 7.57007C45.7418 7.57007 45.3877 7.92423 45.3877 8.36108V8.49851C45.3877 8.93536 45.7418 9.28953 46.1787 9.28953C46.6157 9.28953 46.9697 8.93536 46.9697 8.49851V8.36108C46.9697 7.92423 46.6157 7.57007 46.1787 7.57007Z" fill="white"/>
<path d="M21.8032 21.5671H21.2541V21.0181C21.2541 20.5812 20.9001 20.2271 20.4631 20.2271C20.0262 20.2271 19.6721 20.5812 19.6721 21.0181V21.5671H19.123C18.6861 21.5671 18.332 21.9213 18.332 22.3582C18.332 22.795 18.6861 23.1492 19.123 23.1492H19.6721V23.6982C19.6721 24.1351 20.0262 24.4893 20.4631 24.4893C20.9001 24.4893 21.2541 24.1351 21.2541 23.6982V23.1492H21.8032C22.2402 23.1492 22.5942 22.795 22.5942 22.3582C22.5942 21.9213 22.2402 21.5671 21.8032 21.5671Z" fill="white"/>
<path d="M44.8588 21.6372H44.3098V21.0881C44.3098 20.6513 43.9558 20.2971 43.5188 20.2971C43.0818 20.2971 42.7278 20.6513 42.7278 21.0881V21.6372H42.1787C41.7418 21.6372 41.3877 21.9914 41.3877 22.4282C41.3877 22.8651 41.7418 23.2192 42.1787 23.2192H42.7278V23.7683C42.7278 24.2052 43.0818 24.5593 43.5188 24.5593C43.9558 24.5593 44.3098 24.2052 44.3098 23.7683V23.2192H44.8588C45.2957 23.2192 45.6498 22.8651 45.6498 22.4282C45.6498 21.9914 45.2957 21.6372 44.8588 21.6372Z" fill="white"/>
</g>
<defs>
<clipPath id="clip0_903_1013">
<rect width="54" height="54" fill="white"/>
</clipPath>
</defs>
</svg>
