<svg width="83" height="83" viewBox="0 0 83 83" fill="none" xmlns="http://www.w3.org/2000/svg">
<path d="M78.7873 21.512C78.0448 21.512 77.4427 22.1139 77.4427 22.8566C77.4427 23.599 78.0446 24.2011 78.7873 24.2011C79.6275 24.2011 80.3111 24.8847 80.3111 25.7249V74.4852C80.3111 75.3254 79.6275 76.009 78.7873 76.009H9.9493C5.94601 76.009 2.68907 72.7521 2.68907 68.7488C2.68907 64.7455 5.94585 61.4882 9.9493 61.4882C10.6918 61.4882 11.2938 60.8863 11.2938 60.1437V24.2009H18.5541C19.2965 24.2009 19.8986 23.599 19.8986 22.8564C19.8986 22.1139 19.2967 21.5119 18.5541 21.5119H11.2937V5.64703C11.2937 4.90456 10.6918 4.30249 9.94914 4.30249C4.4632 4.30249 0 8.76569 0 14.2518V68.7486C0 74.2347 4.4632 78.6979 9.9493 78.6979H78.7873C81.1101 78.6979 83 76.808 83 74.4852V25.7248C83 23.4017 81.1101 21.512 78.7873 21.512ZM2.68891 14.2518C2.68891 10.7079 5.24164 7.74877 8.6046 7.11638V58.8899C6.28466 59.2047 4.21598 60.3223 2.68891 61.9526V14.2518Z" fill="#F45B1E"/>
<path d="M61.5782 21.512H38.6316C37.8892 21.512 37.2871 22.1139 37.2871 22.8565C37.2871 23.599 37.889 24.201 38.6316 24.201H61.5782C62.3207 24.201 62.9228 23.5991 62.9228 22.8565C62.9228 22.1139 62.3208 21.512 61.5782 21.512Z" fill="#F45B1E"/>
<path d="M62.6461 62.1954L25.3588 13.4352C25.0086 12.9772 24.4051 12.7934 23.8598 12.9784C23.3135 13.163 22.9463 13.6753 22.9463 14.2517V63.012C22.9463 63.7544 23.5482 64.3565 24.2908 64.3565H61.5781C62.0897 64.3565 62.5568 64.0663 62.7835 63.6077C63.0102 63.1491 62.9567 62.6017 62.6461 62.1954ZM25.6352 61.6674V18.2231L58.8573 61.6674H25.6352Z" fill="#F45B1E"/>
<path d="M48.1353 55.0244L32.529 34.6163C32.1789 34.1585 31.5757 33.9746 31.03 34.1594C30.484 34.3442 30.1167 34.8567 30.1167 35.433V55.8411C30.1167 56.5835 30.7186 57.1856 31.4612 57.1856H47.0675C47.5791 57.1856 48.0462 56.8954 48.273 56.4368C48.4997 55.9782 48.4462 55.4308 48.1353 55.0244ZM32.8056 54.4967V39.4045L44.3467 54.4967H32.8056Z" fill="#F45B1E"/>
<path d="M74.2989 15.1863L71.4307 8.01573C71.2268 7.50541 70.7323 7.17065 70.1825 7.17065C69.6326 7.17065 69.1383 7.50541 68.9342 8.01573L66.066 15.1863C66.0023 15.3453 65.9697 15.5147 65.9697 15.6858V67.3144C65.9697 68.8466 67.2162 70.0929 68.7483 70.0929H71.6165C73.1487 70.0929 74.395 68.8464 74.395 67.3144V15.6858C74.3952 15.5147 74.3626 15.3453 74.2989 15.1863ZM70.1825 12.1353L71.6385 15.7754H68.7262L70.1825 12.1353ZM71.7063 67.3144C71.7063 67.3638 71.6661 67.404 71.6166 67.404H68.7484C68.699 67.404 68.6588 67.3638 68.6588 67.3144V64.3565H71.7063V67.3144ZM71.7063 61.6674H68.6588V18.4645H71.7063V61.6674Z" fill="#F45B1E"/>
</svg>
