<svg width="83" height="83" viewBox="0 0 83 83" fill="none" xmlns="http://www.w3.org/2000/svg">
<g clip-path="url(#clip0_372_229)">
<path d="M65.6242 39.512L68.0947 41.9825C70.1764 44.0643 73.5637 44.0644 75.6456 41.9825L81.4387 36.1893C83.5205 34.1075 83.5205 30.7203 81.4387 28.6385L78.9682 26.168C78.4627 25.6626 77.6432 25.6626 77.1378 26.168L75.9266 27.3792L73.1665 26.4592C72.4578 26.223 71.7885 25.8674 71.1939 25.4145C71.9645 24.5264 72.4282 23.3994 72.4941 22.2089C72.5781 20.6944 72.011 19.2106 70.9384 18.1381L66.9406 14.1402C66.4351 13.6346 65.6156 13.6348 65.1102 14.1402C64.6046 14.6457 64.6046 15.4652 65.1102 15.9706L69.108 19.9685C69.6686 20.5291 69.9532 21.2738 69.9094 22.0655C69.8655 22.8572 69.5005 23.5658 68.8813 24.0611C68.0057 24.7617 61.9027 29.644 61.3138 30.1152C60.8624 30.476 60.2141 30.4402 59.8054 30.0315L51.1266 21.3528C50.7179 20.9441 50.682 20.2956 51.0431 19.8444L55.4045 14.3926C56.5907 12.9098 56.4727 10.7792 55.13 9.43666L54.0081 8.31476C52.9318 7.23833 51.3303 6.9259 49.9284 7.51824L46.3917 9.01275C45.3895 9.43633 44.245 9.21273 43.4756 8.44339L43.1671 8.13485L49.3173 5.49902C51.5805 4.52922 54.1676 5.02739 55.9085 6.76831L60.9964 11.8562C61.5018 12.3618 62.3213 12.3618 62.8268 11.8562C63.3324 11.3507 63.3324 10.5312 62.8268 10.0258L57.7386 4.9384C55.2448 2.44463 51.5391 1.73079 48.2971 3.12013L40.3897 6.50912C39.9949 6.67819 39.7098 7.0322 39.6286 7.45401C39.5474 7.87565 39.6805 8.31023 39.9844 8.61392L41.6449 10.2744C43.1629 11.7924 45.4215 12.2335 47.399 11.3978L50.9357 9.90328C51.3627 9.72304 51.8499 9.81817 52.1773 10.1456L53.2992 11.2675C53.7078 11.6761 53.7438 12.3246 53.3827 12.7758L49.0215 18.2274C48.021 19.4779 47.9483 21.1894 48.7557 22.5002C41.5161 28.2919 41.4933 28.3097 41.1584 28.5791L36.4418 23.8626C35.5217 22.9424 35.0648 21.6468 35.1881 20.3079C35.6361 15.4427 33.9138 10.6729 30.4623 7.22167C25.5638 2.32312 18.0746 1.03717 11.8268 4.02182C11.4477 4.20304 11.18 4.55688 11.1089 4.97092C11.0379 5.38496 11.1724 5.80789 11.4694 6.10495L22.4976 17.1333L21.3825 21.2952L17.2206 22.4104L6.19243 11.3823C5.89537 11.085 5.47211 10.9507 5.0584 11.0218C4.6442 11.0928 4.29035 11.3604 4.1093 11.7397C1.12465 17.9876 2.4106 25.4765 7.30914 30.375C10.7606 33.8265 15.531 35.5486 20.3954 35.1008C21.7351 34.977 23.0297 35.4344 23.95 36.3545L27.8699 40.2742C26.9415 41.1672 26.0228 42.0679 25.1148 42.9759L13.3492 54.7416C12.8435 55.247 12.8435 56.0665 13.3492 56.5719C13.8546 57.0774 14.6741 57.0774 15.1796 56.5719L26.9452 44.8063C32.062 39.6895 37.5218 34.8029 43.1726 30.2822L50.5181 24.4057L56.1766 30.0642L50.3002 37.4098C45.8699 42.9476 40.994 48.4192 35.7759 53.6371L11.8613 77.5519C11.2733 78.1399 10.3169 78.1397 9.72881 77.5519L3.03044 70.8534C2.74568 70.5686 2.5889 70.19 2.5889 69.7873C2.5889 69.3846 2.74568 69.0058 3.03044 68.7211L11.1714 60.5801C11.677 60.0747 11.677 59.2552 11.1714 58.7497C10.6659 58.2443 9.84643 58.2443 9.34098 58.7497L1.19988 66.8907C0.426171 67.6644 0 68.6931 0 69.7873C0 70.8815 0.426171 71.9102 1.19988 72.6839L7.89824 79.3825C9.4955 80.9797 12.0943 80.9797 13.6917 79.3825L37.6065 55.4677C38.5145 54.5597 39.4152 53.641 40.3081 52.7126L65.1058 77.5103C68.5495 80.954 74.1536 80.9545 77.5976 77.5103C81.0416 74.0663 81.0416 68.4625 77.5976 65.0185L63.1696 50.5905C62.6642 50.0851 61.8447 50.0851 61.3392 50.5905C60.8336 51.096 60.8336 51.9155 61.3392 52.4209L75.7672 66.8489C78.2018 69.2836 78.2018 73.2451 75.7672 75.6798C73.3325 78.1142 69.3711 78.1143 66.9364 75.6798L42.091 50.8345C42.6466 50.2415 43.1989 49.6448 43.7478 49.0447L63.6341 68.9311C63.932 69.229 64.3549 69.3621 64.7672 69.2917C65.1811 69.221 65.5349 68.9541 65.7164 68.5755C66.3322 67.2913 67.3786 66.2449 68.6628 65.6291C69.0414 65.4476 69.3083 65.0938 69.379 64.6799C69.4497 64.266 69.3153 63.8437 69.0184 63.5468L48.7892 43.3174C49.3166 42.6947 49.84 42.069 50.3591 41.4408L57.2252 48.3069C57.7305 48.8124 58.5502 48.8125 59.0556 48.3069C59.5612 47.8015 59.5612 46.982 59.0556 46.4765L52.0031 39.4238C52.3035 39.0502 52.0361 39.3837 58.0187 31.9055C59.3567 33.2008 61.457 33.3157 62.9306 32.1367L64.2784 31.0585C65.0183 31.7997 65.5841 32.7164 65.9153 33.71L66.8353 36.4701L65.6241 37.6813C65.1188 38.1869 65.1188 39.0065 65.6242 39.512ZM25.7804 34.524C24.3146 33.0579 22.2653 32.3286 20.1579 32.5229C16.0615 32.9012 12.0452 31.4502 9.13954 28.5445C5.4637 24.8686 4.20395 19.4601 5.7525 14.6035L15.9185 24.7694C16.2455 25.0964 16.7223 25.2241 17.1687 25.1045L22.7743 23.6026C23.221 23.4828 23.5698 23.134 23.6896 22.6873L25.1915 17.0817C25.3112 16.635 25.1834 16.1585 24.8564 15.8315L14.6906 5.66519C19.5474 4.1168 24.9558 5.37622 28.6318 9.05223C31.5373 11.9579 32.9875 15.974 32.6102 20.0707C32.4162 22.1781 33.1456 24.2274 34.6113 25.6931L39.1414 30.2233C38.5132 30.7423 37.8875 31.2657 37.2647 31.7932L34.0159 28.5443C32.5316 27.06 30.1161 27.0598 28.6316 28.5443C27.1471 30.0288 27.1471 32.4442 28.6316 33.9286L31.5373 36.8343C30.9372 37.3831 30.3405 37.9354 29.7475 38.4911L25.7804 34.524ZM33.4616 35.0975L30.4622 32.0982C29.987 31.623 29.987 30.8499 30.4622 30.3749C30.9374 29.8997 31.7104 29.8997 32.1855 30.3749L35.2945 33.4841C34.6805 34.018 34.0694 34.5558 33.4616 35.0975ZM66.0297 64.2191C65.3796 64.7116 64.7991 65.2923 64.3064 65.9424L45.4848 47.1206C46.0265 46.5128 46.5643 45.9016 47.0984 45.2876L66.0297 64.2191ZM79.6081 30.4689C80.6805 31.5413 80.6805 33.2864 79.6081 34.3588L73.815 40.1519C72.7424 41.2243 70.9976 41.2243 69.9251 40.1519L68.3699 38.5967L69.2146 37.752C69.2252 37.7418 69.2355 37.7314 69.2457 37.7209L77.1758 29.7908C77.1865 29.7806 77.1969 29.7701 77.2072 29.7594L78.0528 28.9139L79.6081 30.4689ZM68.3714 32.8916C67.9441 31.6095 67.2336 30.4202 66.3088 29.4345L69.1951 27.1255C70.1173 27.9177 71.1952 28.5309 72.348 28.9151L73.8802 29.4258L68.8823 34.4237L68.3714 32.8916Z" fill="#F45B1E"/>
<path d="M67.5444 71.2643C67.5444 73.3636 69.2524 75.0715 71.3517 75.0715C73.451 75.0715 75.1589 73.3636 75.1589 71.2643C75.1589 69.165 73.451 67.457 71.3517 67.457C69.2524 67.457 67.5444 69.165 67.5444 71.2643ZM71.3517 70.0458C72.0236 70.0458 72.5702 70.5923 72.5702 71.2643C72.5702 71.9362 72.0236 72.4827 71.3517 72.4827C70.6797 72.4827 70.1332 71.9362 70.1332 71.2643C70.1332 70.5923 70.6797 70.0458 71.3517 70.0458Z" fill="#F45B1E"/>
</g>
<defs>
<clipPath id="clip0_372_229">
<rect width="83" height="83" fill="white"/>
</clipPath>
</defs>
</svg>
