<svg width="83" height="83" viewBox="0 0 83 83" fill="none" xmlns="http://www.w3.org/2000/svg">
<path d="M78.5683 5.66919H26.6359C25.9642 5.66919 25.42 6.21355 25.42 6.88501C25.42 7.55647 25.9642 8.10083 26.6359 8.10083H78.5684C79.6712 8.10083 80.5685 8.99811 80.5685 10.1009V17.813H2.43164V10.1009C2.43164 8.99811 3.32892 8.10083 4.43175 8.10083H21.6724C22.344 8.10083 22.8882 7.55647 22.8882 6.88501C22.8882 6.21355 22.344 5.66919 21.6724 5.66919H4.43175C1.98811 5.66919 0 7.6573 0 10.1009V74.6448C0 76.1256 1.2048 77.3304 2.68567 77.3304H28.589C29.2606 77.3304 29.8048 76.7861 29.8048 76.1146C29.8048 75.4432 29.2606 74.8988 28.589 74.8988H22.7986V47.1995L25.1633 41.5741C25.2634 41.3357 25.285 41.0716 25.2249 40.82L22.7837 30.6183C22.6527 30.0712 22.1638 29.6855 21.6012 29.6855H16.719C16.1565 29.6855 15.6675 30.0714 15.5366 30.6183L13.0952 40.8198C13.0351 41.0714 13.0566 41.3355 13.1568 41.574L15.503 47.1552V74.8986H2.68567C2.5456 74.8986 2.43164 74.7847 2.43164 74.6446V20.2446H80.5684V25.5626C80.5684 26.2341 81.1126 26.7784 81.7842 26.7784C82.4558 26.7784 83 26.2341 83 25.5626V10.1009C83 7.6573 81.0119 5.66919 78.5683 5.66919ZM17.6782 32.1172H20.642L22.7673 40.999L20.5566 46.2578C20.4365 46.4463 20.3668 46.6702 20.3668 46.9103V74.8988H17.9346V46.9103C17.9348 46.7485 17.9025 46.5883 17.8398 46.4392L15.5529 40.999L17.6782 32.1172Z" fill="#F45B1E"/>
<path d="M81.784 29.3103C81.1124 29.3103 80.5682 29.8547 80.5682 30.5261V74.6448C80.5682 74.7849 80.4542 74.8989 80.3142 74.8989H58.1922V68.4028C64.4399 65.5291 68.4322 59.337 68.4322 52.4047C68.4322 49.3191 67.6223 46.2828 66.0902 43.6236C64.6045 41.0454 62.473 38.8681 59.9265 37.3271C59.1991 36.8868 58.2879 36.8721 57.5483 37.2888C56.8021 37.7095 56.3567 38.4724 56.3567 39.3296V48.832H45.2854V39.3296C45.2854 38.4722 44.8399 37.7093 44.0937 37.2888C43.3544 36.8722 42.4431 36.8868 41.7156 37.3271C39.1689 38.8681 37.0376 41.0454 35.5519 43.6236C34.0198 46.2825 33.2099 49.319 33.2099 52.4047C33.2099 59.337 37.202 65.5291 43.4498 68.4028V74.899H33.5527C32.8811 74.899 32.3369 75.4434 32.3369 76.1148C32.3369 76.7863 32.8811 77.3307 33.5527 77.3307H80.3143C81.7953 77.3307 83 76.1259 83 74.645V30.5261C82.9998 29.8547 82.4556 29.3103 81.784 29.3103ZM55.7606 67.6041V74.899H52.0368V62.8772C52.0368 62.2057 51.4926 61.6613 50.8209 61.6613C50.1493 61.6613 49.6051 62.2057 49.6051 62.8772V74.899H45.8812V67.6041C45.8812 67.1089 45.5811 66.6632 45.1222 66.4773C39.3629 64.1426 35.6413 58.6185 35.6413 52.4046C35.6413 47.0919 38.3345 42.2714 42.8538 39.4812V50.0478C42.8538 50.7193 43.398 51.2636 44.0696 51.2636H57.5725C58.2441 51.2636 58.7883 50.7193 58.7883 50.0478V39.4812C63.3074 42.2714 66.0005 47.0919 66.0005 52.4046C66.0005 58.6185 62.2792 64.1426 56.5197 66.4773C56.0608 66.6632 55.7606 67.1089 55.7606 67.6041Z" fill="#F45B1E"/>
<path d="M55.3917 11.9656H12.022C11.3505 11.9656 10.8062 12.5098 10.8062 13.1814C10.8062 13.8529 11.3504 14.3972 12.022 14.3972H55.3917C56.0634 14.3972 56.6076 13.8529 56.6076 13.1814C56.6076 12.5099 56.0634 11.9656 55.3917 11.9656Z" fill="#F45B1E"/>
<path d="M61.2715 11.6355C60.5999 11.6355 60.0557 12.1799 60.0557 12.8513V13.0625C60.0557 13.734 60.5999 14.2784 61.2715 14.2784C61.9431 14.2784 62.4873 13.734 62.4873 13.0625V12.8513C62.4875 12.1799 61.9431 11.6355 61.2715 11.6355Z" fill="#F45B1E"/>
<path d="M66.1245 11.6355C65.4529 11.6355 64.9087 12.1799 64.9087 12.8513V13.0625C64.9087 13.734 65.4529 14.2784 66.1245 14.2784C66.7961 14.2784 67.3403 13.734 67.3403 13.0625V12.8513C67.3403 12.1799 66.7961 11.6355 66.1245 11.6355Z" fill="#F45B1E"/>
<path d="M70.978 11.6355C70.3064 11.6355 69.7622 12.1799 69.7622 12.8513V13.0625C69.7622 13.734 70.3064 14.2784 70.978 14.2784C71.6496 14.2784 72.1938 13.734 72.1938 13.0625V12.8513C72.1938 12.1799 71.6496 11.6355 70.978 11.6355Z" fill="#F45B1E"/>
<path d="M33.5126 33.1496H32.6686V32.3057C32.6686 31.6342 32.1244 31.0898 31.4528 31.0898C30.7812 31.0898 30.237 31.6342 30.237 32.3057V33.1496H29.3931C28.7214 33.1496 28.1772 33.694 28.1772 34.3654C28.1772 35.0369 28.7214 35.5812 29.3931 35.5812H30.237V36.4252C30.237 37.0966 30.7812 37.641 31.4528 37.641C32.1244 37.641 32.6686 37.0966 32.6686 36.4252V35.5812H33.5126C34.1842 35.5812 34.7284 35.0369 34.7284 34.3654C34.7284 33.694 34.1842 33.1496 33.5126 33.1496Z" fill="#F45B1E"/>
<path d="M68.9499 33.2573H68.1061V32.4133C68.1061 31.7419 67.5619 31.1975 66.8903 31.1975C66.2187 31.1975 65.6745 31.7419 65.6745 32.4133V33.2573H64.8306C64.1589 33.2573 63.6147 33.8016 63.6147 34.4731C63.6147 35.1445 64.1589 35.6889 64.8306 35.6889H65.6745V36.5329C65.6745 37.2043 66.2187 37.7487 66.8903 37.7487C67.5619 37.7487 68.1061 37.2043 68.1061 36.5329V35.6889H68.9499C69.6215 35.6889 70.1657 35.1445 70.1657 34.4731C70.1657 33.8016 69.6215 33.2573 68.9499 33.2573Z" fill="#F45B1E"/>
</svg>
