<svg width="83" height="83" viewBox="0 0 83 83" fill="none" xmlns="http://www.w3.org/2000/svg">
<path d="M82.1168 51.5399C80.538 49.2198 77.3588 48.6057 75.0315 50.1698L64.4393 57.2585L64.4085 35.1938L68.0884 38.641C68.8709 39.3739 69.8912 39.7772 70.9624 39.7772C70.9643 39.7772 70.9666 39.7772 70.9687 39.7772C72.1252 39.7756 73.2418 39.2909 74.0323 38.4471C74.8002 37.6274 75.203 36.5578 75.1664 35.435C75.1298 34.3122 74.658 33.271 73.8382 32.5031L66.8618 25.9678C66.3843 25.5204 65.6345 25.5449 65.1873 26.0224C64.74 26.5 64.7645 27.2496 65.2419 27.697L72.2183 34.2323C72.5762 34.5675 72.7821 35.0221 72.7981 35.5121C72.814 36.0022 72.6383 36.4692 72.3029 36.827C71.9527 37.2008 71.4778 37.407 70.9652 37.4077C70.9642 37.4077 70.9634 37.4077 70.9624 37.4077C70.495 37.4077 70.0497 37.2316 69.7082 36.9116L69.708 36.9115L42.0064 10.9612C41.5499 10.5337 40.8396 10.5343 40.3842 10.9634L12.7546 36.9914C12.3978 37.3276 11.9312 37.5037 11.441 37.49C10.9508 37.4755 10.4958 37.2707 10.1596 36.9136C9.82334 36.5568 9.64616 36.0902 9.66091 35.6002C9.6755 35.11 9.88024 34.6549 10.237 34.3187L39.9318 6.34543C40.6356 5.68224 41.7399 5.68062 42.4456 6.34202L59.8184 22.6165C60.2958 23.0638 61.0455 23.0395 61.4929 22.5619C61.9402 22.0843 61.9157 21.3347 61.4383 20.8873L44.0657 4.6128C42.449 3.09805 39.9196 3.10146 38.3071 4.62074L28.8012 13.5757L28.7986 11.9784C28.7979 11.4749 28.6011 11.0019 28.2446 10.6465C27.8888 10.2917 27.4164 10.0963 26.9139 10.0963C26.9129 10.0963 26.9121 10.0963 26.9111 10.0963L20.1111 10.1059C19.6076 10.1065 19.1347 10.3033 18.7792 10.6598C18.4239 11.0163 18.2284 11.4898 18.2292 11.9935L18.248 23.5173L8.61238 32.5943C7.7947 33.3645 7.32605 34.407 7.29249 35.5298C7.25893 36.6526 7.66469 37.7212 8.43488 38.5386C9.2049 39.3562 10.2474 39.8251 11.3704 39.8586C11.4133 39.8599 11.4563 39.8606 11.4992 39.8606C12.5748 39.8606 13.5934 39.4569 14.3794 38.7161L18.051 35.2573L18.0656 45.6795C16.8777 45.5065 15.6758 45.4157 14.4684 45.4157H12.4412V44.7054C12.4412 42.3206 10.501 40.3803 8.11617 40.3803H4.32508C1.94029 40.3801 0 42.3203 0 44.7052V63.2697C0 63.9239 0.530422 64.4543 1.1847 64.4543C1.83897 64.4543 2.36939 63.9239 2.36939 63.2697V44.7052C2.36939 43.6269 3.24673 42.7495 4.32508 42.7495H8.11601C9.19436 42.7495 10.0717 43.6269 10.0717 44.7052V46.6003V70.8836V72.76C10.0717 73.8384 9.19436 74.7157 8.11601 74.7157H4.32508C3.24673 74.7157 2.36939 73.8384 2.36939 72.76V70.687C2.36939 70.0327 1.83897 69.5023 1.1847 69.5023C0.530422 69.5023 0 70.0327 0 70.687V72.76C0 75.1448 1.94029 77.0851 4.32508 77.0851H8.11601C10.5008 77.0851 12.4411 75.145 12.4411 72.76V72.599L29.7907 79.169C29.8228 79.1812 29.8554 79.1919 29.8884 79.2011C30.6427 79.4141 31.3967 79.521 32.1411 79.521C32.5438 79.521 32.9437 79.4897 33.3396 79.4271L58.8363 75.7518C58.8423 75.7509 58.8481 75.75 58.8541 75.749C61.0219 75.4029 63.0669 74.4865 64.7679 73.0992C64.7826 73.0872 64.7972 73.0747 64.8113 73.0619L81.2834 58.247C83.2017 56.5441 83.5598 53.6606 82.1168 51.5399ZM26.4298 12.4665L26.4353 15.8043L20.6137 21.2885L20.5992 12.4745L26.4298 12.4665ZM41.1986 13.4512L62.0359 32.9711L62.072 58.8426L58.7178 61.0875L55.1658 60.8883L55.072 59.9448C54.7414 56.6219 52.2884 53.9488 49.0447 53.311L49.0233 37.9195C49.0217 36.7383 48.0601 35.7785 46.8791 35.7785C46.8781 35.7785 46.8773 35.7785 46.8762 35.7785L35.5846 35.7944C35.0119 35.7952 34.4737 36.0189 34.0694 36.4245C33.6649 36.8299 33.4427 37.3688 33.4435 37.9414L33.4623 51.3609C31.2257 50.8496 29.09 50.0052 27.0933 48.8372C26.8442 48.6915 26.5926 48.5508 26.3389 48.4139C26.24 48.3606 26.1395 48.3105 26.0398 48.2585C25.8855 48.1779 25.7315 48.0969 25.5755 48.0195C25.4513 47.9579 25.3257 47.8996 25.2006 47.8401C25.0678 47.777 24.9352 47.7133 24.8014 47.6525C24.6653 47.5908 24.528 47.5319 24.3908 47.4726C24.2655 47.4184 24.1402 47.364 24.0141 47.3119C23.873 47.2537 23.7312 47.1978 23.5892 47.1422C23.4632 47.0929 23.3371 47.044 23.2105 46.9966C23.0699 46.9441 22.9288 46.8934 22.7872 46.8436C22.6545 46.7967 22.5215 46.751 22.388 46.7065C22.2524 46.6612 22.1166 46.617 21.9801 46.574C21.8347 46.5281 21.6886 46.4844 21.5424 46.4411C21.4168 46.4041 21.2913 46.3672 21.165 46.3321C21.0001 46.2863 20.8345 46.2433 20.6686 46.2008C20.591 46.1809 20.5138 46.1584 20.4357 46.1391L20.4174 33.028L41.1986 13.4512ZM46.675 53.0145L36.7661 51.8737L35.8325 51.7662L35.8134 38.1634L46.6543 38.1482L46.675 53.0145ZM79.7048 56.4805L63.2489 71.2808C61.8776 72.3927 60.2327 73.1282 58.4892 73.408L33.0035 77.0817C32.9982 77.0825 32.993 77.0833 32.9876 77.0841L32.97 77.0869C32.1978 77.2091 31.3938 77.1576 30.5798 76.9342L12.4412 70.0653V47.785H14.4684C16.1941 47.785 17.9081 47.9842 19.5771 48.3712C19.6392 48.3856 19.7012 48.4003 19.7631 48.4152C19.9681 48.4647 20.1727 48.5156 20.3763 48.5707C20.3942 48.5756 20.4118 48.5808 20.4297 48.5856C20.6338 48.6414 20.8371 48.7002 21.0397 48.7617C21.076 48.7727 21.1125 48.7836 21.1486 48.7947C21.3642 48.8614 21.5789 48.9309 21.7924 49.0039C21.8144 49.0115 21.8363 49.0193 21.8583 49.0269C22.303 49.1804 22.7433 49.3479 23.1781 49.5291C23.2017 49.539 23.2254 49.5489 23.2491 49.5589C23.4658 49.65 23.6813 49.7442 23.8952 49.8421C23.9009 49.8447 23.9068 49.8475 23.9124 49.8502C24.1193 49.9452 24.3247 50.0438 24.5288 50.1451C24.5528 50.157 24.5769 50.1686 24.6009 50.1806C24.8003 50.2803 24.9981 50.3836 25.1947 50.4893C25.2318 50.5092 25.2688 50.5296 25.3059 50.5497C25.5043 50.6579 25.7016 50.7681 25.897 50.8824C28.7162 52.5315 31.7853 53.5997 35.019 54.0573C35.0292 54.0588 35.0393 54.0601 35.0495 54.0612L48.3232 55.5894C48.3966 55.5999 48.4696 55.6121 48.542 55.6257C50.4961 55.9927 52.0384 57.4366 52.5544 59.3169C52.6309 59.5954 52.6847 59.8837 52.7142 60.1792L52.7669 60.7093L27.8896 58.5297C27.2383 58.4728 26.6631 58.9548 26.606 59.6065C26.5488 60.2583 27.0311 60.833 27.6828 60.89L53.9837 63.1944C53.99 63.1949 53.9962 63.1948 54.0024 63.1952C54.0085 63.1957 54.0145 63.1967 54.0208 63.1972L58.9809 63.4755C59.0031 63.4768 59.0252 63.4773 59.0472 63.4773C59.0707 63.4773 59.0939 63.4736 59.1172 63.4721C59.1437 63.4705 59.1701 63.4695 59.1963 63.4663C59.2317 63.4618 59.2662 63.4541 59.3009 63.4465C59.3257 63.441 59.3507 63.437 59.375 63.4298C59.4129 63.419 59.4494 63.4042 59.4862 63.3895C59.506 63.3815 59.5264 63.3755 59.5459 63.3664C59.6011 63.3408 59.655 63.3113 59.7062 63.2769L63.9165 60.4593L63.917 60.4588L76.3511 52.1374C77.6021 51.2966 79.3097 51.6265 80.1577 52.8728C80.9329 54.0117 80.7405 55.5607 79.7048 56.4805Z" fill="#F45B1E"/>
</svg>
