<svg width="59" height="59" viewBox="0 0 59 59" fill="none" xmlns="http://www.w3.org/2000/svg">
<path d="M41.7067 44.788C41.6403 43.9161 40.9475 43.2233 40.0754 43.1567C39.1002 43.2311 38.3699 44.0818 38.4442 45.057C38.5106 45.9289 39.2034 46.6217 40.0754 46.6883C41.0507 46.6141 41.7809 45.7632 41.7067 44.788Z" fill="white"/>
<path d="M46.0261 43.2729C45.9597 42.401 45.2668 41.7081 44.3948 41.6416C43.4195 41.7159 42.6893 42.5667 42.7635 43.5418C42.8299 44.4137 43.5228 45.1066 44.3948 45.1731C45.37 45.0989 46.1003 44.248 46.0261 43.2729Z" fill="white"/>
<path d="M58.9919 16.3373V16.2555C58.9696 16.1985 58.9422 16.1437 58.91 16.0917L58.8486 16.0098L58.7258 15.8767L58.6541 15.8153L58.5211 15.7539H58.4699L36.2366 6.66402C35.9904 6.56447 35.7151 6.56447 35.4689 6.66402L13.2867 15.6003H13.2356L13.1025 15.6617L13.0308 15.7232L12.908 15.8562L12.8466 15.9381C12.8145 15.9902 12.7871 16.045 12.7647 16.1019V16.1838C12.754 16.2688 12.754 16.3547 12.7647 16.4397V24.6288H1.02363C0.458331 24.6288 0 25.0871 0 25.6524C0 26.2177 0.458331 26.676 1.02363 26.676V26.8091H12.6419V30.3099H8.65993C8.09463 30.3099 7.6363 30.7683 7.6363 31.3336C7.6363 31.8989 8.09463 32.3572 8.65993 32.3572H12.6419V35.858H3.20397C2.63867 35.858 2.18034 36.3163 2.18034 36.8816C2.18034 37.4469 2.63867 37.9053 3.20397 37.9053H12.6419V42.1841C12.6439 42.5974 12.8943 42.9688 13.2765 43.1258L35.4689 52.3385C35.5798 52.3825 35.6977 52.4067 35.8169 52.4101C35.9362 52.4067 36.054 52.3825 36.1649 52.3385L58.3573 43.1258C58.7395 42.9688 58.9899 42.5974 58.9919 42.1841V16.5933C59.0027 16.5083 59.0027 16.4223 58.9919 16.3373ZM35.8476 8.74199L44.2619 12.1097L25.1199 20.2067L16.3679 16.5625L35.8476 8.74199ZM34.7933 49.8715L14.6891 41.4982V37.895H18.9372C19.5025 37.895 19.9608 37.4367 19.9608 36.8714C19.9608 36.3061 19.5025 35.8478 18.9372 35.8478H14.6891V32.347H24.4136C24.9789 32.347 25.4373 31.8886 25.4373 31.3233C25.4373 30.758 24.9789 30.2997 24.4136 30.2997H14.6891V26.8091H16.7364C17.3017 26.8091 17.76 26.3508 17.76 25.7855C17.76 25.2202 17.3017 24.7618 16.7364 24.7618H14.6891V18.0878L22.5097 21.3224L34.7933 26.4406V49.8715ZM35.8578 24.7107L27.7711 21.3224L46.9335 13.1948L55.3171 16.5728L43.1052 21.6909L35.8578 24.7107ZM36.8712 49.8715V26.4406L42.6343 24.0453L56.9652 18.0673L57.0163 41.4982L36.8712 49.8715Z" fill="white"/>
</svg>
