<svg width="77" height="77" viewBox="0 0 77 77" fill="none" xmlns="http://www.w3.org/2000/svg">
<path d="M61.8473 17.5408L38.9777 10.4243C38.774 10.3612 38.5558 10.3612 38.3521 10.4243L15.4831 17.5408C15.2687 17.6076 15.0813 17.7412 14.9482 17.922C14.8151 18.1029 14.7433 18.3215 14.7432 18.546V36.5863C14.763 42.1495 16.34 47.596 19.2956 52.3093C22.2512 57.0225 26.4673 60.8141 31.4666 63.2548L38.2089 66.5176C38.3519 66.5869 38.5087 66.6229 38.6676 66.6229C38.8265 66.6229 38.9833 66.5869 39.1263 66.5176L45.8686 63.2548C50.8679 60.8141 55.084 57.0225 58.0396 52.3093C60.9952 47.596 62.5722 42.1495 62.592 36.5863V18.546C62.5916 18.3209 62.5191 18.1018 62.3851 17.9209C62.251 17.74 62.0626 17.6068 61.8473 17.5408ZM60.4818 36.5863C60.4634 41.7539 58.9987 46.8131 56.2535 51.1913C53.5084 55.5694 49.5924 59.0917 44.9488 61.3592L38.6649 64.4001L32.3816 61.3592C27.7381 59.0916 23.8221 55.5694 21.077 51.1912C18.3318 46.8131 16.8671 41.7539 16.8486 36.5863V19.3214L38.6649 12.5322L60.4818 19.3208V36.5863Z" fill="white"/>
<path d="M30.9083 29.6748V31.4193C30.0721 31.4362 29.2758 31.7797 28.6898 32.3764C28.1038 32.9731 27.7747 33.7755 27.7729 34.6118V44.463C27.7739 45.311 28.1112 46.1239 28.7109 46.7234C29.3105 47.323 30.1235 47.6601 30.9715 47.6609H46.3588C47.2068 47.6601 48.0198 47.323 48.6194 46.7234C49.2191 46.1239 49.5564 45.311 49.5573 44.463V34.6106C49.5558 33.7742 49.2267 32.9717 48.6407 32.375C48.0546 31.7783 47.2582 31.4348 46.422 31.4181V29.6736C46.431 28.6492 46.237 27.6332 45.8513 26.6842C45.4655 25.7351 44.8956 24.8719 44.1744 24.1444C43.4532 23.4168 42.595 22.8393 41.6494 22.4452C40.7039 22.0511 39.6896 21.8481 38.6651 21.8481C37.6407 21.8481 36.6264 22.0511 35.6808 22.4452C34.7353 22.8393 33.8771 23.4168 33.1559 24.1444C32.4347 24.8719 31.8648 25.7351 31.479 26.6842C31.0932 27.6332 30.8993 28.6492 30.9083 29.6736V29.6748ZM47.4513 34.6076V44.463C47.4509 44.7528 47.3357 45.0305 47.1307 45.2353C46.9258 45.4402 46.648 45.5553 46.3582 45.5554H30.9715C30.6817 45.5553 30.4039 45.4402 30.199 45.2353C29.994 45.0305 29.8787 44.7528 29.8784 44.463V34.6106C29.8787 34.3208 29.994 34.043 30.1989 33.8381C30.4038 33.6332 30.6817 33.5179 30.9715 33.5176H46.3588C46.6486 33.5179 46.9265 33.6332 47.1314 33.8381C47.3363 34.043 47.4515 34.3208 47.4519 34.6106L47.4513 34.6076ZM44.3159 29.6748V31.4121H33.0138V29.6748C33.0061 28.9278 33.1465 28.1866 33.4271 27.4942C33.7076 26.8017 34.1227 26.1718 34.6482 25.6408C35.1738 25.1098 35.7994 24.6883 36.4889 24.4006C37.1784 24.1129 37.918 23.9648 38.6651 23.9648C39.4122 23.9648 40.1519 24.1129 40.8414 24.4006C41.5309 24.6883 42.1565 25.1098 42.682 25.6408C43.2076 26.1718 43.6226 26.8017 43.9032 27.4942C44.1837 28.1866 44.3236 28.9278 44.3159 29.6748Z" fill="white"/>
<path d="M38.5001 36.4072C38.0405 36.4057 37.5932 36.5559 37.2278 36.8346C36.8623 37.1134 36.5991 37.505 36.4791 37.9487C36.3591 38.3923 36.389 38.8632 36.564 39.2882C36.7391 39.7131 37.0497 40.0684 37.4474 40.2987V41.8261C37.4474 42.1053 37.5583 42.3731 37.7557 42.5705C37.9532 42.7679 38.2209 42.8788 38.5001 42.8788C38.7793 42.8788 39.0471 42.7679 39.2445 42.5705C39.442 42.3731 39.5529 42.1053 39.5529 41.8261V40.2987C39.9506 40.0684 40.2611 39.7131 40.4362 39.2882C40.6113 38.8632 40.6412 38.3923 40.5211 37.9487C40.4011 37.505 40.1379 37.1134 39.7725 36.8346C39.407 36.5559 38.9597 36.4057 38.5001 36.4072Z" fill="white"/>
</svg>
