<svg width="77" height="77" viewBox="0 0 77 77" fill="none" xmlns="http://www.w3.org/2000/svg">
<path d="M12.4523 47.3428L29.657 64.5475C32.4242 67.3147 36.9359 67.3147 39.7031 64.5475L64.2469 40.0037C65.8109 38.4396 66.6531 36.3342 66.593 34.1686L66.4125 18.5881C66.3523 14.1967 62.8031 10.6475 58.4117 10.5873L42.8312 10.3467C40.6656 10.3467 38.5602 11.1889 36.9961 12.6928L12.4523 37.2967C9.68516 40.0639 9.68516 44.5756 12.4523 47.3428ZM13.9562 38.8006L38.5 14.2568C39.643 13.1139 41.1469 12.5123 42.7109 12.5123C53.3586 12.6928 56.968 12.7529 57.9906 12.7529C58.2914 12.7529 58.5922 12.7529 57.9906 12.7529H58.3516C61.6 12.7529 64.2469 15.3998 64.2469 18.6482L64.4875 34.2287C64.5477 35.7928 63.8859 37.3568 62.743 38.4998L38.1992 63.0436C36.2742 64.9686 33.0859 64.9686 31.1609 63.0436L13.9562 45.8389C12.0312 43.9139 12.0312 40.7256 13.9562 38.8006Z" fill="white"/>
<path d="M59.9155 22.679C61.4796 21.1149 61.4796 18.6485 59.9155 17.0845C58.3515 15.5806 55.8249 15.5806 54.321 17.0845C52.7569 18.6485 52.7569 21.1149 54.321 22.679C55.8851 24.2431 58.3515 24.2431 59.9155 22.679ZM55.8249 18.5884C56.5468 17.8665 57.6897 17.8665 58.4116 18.5884C59.1335 19.3103 59.1335 20.5134 58.4116 21.1751C57.6897 21.897 56.5468 21.897 55.8249 21.1751C55.103 20.4532 55.103 19.3103 55.8249 18.5884Z" fill="white"/>
<path d="M34.7102 40.3049C36.3945 38.6205 36.3945 35.9135 34.7102 34.2291C33.0258 32.5447 30.3188 32.5447 28.6344 34.2291C26.95 35.9135 26.95 38.6205 28.6344 40.3049C30.0781 41.8689 32.7852 42.1096 34.7102 40.3049ZM30.0781 35.733C31.1609 34.7705 32.4844 34.951 33.1461 35.733C33.9883 36.5752 33.9883 37.9588 33.1461 38.801C32.3039 39.6432 30.9203 39.6432 30.0781 38.801C29.2359 37.9588 29.2359 36.5752 30.0781 35.733Z" fill="white"/>
<path d="M50.5913 40.3649C52.2757 38.6805 52.2757 35.9734 50.5913 34.2891C49.0874 32.6649 46.3202 32.5445 44.5757 34.2891C42.9515 35.793 42.8312 38.5602 44.5757 40.3047C46.0796 41.9289 48.7866 42.0492 50.5913 40.3649ZM46.0194 35.7328C46.9218 34.8305 48.3655 34.8305 49.0874 35.793C49.9296 36.6352 49.9296 38.0188 49.0874 38.8609C48.2452 39.7031 46.8616 39.7031 46.0194 38.8609C45.1171 37.9586 45.1171 36.6352 46.0194 35.7328Z" fill="white"/>
<path d="M42.1694 48.4861C42.7108 48.3056 43.0717 47.7642 42.9514 47.2228L38.3795 26.7095C38.2592 26.1681 37.6577 25.8072 37.1162 25.9275C36.5748 26.0478 36.2139 26.6494 36.3342 27.1908L40.9061 47.704C41.0866 48.3658 41.7483 48.6665 42.1694 48.4861Z" fill="white"/>
</svg>
