<svg width="77" height="77" viewBox="0 0 77 77" fill="none" xmlns="http://www.w3.org/2000/svg">
<path d="M53.4431 58.0723C53.2215 58.0723 53.0089 58.1603 52.8522 58.317C52.6955 58.4738 52.6074 58.6863 52.6074 58.9079C52.6074 59.1296 52.6955 59.3421 52.8522 59.4989C53.0089 59.6556 53.2215 59.7436 53.4431 59.7436C53.9677 59.7442 54.4707 59.9529 54.8417 60.3239C55.2127 60.6949 55.4213 61.1979 55.422 61.7225C55.422 61.9441 55.51 62.1567 55.6667 62.3134C55.8235 62.4701 56.036 62.5582 56.2577 62.5582C56.4793 62.5582 56.6918 62.4701 56.8486 62.3134C57.0053 62.1567 57.0933 61.9441 57.0933 61.7225C57.0922 60.7547 56.7073 59.827 56.0229 59.1427C55.3386 58.4583 54.4108 58.0734 53.4431 58.0723Z" fill="white"/>
<path d="M48.5791 54.1416C47.6014 54.1429 46.6641 54.5318 45.9729 55.2232C45.2816 55.9146 44.8927 56.8519 44.8916 57.8296C44.8916 58.0512 44.9796 58.2638 45.1364 58.4205C45.2931 58.5772 45.5056 58.6652 45.7273 58.6652C45.9489 58.6652 46.1615 58.5772 46.3182 58.4205C46.4749 58.2638 46.563 58.0512 46.563 57.8296C46.5635 57.295 46.776 56.7824 47.154 56.4043C47.532 56.0263 48.0445 55.8136 48.5791 55.813C48.8007 55.813 49.0133 55.7249 49.17 55.5682C49.3267 55.4115 49.4148 55.1989 49.4148 54.9773C49.4148 54.7556 49.3267 54.5431 49.17 54.3864C49.0133 54.2296 48.8007 54.1416 48.5791 54.1416Z" fill="white"/>
<path d="M31.1425 45.1154V47.0303C31.1425 47.2519 31.2306 47.4645 31.3873 47.6212C31.544 47.7779 31.7565 47.8659 31.9782 47.8659C32.1998 47.8659 32.4124 47.7779 32.5691 47.6212C32.7258 47.4645 32.8139 47.2519 32.8139 47.0303V45.1154C34.4071 44.9112 35.8716 44.1341 36.9337 42.9291C37.9959 41.7242 38.5831 40.1738 38.5858 38.5675C38.5858 38.3459 38.4977 38.1333 38.341 37.9766C38.1843 37.8199 37.9717 37.7318 37.7501 37.7318C36.8163 37.7325 35.8933 37.9316 35.0423 38.316C34.1913 38.7004 33.4317 39.2613 32.8139 39.9614V38.4524C33.9429 37.1965 34.547 35.5553 34.5015 33.8671C34.456 32.1789 33.7644 30.5726 32.5694 29.3794C32.4126 29.2227 32.2 29.1348 31.9784 29.1348C31.7568 29.1348 31.5443 29.2227 31.3875 29.3794C30.1961 30.5746 29.5069 32.1802 29.4614 33.8672C29.4158 35.5542 30.0173 37.1947 31.1425 38.4524V39.9614C30.5249 39.2611 29.7654 38.7001 28.9145 38.3157C28.0635 37.9313 27.1405 37.7322 26.2068 37.7318C25.9851 37.7318 25.7726 37.8199 25.6159 37.9766C25.4591 38.1333 25.3711 38.3459 25.3711 38.5675C25.3737 40.1737 25.9609 41.724 27.0229 42.929C28.085 44.1339 29.5493 44.9111 31.1425 45.1154ZM36.8284 39.4891C36.6421 40.462 36.1682 41.3566 35.4679 42.0572C34.7675 42.7577 33.8731 43.232 32.9003 43.4187C33.0866 42.4458 33.5606 41.5512 34.2609 40.8507C34.9612 40.1501 35.8556 39.6758 36.8284 39.4891ZM31.9791 31.2756C32.5358 32.0951 32.8334 33.0628 32.8334 34.0534C32.8334 35.044 32.5358 36.0118 31.9791 36.8312C31.4227 36.0113 31.1251 35.0432 31.125 34.0523C31.1249 33.0614 31.4223 32.0932 31.9787 31.2732L31.9791 31.2756ZM31.0566 43.4187C30.0841 43.2321 29.1899 42.758 28.4897 42.0578C27.7896 41.3576 27.3155 40.4635 27.1289 39.491C28.1014 39.6777 28.9955 40.1517 29.6957 40.8519C30.3959 41.5521 30.8699 42.4462 31.0566 43.4187Z" fill="white"/>
<path d="M19.1235 38.5001C19.1234 41.0427 19.8773 43.5283 21.2899 45.6424C22.7024 47.7566 24.7102 49.4044 27.0593 50.3775C29.4083 51.3505 31.9932 51.6052 34.487 51.1091C36.9807 50.6131 39.2714 49.3887 41.0693 47.5908C42.8673 45.7929 44.0916 43.5022 44.5877 41.0085C45.0837 38.5147 44.8291 35.9298 43.856 33.5807C42.8829 31.2317 41.2351 29.2239 39.121 27.8114C37.0068 26.3988 34.5212 25.6449 31.9786 25.645C28.5704 25.6489 25.303 27.0046 22.893 29.4145C20.4831 31.8245 19.1275 35.0919 19.1235 38.5001ZM31.9786 27.3164C34.1905 27.3164 36.3528 27.9723 38.192 29.2012C40.0311 30.4301 41.4646 32.1767 42.311 34.2203C43.1575 36.2638 43.379 38.5125 42.9474 40.6819C42.5159 42.8514 41.4508 44.8441 39.8867 46.4082C38.3226 47.9723 36.3299 49.0374 34.1605 49.4689C31.991 49.9005 29.7423 49.679 27.6988 48.8325C25.6552 47.986 23.9086 46.5526 22.6797 44.7134C21.4508 42.8743 20.7949 40.712 20.7949 38.5001C20.7983 35.535 21.9777 32.6924 24.0743 30.5958C26.1709 28.4992 29.0136 27.3198 31.9786 27.3164Z" fill="white"/>
<path d="M63.6472 61.3737C63.5574 60.2497 63.1175 59.1822 62.3894 58.3214C61.6613 57.4605 60.6816 56.8495 59.5882 56.5745C59.5882 56.5325 59.5882 56.4904 59.5882 56.4489C59.5863 55.1009 59.0767 53.803 58.1608 52.8139C57.245 51.8248 55.9901 51.217 54.6462 51.1116C54.6032 50.9239 54.5507 50.7419 54.4886 50.5624C55.0103 46.6279 55.2888 42.665 55.3224 38.6963V38.3037C55.3224 28.2651 52.9615 16.8966 52.7332 15.8217V10.9499C52.7332 10.7283 52.6452 10.5157 52.4885 10.359C52.3318 10.2023 52.1192 10.1143 51.8976 10.1143H13.5391C13.4293 10.1142 13.3206 10.1358 13.2192 10.1777C13.1178 10.2197 13.0257 10.2813 12.948 10.3589C12.8704 10.4365 12.8089 10.5286 12.7669 10.6301C12.7249 10.7315 12.7034 10.8402 12.7034 10.9499V15.8207C12.4747 16.898 10.1143 28.2656 10.1143 38.3037V38.6963C10.1143 48.7344 12.4747 60.102 12.7034 61.1783V66.0491C12.7034 66.1589 12.7249 66.2676 12.7669 66.369C12.8089 66.4704 12.8704 66.5626 12.948 66.6402C13.0257 66.7178 13.1178 66.7794 13.2192 66.8213C13.3206 66.8633 13.4293 66.8849 13.5391 66.8848H66.0501C66.1599 66.8849 66.2685 66.8633 66.37 66.8213C66.4714 66.7794 66.5635 66.7178 66.6411 66.6402C66.7188 66.5626 66.7803 66.4704 66.8223 66.369C66.8643 66.2676 66.8858 66.1589 66.8858 66.0491C66.8905 65.0318 66.5823 64.0375 66.003 63.2012C65.4237 62.3649 64.6013 61.7269 63.6472 61.3737ZM14.3748 11.7856H51.0619V15.0744H14.3748V11.7856ZM11.7856 38.3037C11.7856 29.3821 13.6886 19.3626 14.221 16.7457H51.2171C51.7471 19.3626 53.6525 29.3821 53.6525 38.3037V38.6963C53.631 41.9038 53.4373 45.1079 53.0723 48.2946C52.3386 47.5751 51.4267 47.0638 50.4301 46.8132C49.4335 46.5625 48.3882 46.5816 47.4014 46.8684C46.4146 47.1552 45.522 47.6994 44.815 48.4452C44.108 49.1909 43.6122 50.1114 43.3784 51.112C42.0354 51.2191 40.7819 51.8277 39.8672 52.817C38.9526 53.8062 38.4439 55.1035 38.4422 56.4508C38.4422 56.4924 38.4422 56.5344 38.4422 56.5764C37.538 56.8049 36.7083 57.2637 36.0339 57.908C35.3596 58.5524 34.8636 59.3604 34.5943 60.2534H14.2191C13.6886 57.6365 11.7837 47.617 11.7837 38.6953L11.7856 38.3037ZM14.3748 61.9257H33.3179C32.7624 62.3025 32.2895 62.7884 31.9277 63.3538C31.5659 63.9192 31.3229 64.5522 31.2134 65.2144H14.3748V61.9257ZM42.0886 65.2144C42.2555 64.7957 42.544 64.4365 42.9168 64.1832C43.2897 63.9299 43.7299 63.7941 44.1807 63.7933C44.4023 63.7933 44.6149 63.7052 44.7716 63.5485C44.9283 63.3918 45.0164 63.1793 45.0164 62.9576C45.0164 62.736 44.9283 62.5234 44.7716 62.3667C44.6149 62.21 44.4023 62.1219 44.1807 62.1219C43.2846 62.1233 42.4158 62.4306 41.7182 62.993C41.0205 63.5553 40.5358 64.339 40.3442 65.2144H32.9187C33.0701 64.6242 33.382 64.0874 33.8198 63.6635C34.2576 63.2397 34.8041 62.9453 35.3989 62.8129C35.5906 62.7694 35.7609 62.6597 35.8797 62.5031C35.9986 62.3465 36.0585 62.1531 36.0489 61.9567L36.0431 61.8646C36.0431 61.834 36.0384 61.803 36.0384 61.7719C36.0427 60.8488 36.3922 59.9606 37.018 59.282C37.6439 58.6034 38.5009 58.1834 39.4207 58.1045C39.5372 58.0951 39.6505 58.0614 39.7532 58.0056C39.8559 57.9497 39.9457 57.8729 40.0168 57.7801C40.088 57.6874 40.1389 57.5807 40.1662 57.4671C40.1936 57.3534 40.1968 57.2353 40.1757 57.1203C40.1336 56.8999 40.1121 56.6761 40.1112 56.4518C40.1122 55.4751 40.5006 54.5387 41.1912 53.8481C41.8818 53.1575 42.8182 52.7691 43.7949 52.7681C43.8512 52.7681 43.9066 52.7724 43.962 52.7762L44.0341 52.781C44.2505 52.7945 44.4637 52.7233 44.6287 52.5825C44.7936 52.4418 44.8974 52.2424 44.918 52.0265C45.0164 51.0092 45.4901 50.065 46.2468 49.378C47.0035 48.691 47.9889 48.3104 49.0109 48.3104C50.0329 48.3104 51.0183 48.691 51.775 49.378C52.5317 50.065 53.0054 51.0092 53.1038 52.0265C53.1241 52.243 53.2282 52.4431 53.3938 52.584C53.5594 52.725 53.7736 52.7956 53.9906 52.781L54.0527 52.7767C54.1128 52.7724 54.173 52.7676 54.2341 52.7676C54.7752 52.7654 55.31 52.8828 55.8004 53.1116C56.2907 53.3403 56.7243 53.6747 57.0702 54.0908C57.4161 54.5068 57.6657 54.9942 57.8011 55.5181C57.9365 56.0419 57.9543 56.5892 57.8533 57.1208C57.8321 57.2357 57.8352 57.3538 57.8625 57.4675C57.8898 57.5812 57.9407 57.6878 58.0118 57.7806C58.0829 57.8734 58.1727 57.9502 58.2754 58.006C58.378 58.0619 58.4913 58.0956 58.6078 58.105C59.5276 58.1839 60.3847 58.6039 61.0106 59.2825C61.6366 59.9611 61.9861 60.8492 61.9906 61.7724C61.9906 61.803 61.9906 61.8326 61.9863 61.8626L61.9801 61.9581C61.9705 62.1544 62.0303 62.3478 62.1491 62.5044C62.2678 62.661 62.4379 62.7707 62.6296 62.8144C63.2244 62.9466 63.771 63.241 64.2088 63.6649C64.6465 64.0888 64.9584 64.6256 65.1098 65.2159L42.0886 65.2144Z" fill="white"/>
<path d="M17.7024 20.7837H24.6519C24.8735 20.7837 25.086 20.6956 25.2428 20.5389C25.3995 20.3822 25.4875 20.1696 25.4875 19.948C25.4875 19.7263 25.3995 19.5138 25.2428 19.3571C25.086 19.2003 24.8735 19.1123 24.6519 19.1123H17.7024C17.4807 19.1123 17.2682 19.2003 17.1115 19.3571C16.9547 19.5138 16.8667 19.7263 16.8667 19.948C16.8667 20.1696 16.9547 20.3822 17.1115 20.5389C17.2682 20.6956 17.4807 20.7837 17.7024 20.7837Z" fill="white"/>
<path d="M28.0046 20.7837H29.9047C30.1263 20.7837 30.3389 20.6956 30.4956 20.5389C30.6523 20.3822 30.7404 20.1696 30.7404 19.948C30.7404 19.7263 30.6523 19.5138 30.4956 19.3571C30.3389 19.2003 30.1263 19.1123 29.9047 19.1123H28.0046C27.783 19.1123 27.5704 19.2003 27.4137 19.3571C27.257 19.5138 27.1689 19.7263 27.1689 19.948C27.1689 20.1696 27.257 20.3822 27.4137 20.5389C27.5704 20.6956 27.783 20.7837 28.0046 20.7837Z" fill="white"/>
</svg>
