<svg width="57" height="57" viewBox="0 0 57 57" fill="none" xmlns="http://www.w3.org/2000/svg">
<path d="M28.5014 0C16.8908 0 7.44531 9.4455 7.44531 21.0561C7.44531 24.8784 9.15952 28.9892 9.23136 29.1626C9.78501 30.4768 10.8775 32.518 11.6652 33.7145L26.1022 55.5892C26.693 56.486 27.5675 57 28.5014 57C29.4353 57 30.3097 56.486 30.9005 55.5905L45.3388 33.7145C46.1278 32.518 47.219 30.4768 47.7726 29.1626C47.8445 28.9905 49.5574 24.8796 49.5574 21.0561C49.5574 9.4455 40.1119 0 28.5014 0ZM45.4887 28.2015C44.9945 29.3794 43.9776 31.2782 43.2703 32.3508L28.8321 54.2268C28.5472 54.6591 28.4568 54.6591 28.1719 54.2268L13.7336 32.3508C13.0264 31.2782 12.0095 29.3782 11.5153 28.2003C11.4943 28.1495 9.9225 24.3656 9.9225 21.0561C9.9225 10.8117 18.257 2.47718 28.5014 2.47718C38.7458 2.47718 47.0802 10.8117 47.0802 21.0561C47.0802 24.3705 45.5048 28.1643 45.4887 28.2015Z" fill="#F45B1E"/>
<path d="M28.5028 9.91016C22.3557 9.91016 17.3555 14.9116 17.3555 21.0575C17.3555 27.2034 22.3557 32.2048 28.5028 32.2048C34.6499 32.2048 39.6501 27.2034 39.6501 21.0575C39.6501 14.9116 34.6499 9.91016 28.5028 9.91016ZM28.5028 29.7276C23.7231 29.7276 19.8327 25.8384 19.8327 21.0575C19.8327 16.2765 23.7231 12.3873 28.5028 12.3873C33.2825 12.3873 37.1729 16.2765 37.1729 21.0575C37.1729 25.8384 33.2825 29.7276 28.5028 29.7276Z" fill="#F45B1E"/>
</svg>
