<svg width="79" height="78" viewBox="0 0 79 78" fill="none" xmlns="http://www.w3.org/2000/svg">
<path d="M75.6882 62.6236L49.3478 35.7892L68.9399 16.1967L71.6549 15.4085C72.3468 15.2082 72.9435 14.7656 73.3358 14.1615L77.7646 7.3287C77.94 7.05863 78.0173 6.73651 77.9836 6.41627C77.9498 6.09602 77.8071 5.79708 77.5793 5.56949L72.4226 0.412767C72.1954 0.184813 71.8968 0.0418589 71.5768 0.00785723C71.2568 -0.0261444 70.9348 0.0508726 70.6648 0.226003L63.8766 4.61027C63.2788 4.99787 62.8382 5.58538 62.6337 6.26784L61.7987 9.04875L42.2691 28.5783L35.6855 21.8719L35.9383 21.6143C36.1964 21.3513 36.341 20.9975 36.341 20.629C36.341 20.2605 36.1964 19.9067 35.9383 19.6437L32.0656 15.6989C35.5716 12.5615 38.3251 10.6953 48.0521 8.90866C48.3031 8.8625 48.5368 8.74891 48.7281 8.58006C48.9195 8.41121 49.0613 8.19347 49.1384 7.95017C49.2154 7.70688 49.2248 7.4472 49.1655 7.19897C49.1063 6.95074 48.9806 6.72332 48.8019 6.54109C45.1349 3.07796 40.2561 1.19102 35.2132 1.28554H35.2104C32.7665 1.23292 30.3368 1.67085 28.0651 2.57343C25.7934 3.47602 23.7257 4.82494 21.9842 6.54043L9.56153 19.196C9.30341 19.4591 9.15882 19.8129 9.15882 20.1814C9.15882 20.5499 9.30341 20.9037 9.56153 21.1667L10.4336 22.0539C10.8047 22.4356 11.0124 22.947 11.0124 23.4794C11.0124 24.0117 10.8047 24.5232 10.4336 24.9048C10.2569 25.0876 10.0452 25.2329 9.81113 25.3321C9.57709 25.4313 9.32547 25.4824 9.07127 25.4823H9.06986C8.81588 25.4822 8.56451 25.4311 8.33071 25.3319C8.0969 25.2327 7.88545 25.0874 7.70892 24.9048L6.83688 24.017C6.56689 23.7579 6.20719 23.6132 5.833 23.6132C5.45881 23.6132 5.09911 23.7579 4.82913 24.017L1.43576 27.4742C0.515045 28.4219 0 29.6912 0 31.0125C0 32.3338 0.515045 33.6031 1.43576 34.5508L8.8282 42.0826C9.28519 42.5506 9.83116 42.9225 10.434 43.1764C11.0368 43.4303 11.6844 43.5611 12.3385 43.561C12.9926 43.5609 13.6401 43.43 14.2429 43.176C14.8457 42.922 15.3916 42.55 15.8485 42.082L19.2419 38.624C19.5 38.3612 19.6446 38.0076 19.6446 37.6393C19.6446 37.271 19.5 36.9174 19.2419 36.6547L18.3561 35.7511C17.9849 35.3695 17.7772 34.8582 17.7772 34.3259C17.7772 33.7936 17.9849 33.2823 18.3561 32.9008C18.7192 32.5429 19.2086 32.3423 19.7185 32.3424C20.2284 32.3425 20.7178 32.5434 21.0807 32.9015L21.9678 33.8044C22.2376 34.0635 22.597 34.2082 22.971 34.2082C23.345 34.2082 23.7045 34.0635 23.9742 33.8044L24.252 33.5214L26.9421 36.2624C26.6584 36.8445 26.4907 37.4763 26.4484 38.1225L23.6076 39.1081C22.7095 39.4203 21.8935 39.9315 21.2208 40.6036L3.4037 58.4206C1.25962 60.5646 0.05506 63.4725 0.0549953 66.5046C0.0549307 69.5367 1.25937 72.4446 3.40335 74.5887C5.54734 76.7328 8.45524 77.9374 11.4874 77.9374C14.5195 77.9375 17.4274 76.733 19.5715 74.5891L37.3885 56.7713C38.0599 56.098 38.571 55.2823 38.884 54.3845L39.9976 51.176C40.4216 51.1096 40.8353 50.9891 41.2286 50.8176L64.2157 74.2355C64.9622 75.0007 65.8544 75.6088 66.8395 76.024C67.8246 76.4392 68.8829 76.6531 69.9519 76.6531C71.021 76.6531 72.0793 76.4392 73.0644 76.024C74.0495 75.6088 74.9416 75.0007 75.6882 74.2355C77.1994 72.6806 78.0448 70.5978 78.0448 68.4295C78.0448 66.2613 77.1994 64.1785 75.6882 62.6236ZM22.9676 30.814C22.0583 29.9845 20.866 29.5344 19.6354 29.5561C18.4048 29.5778 17.2292 30.0697 16.3497 30.9308C15.4791 31.8253 14.9853 33.02 14.9703 34.2682C14.9552 35.5163 15.42 36.7226 16.2687 37.6379L13.8407 40.1119C13.4402 40.5066 12.9006 40.7278 12.3383 40.7278C11.7761 40.7278 11.2364 40.5066 10.8359 40.1119L3.44352 32.58C3.03536 32.1603 2.807 31.5979 2.807 31.0124C2.807 30.4269 3.03536 29.8646 3.44352 29.4448L5.83579 27.0072C6.70838 27.836 7.86649 28.297 9.0699 28.2947C9.69811 28.2958 10.3215 28.1706 10.9005 27.9267C11.4794 27.6828 12.0034 27.325 12.4414 26.8747C13.3082 25.982 13.8008 24.7915 13.8182 23.5472C13.8356 22.303 13.3764 21.0992 12.5347 20.1827L23.9921 8.51105C25.4723 7.06318 27.2277 5.92667 29.1545 5.1687C31.0814 4.41072 33.1406 4.04665 35.2105 4.09799H35.2133C38.5281 4.06781 41.7831 4.98113 44.5983 6.73133C35.9919 8.61205 33.2261 10.8299 29.0897 14.5996C28.9499 14.727 28.8373 14.8812 28.7584 15.0531C28.6796 15.225 28.6363 15.4111 28.6311 15.6001C28.6258 15.7891 28.6587 15.9773 28.7279 16.1533C28.797 16.3293 28.901 16.4896 29.0335 16.6245L32.9638 20.629L22.9676 30.814ZM63.8971 10.9274C64.1553 10.6693 64.3451 10.351 64.4492 10.0011L65.4037 6.97164L71.2374 3.20471L74.7819 6.74917L70.8694 12.7072L68.0074 13.5394C67.6505 13.6431 67.3256 13.8351 67.0626 14.0977L40.6528 40.5074L37.4847 37.3399L63.8971 10.9274ZM37.6179 47.7859L29.8835 40.0508C29.6748 39.8429 29.5091 39.596 29.396 39.324C29.2828 39.052 29.2244 38.7604 29.2241 38.4658C29.2239 38.1712 29.2817 37.8795 29.3943 37.6073C29.507 37.3351 29.6722 37.0878 29.8805 36.8796C30.0888 36.6713 30.3362 36.5062 30.6084 36.3937C30.8807 36.2812 31.1724 36.2235 31.467 36.2239C31.7616 36.2243 32.0532 36.2828 32.3251 36.3961C32.597 36.5094 32.8439 36.6752 33.0517 36.884L40.7861 44.6184C41.2053 45.0387 41.4405 45.6082 41.4401 46.2018C41.4397 46.7954 41.2036 47.3646 40.7838 47.7843C40.364 48.204 39.7948 48.4399 39.2012 48.4402C38.6076 48.4405 38.0381 48.2052 37.6179 47.7859ZM33.7314 23.8954L40.2799 30.5676L35.4962 35.3514L35.0402 34.8954C34.2366 34.096 33.1875 33.59 32.0616 33.4588C30.9357 33.3276 29.7984 33.5789 28.8325 34.1723L26.2374 31.5289L33.7314 23.8954ZM36.2281 53.461C36.0545 53.958 35.7715 54.4097 35.4 54.7828L17.5829 72.6005C16.7824 73.401 15.8321 74.0359 14.7862 74.4691C13.7403 74.9023 12.6194 75.1252 11.4873 75.1252C10.3553 75.1252 9.23435 74.9022 8.18849 74.4689C7.14263 74.0357 6.19235 73.4007 5.3919 72.6002C4.59145 71.7997 3.95651 70.8493 3.52333 69.8035C3.09015 68.7576 2.86721 67.6366 2.86725 66.5046C2.86728 65.3725 3.09029 64.2516 3.52353 63.2057C3.95678 62.1599 4.59178 61.2096 5.39228 60.4091L23.2107 42.5914C23.5821 42.2199 24.0328 41.9375 24.5291 41.7654L26.5849 41.0519L36.9395 51.4079L36.2281 53.461ZM73.6805 72.2648C72.6854 73.2418 71.3465 73.7891 69.952 73.7891C68.5575 73.7891 67.2186 73.2418 66.2235 72.2648L43.4003 49.014C44.0514 48.042 44.345 46.8742 44.2309 45.7098C44.1167 44.5455 43.602 43.4569 42.7745 42.6298L42.6409 42.4962L47.3584 37.7786L73.6805 64.5943C74.6791 65.6212 75.2378 66.9971 75.2378 68.4295C75.2378 69.8619 74.6791 71.2379 73.6805 72.2648Z" fill="#F45B1E"/>
<path d="M15.9997 63.3993C15.7216 63.3993 15.4498 63.3167 15.2186 63.1622C14.9874 63.0077 14.8072 62.7881 14.7008 62.5312C14.5944 62.2742 14.5665 61.9915 14.6208 61.7188C14.675 61.4461 14.8089 61.1955 15.0055 60.9988L26.607 49.3973C26.871 49.1351 27.2282 48.9882 27.6003 48.9888C27.9724 48.9894 28.3291 49.1375 28.5922 49.4006C28.8553 49.6637 29.0034 50.0204 29.0041 50.3925C29.0047 50.7646 28.8578 51.1218 28.5956 51.3858L16.994 62.9873C16.8636 63.1181 16.7086 63.2219 16.538 63.2926C16.3673 63.3633 16.1844 63.3995 15.9997 63.3993Z" fill="#F45B1E"/>
<path d="M9.55341 69.8448C9.27532 69.8448 9.0035 69.7623 8.7723 69.6077C8.5411 69.4532 8.3609 69.2336 8.25449 68.9767C8.14808 68.7198 8.12023 68.4371 8.17447 68.1643C8.2287 67.8916 8.36259 67.641 8.55919 67.4444L11.1383 64.866C11.4026 64.6057 11.7592 64.4605 12.1302 64.4619C12.5012 64.4634 12.8566 64.6114 13.119 64.8738C13.3813 65.1361 13.5294 65.4915 13.5308 65.8625C13.5322 66.2336 13.387 66.5901 13.1267 66.8545L10.5476 69.4329C10.4172 69.5636 10.2623 69.6674 10.0916 69.7381C9.92101 69.8088 9.7381 69.845 9.55341 69.8448Z" fill="#F45B1E"/>
</svg>
