<svg width="78" height="78" viewBox="0 0 78 78" fill="none" xmlns="http://www.w3.org/2000/svg">
<g clip-path="url(#clip0_827_375)">
<path d="M50.6527 56.437L49.5488 50.0025C49.4289 49.3025 48.7643 48.8322 48.0644 48.9527C47.3644 49.0727 46.8944 49.7374 47.0146 50.4373L47.6779 54.3042L39.5985 50.0567C39.2237 49.8599 38.7765 49.8599 38.402 50.0567L30.3228 54.3044L31.8657 45.3077C31.9373 44.8906 31.799 44.4651 31.4961 44.1697L24.9598 37.7984L33.9926 36.4858C34.6955 36.3837 35.1822 35.7314 35.0801 35.0285C34.9781 34.3256 34.3235 33.8388 33.623 33.9411L22.0121 35.6283C21.5278 35.6985 21.1253 36.0378 20.974 36.5032C20.8229 36.9686 20.949 37.4797 21.2993 37.8212L29.217 45.5391L27.3481 56.4372C27.2654 56.9194 27.4636 57.407 27.8595 57.6946C28.2553 57.9821 28.7801 58.0202 29.2134 57.7926L39.0003 52.6472L48.7873 57.7926C48.9757 57.8913 49.1811 57.9401 49.3855 57.9401C49.6523 57.9401 49.9175 57.8572 50.1413 57.6943C50.5373 57.4067 50.7356 56.9192 50.6527 56.437Z" fill="#FF3116"/>
<path d="M57.0259 36.5032C56.8748 36.0378 56.4723 35.6986 55.9878 35.6283L45.0457 34.0383L40.1523 24.123C39.9357 23.6841 39.4887 23.4062 38.9992 23.4062C38.5097 23.4062 38.0629 23.6841 37.8461 24.123L34.9373 30.0169C34.6238 30.6534 34.8852 31.4244 35.5218 31.7385C36.1589 32.0533 36.9296 31.7914 37.2438 31.1546L38.9995 27.5969L43.0391 35.7822C43.2265 36.1615 43.5883 36.4248 44.0071 36.4856L53.04 37.7982L46.5035 44.1695C45.995 44.6651 45.9848 45.4792 46.4802 45.9876C46.7323 46.2461 47.0664 46.3759 47.4011 46.3759C47.7246 46.3759 48.0484 46.2545 48.2984 46.0109L56.7003 37.8212C57.051 37.4796 57.177 36.9688 57.0259 36.5032Z" fill="#FF3116"/>
<path d="M33.6056 67.7656C29.2763 66.7854 25.246 64.6583 21.9283 61.649C21.5133 61.1903 21.0314 60.7068 20.486 60.2377C19.9548 59.6766 19.4458 59.0912 18.9625 58.4818C16.7033 55.6339 15.0516 52.3394 14.0878 48.8357C14.0052 48.4401 13.9036 48.0258 13.7794 47.6012C13.3332 45.6261 13.1015 43.5952 13.1015 41.5482C13.1015 35.0373 15.4017 28.7577 19.5784 23.8661C19.6364 23.798 19.6862 23.7256 19.7277 23.6502C19.7312 23.6492 19.7345 23.6485 19.738 23.6473C21.3099 23.1405 25.1601 21.5855 26.9617 18.1041C28.7582 14.6322 27.8468 10.5285 27.3717 8.92513C27.2413 8.48531 26.9319 8.10933 26.5224 7.89346C26.1159 7.67896 25.6347 7.636 25.2018 7.77524C23.63 8.28209 19.7798 9.8369 17.9782 13.3184C16.2436 16.6707 17.0335 20.6114 17.5176 22.3222C16.1211 23.9765 14.9186 25.7725 13.9247 27.6748C13.7826 26.6325 13.4945 25.5708 12.9883 24.5577C12.3736 23.3271 10.408 20.2859 5.44789 18.63C5.01142 18.4841 4.52346 18.5225 4.10878 18.735C3.6903 18.949 3.37098 19.3267 3.23266 19.7708C2.70539 21.4598 1.67738 25.7859 3.51723 29.4684C4.13194 30.6989 6.09748 33.7399 11.0579 35.3961C11.0918 35.4073 11.1259 35.4165 11.1602 35.4256C10.745 37.4247 10.5304 39.4755 10.5304 41.548C10.5304 41.7784 10.5336 42.0087 10.5389 42.2386C9.33875 41.2126 6.50317 39.38 1.68621 39.5278C1.22659 39.542 0.781902 39.7467 0.465941 40.0893C0.147543 40.435 -0.021559 40.8998 0.00220665 41.3643C0.0914801 43.1313 0.623008 47.5461 3.6222 50.3652C4.58928 51.2738 7.31699 53.3282 12.1998 53.3282C12.3794 53.3282 12.5622 53.3254 12.7474 53.3198C12.8081 53.3179 12.8687 53.3122 12.9286 53.3038C13.5622 54.7937 14.3155 56.2311 15.184 57.5982C13.6455 57.3528 10.2402 57.26 6.1831 59.9536C5.79995 60.2078 5.52985 60.6161 5.44195 61.0739C5.35343 61.5354 5.45474 62.0195 5.71997 62.4024C6.72742 63.8569 9.50663 67.3282 13.5408 68.1424C13.9513 68.2252 14.5699 68.3124 15.3556 68.3124C17.1526 68.3122 19.8215 67.8553 22.8527 65.8427C22.8894 65.8184 22.9242 65.7912 22.9589 65.7643C25.9945 67.9084 29.4202 69.4547 33.0375 70.2737C33.1332 70.2953 33.2285 70.3055 33.3225 70.3055C33.9098 70.3055 34.4403 69.9004 34.5754 69.3035C34.7326 68.611 34.2981 67.9225 33.6056 67.7656ZM20.2619 14.5003C21.3777 12.3439 23.724 11.111 25.1322 10.5372C25.466 12.0488 25.8033 14.7472 24.6779 16.9223C23.5622 19.0787 21.2159 20.3116 19.8077 20.8853C19.4739 19.3738 19.1366 16.6755 20.2619 14.5003ZM11.0502 32.6493C9.5665 32.0384 7.00088 30.688 5.81747 28.3192C4.62203 25.9265 5.06794 22.9692 5.45581 21.3769C6.93933 21.9878 9.50495 23.3381 10.6884 25.707V25.7072C11.8835 28.0996 11.4376 31.0573 11.0502 32.6493ZM5.38329 48.4914C3.43436 46.6595 2.83016 43.7306 2.64324 42.1022C4.24681 42.1626 7.12093 42.5425 9.05036 44.3559C10.2252 45.4599 10.9091 46.9616 11.3099 48.338C11.3882 48.675 11.4732 49.0103 11.563 49.3442C11.673 49.8657 11.7446 50.3448 11.7904 50.745C10.1868 50.6847 7.31257 50.3046 5.38329 48.4914ZM14.0503 65.6218C11.4287 65.0927 9.37119 62.922 8.35384 61.6371C9.74825 60.8431 12.3906 59.6504 14.9863 60.1746C16.4445 60.469 17.7276 61.2717 18.755 62.1469C19.1789 62.5885 19.6157 63.0158 20.065 63.4282C20.2994 63.6892 20.5075 63.9378 20.683 64.1592C19.2886 64.9534 16.6468 66.1454 14.0503 65.6218Z" fill="#FF3116"/>
<path d="M77.5336 40.089C77.2176 39.7464 76.7731 39.5419 76.3139 39.5277C71.4974 39.3801 68.6611 41.213 67.4609 42.2388C67.4663 42.0088 67.4695 41.7786 67.4695 41.548C67.4695 39.4753 67.2547 37.4246 66.8397 35.4256C66.874 35.4164 66.9081 35.4074 66.9417 35.396C71.9027 33.7397 73.868 30.6988 74.4828 29.4683C76.322 25.7865 75.2944 21.4602 74.7672 19.7706C74.6285 19.3262 74.3088 18.9487 73.8909 18.7349C73.4764 18.5229 72.9886 18.4845 72.5523 18.63C67.5919 20.2858 65.6263 23.3269 65.0114 24.5577C64.5052 25.5708 64.2169 26.6324 64.0749 27.6746C63.0812 25.7725 61.8787 23.9763 60.4824 22.322C60.9667 20.6114 61.7566 16.6707 60.0218 13.3182C58.2202 9.83655 54.37 8.28173 52.7983 7.77503C52.3658 7.63533 51.8842 7.67845 51.4773 7.89325C51.068 8.10927 50.7586 8.48556 50.6286 8.92492C50.1533 10.5282 49.242 14.6317 51.0384 18.1038C52.84 21.5853 56.6902 23.14 58.262 23.647C58.2653 23.648 58.2688 23.6486 58.2723 23.6499C58.3138 23.7253 58.3636 23.7978 58.4216 23.8659C62.5983 28.7575 64.8985 35.0371 64.8985 41.548C64.8985 43.5952 64.6669 45.6264 64.2206 47.6017C64.0964 48.0258 63.995 48.4395 63.9125 48.8347C62.9487 52.3389 61.297 55.6335 59.0375 58.4816C58.5543 59.0907 58.0458 59.6758 57.5147 60.2364C56.9686 60.7063 56.4859 61.1904 56.0706 61.6497C52.7534 64.6585 48.7234 66.7852 44.3946 67.7654C43.702 67.9223 43.2678 68.6108 43.4246 69.3033C43.5597 69.9002 44.0899 70.3053 44.6775 70.3053C44.7716 70.3053 44.8668 70.2948 44.9625 70.2735C48.5798 69.4543 52.0055 67.908 55.0411 65.7641C55.0755 65.7912 55.1101 65.818 55.1468 65.8424C58.1791 67.8556 60.8472 68.3123 62.6443 68.3123C63.4295 68.3123 64.0486 68.225 64.4587 68.1423C68.4938 67.328 71.2724 63.8569 72.2799 62.4023C72.5451 62.0195 72.6464 61.5355 72.5579 61.0739C72.47 60.6161 72.1999 60.2078 71.8172 59.954C67.7601 57.2602 64.3543 57.353 62.816 57.5984C63.6845 56.2313 64.4378 54.7936 65.0714 53.3039C65.1314 53.3123 65.1918 53.3179 65.2526 53.3199C65.4383 53.3255 65.6206 53.3283 65.8002 53.3283C70.6828 53.3283 73.4112 51.2739 74.3778 50.3653C77.3773 47.5462 77.9088 43.1316 77.9981 41.3642C78.0212 40.8991 77.8521 40.4342 77.5336 40.089ZM58.1922 20.8851C56.7838 20.3116 54.4377 19.0786 53.3221 16.9222C52.1967 14.7473 52.5337 12.049 52.8678 10.5372C54.2762 11.1108 56.6221 12.3437 57.7379 14.5001C58.8631 16.675 58.5263 19.3733 58.1922 20.8851ZM63.0136 60.1746C65.6092 59.651 68.2516 60.8429 69.6461 61.6371C68.6293 62.922 66.5715 65.0925 63.9496 65.6218C61.355 66.1449 58.7115 64.9535 57.3171 64.1593C57.4922 63.9381 57.7001 63.6898 57.9343 63.4289C58.3841 63.0158 58.8215 62.5877 59.2463 62.1455C60.2732 61.2707 61.5558 60.4688 63.0136 60.1746ZM67.3116 25.707C68.4952 23.338 71.0607 21.9878 72.5443 21.3769C72.9317 22.9693 73.3777 25.9268 72.1827 28.3192C70.9993 30.6877 68.4338 32.0381 66.95 32.6493C66.5621 31.0573 66.1162 28.0998 67.3116 25.707ZM72.6165 48.4913C70.6871 50.3048 67.813 50.6846 66.2094 50.745C66.2554 50.3446 66.327 49.8653 66.4372 49.3434C66.5266 49.0104 66.6115 48.6757 66.6898 48.3393C67.0904 46.9627 67.7746 45.4603 68.9499 44.356C70.8794 42.5425 73.7533 42.1627 75.3571 42.1023C75.1698 43.7303 74.5656 46.6594 72.6165 48.4913Z" fill="#FF3116"/>
</g>
<defs>
<clipPath id="clip0_827_375">
<rect width="78" height="78" fill="white"/>
</clipPath>
</defs>
</svg>
