<svg width="78" height="78" viewBox="0 0 78 78" fill="none" xmlns="http://www.w3.org/2000/svg">
<path d="M75.5054 9.46436H2.49463C1.11912 9.46436 0 10.5835 0 11.959V66.041C0 67.4165 1.11912 68.5356 2.49463 68.5356H75.5054C76.8809 68.5356 78 67.4165 78 66.041V11.959C78 10.5835 76.8809 9.46436 75.5054 9.46436ZM9.46436 66.2505H2.49463C2.37915 66.2505 2.28516 66.1565 2.28516 66.041V59.0713H9.46436V66.2505ZM9.46436 56.7861H2.28516V49.6069H9.46436V56.7861ZM9.46436 47.3218H2.28516V40.1426H9.46436V47.3218ZM9.46436 37.8574H2.28516V30.6782H9.46436V37.8574ZM9.46436 28.3931H2.28516V21.2139H9.46436V28.3931ZM9.46436 18.9287H2.28516V11.959C2.28516 11.8435 2.37915 11.7495 2.49463 11.7495H9.46436V18.9287ZM66.2505 66.2505H11.7495V11.7495H66.2505V66.2505ZM75.7148 66.041C75.7148 66.1565 75.6208 66.2505 75.5054 66.2505H68.5356V59.0713H75.7148V66.041ZM75.7148 56.7861H68.5356V49.6069H75.7148V56.7861ZM75.7148 47.3218H68.5356V40.1426H75.7148V47.3218ZM75.7148 37.8574H68.5356V30.6782H75.7148V37.8574ZM75.7148 28.3931H68.5356V21.2139H75.7148V28.3931ZM75.7148 18.9287H68.5356V11.7495H75.5054C75.6208 11.7495 75.7148 11.8435 75.7148 11.959V18.9287Z" fill="#FF3116"/>
<path d="M53.6213 36.814L51.7195 35.768C51.1665 35.464 50.4718 35.6658 50.1677 36.2187C49.8636 36.7715 50.0652 37.4664 50.6182 37.7705L52.5201 38.8164C52.5921 38.8561 52.6285 38.9179 52.6285 39C52.6285 39.0823 52.5921 39.144 52.5201 39.1836L29.6366 51.7695C29.5672 51.8077 29.4973 51.8065 29.4292 51.7663C29.3609 51.7259 29.3263 51.6653 29.3263 51.5859V26.4141C29.3263 26.3348 29.3609 26.2743 29.4292 26.2338C29.4973 26.1934 29.5672 26.1923 29.6366 26.2306L45.9067 35.1791C46.4597 35.4832 47.1544 35.2815 47.4584 34.7285C47.7625 34.1756 47.561 33.4808 47.0079 33.1767L30.7379 24.2282C29.9572 23.7987 29.0331 23.8132 28.266 24.2667C27.499 24.7202 27.041 25.5229 27.041 26.414V51.5857C27.041 52.4768 27.499 53.2795 28.266 53.733C28.661 53.9666 29.0977 54.0837 29.535 54.0837C29.9468 54.0837 30.3594 53.9798 30.7379 53.7716L53.6213 41.1857C54.4186 40.7472 54.9137 39.9097 54.9137 38.9997C54.9137 38.0902 54.4186 37.2526 53.6213 36.814Z" fill="#FF3116"/>
</svg>
