<svg width="46" height="46" viewBox="0 0 46 46" fill="none" xmlns="http://www.w3.org/2000/svg">
<path d="M23 24.4375C21.2941 24.4375 19.6266 23.9317 18.2082 22.9839C16.7898 22.0362 15.6843 20.6892 15.0315 19.1131C14.3787 17.5371 14.2079 15.8029 14.5407 14.1299C14.8735 12.4568 15.695 10.9199 16.9012 9.71371C18.1074 8.50748 19.6443 7.68603 21.3174 7.35323C22.9904 7.02043 24.7246 7.19124 26.3006 7.84404C27.8767 8.49685 29.2237 9.60234 30.1714 11.0207C31.1192 12.4391 31.625 14.1066 31.625 15.8125C31.625 18.1 30.7163 20.2938 29.0988 21.9113C27.4813 23.5288 25.2875 24.4375 23 24.4375ZM23 10.0625C21.8628 10.0625 20.7511 10.3997 19.8055 11.0316C18.8599 11.6634 18.1229 12.5614 17.6877 13.6121C17.2525 14.6627 17.1386 15.8189 17.3605 16.9343C17.5824 18.0497 18.13 19.0742 18.9341 19.8784C19.7383 20.6825 20.7628 21.2302 21.8782 21.452C22.9936 21.6739 24.1498 21.56 25.2004 21.1248C26.2511 20.6896 27.1491 19.9526 27.781 19.007C28.4128 18.0615 28.75 16.9497 28.75 15.8125C28.75 14.2875 28.1442 12.825 27.0659 11.7466C25.9875 10.6683 24.525 10.0625 23 10.0625Z" fill="#DDDDDD"/>
<path d="M22.9999 44.5626C19.8122 44.5604 16.6646 43.8515 13.7837 42.4869C10.9028 41.1223 8.36032 39.1359 6.3393 36.6707L5.5918 35.7507L6.3393 34.8451C8.36203 32.3831 10.9053 30.4 13.786 29.0384C16.6668 27.6769 19.8136 26.9707 22.9999 26.9707C26.1863 26.9707 29.333 27.6769 32.2138 29.0384C35.0946 30.4 37.6378 32.3831 39.6605 34.8451L40.4081 35.7507L39.6605 36.6707C37.6395 39.1359 35.097 41.1223 32.2162 42.4869C29.3353 43.8515 26.1877 44.5604 22.9999 44.5626ZM9.35805 35.7651C11.1064 37.6367 13.2208 39.129 15.57 40.1493C17.9192 41.1695 20.4531 41.696 23.0143 41.696C25.5755 41.696 28.1094 41.1695 30.4586 40.1493C32.8078 39.129 34.9222 37.6367 36.6706 35.7651C34.9222 33.8934 32.8078 32.4011 30.4586 31.3809C28.1094 30.3606 25.5755 29.8341 23.0143 29.8341C20.4531 29.8341 17.9192 30.3606 15.57 31.3809C13.2208 32.4011 11.1064 33.8934 9.35805 35.7651Z" fill="#DDDDDD"/>
<path d="M22.9998 44.5625C18.1018 44.5658 13.3487 42.9014 9.52274 39.8434C5.69676 36.7853 3.0259 32.5158 1.94976 27.7376C0.873624 22.9593 1.45633 17.9571 3.60196 13.5541C5.7476 9.15118 9.32832 5.60991 13.7548 3.51317C18.1812 1.41643 23.1896 0.889176 27.9556 2.01818C32.7217 3.14718 36.9613 5.86515 39.9768 9.72477C42.9923 13.5844 44.6039 18.3556 44.5464 23.2532C44.4889 28.1508 42.7657 32.8829 39.6604 36.6706C37.6393 39.1358 35.0969 41.1222 32.216 42.4869C29.3351 43.8515 26.1875 44.5604 22.9998 44.5625ZM22.9998 4.31252C19.3037 4.31252 15.6907 5.40852 12.6175 7.46193C9.54439 9.51534 7.14916 12.4339 5.73475 15.8486C4.32034 19.2633 3.95026 23.0207 4.67132 26.6458C5.39238 30.2708 7.1722 33.6006 9.78569 36.2141C12.3992 38.8276 15.729 40.6074 19.354 41.3284C22.979 42.0495 26.7365 41.6794 30.1511 40.265C33.5658 38.8506 36.4844 36.4554 38.5378 33.3822C40.5912 30.3091 41.6872 26.6961 41.6872 23C41.6872 18.0438 39.7184 13.2905 36.2138 9.78596C32.7092 6.28137 27.956 4.31252 22.9998 4.31252Z" fill="#DDDDDD"/>
<path d="M7.44629 35.7648C7.44629 35.7648 21.9219 51.9367 36.6563 37.3748L38.5538 35.7648C38.5538 35.7648 26.2488 22.9998 13.7569 30.6617L7.44629 35.7648Z" fill="#DDDDDD"/>
<path d="M23 23C26.9695 23 30.1875 19.782 30.1875 15.8125C30.1875 11.843 26.9695 8.625 23 8.625C19.0305 8.625 15.8125 11.843 15.8125 15.8125C15.8125 19.782 19.0305 23 23 23Z" fill="#DDDDDD"/>
</svg>
