<svg width="120" height="120" viewBox="0 0 120 120" fill="none" xmlns="http://www.w3.org/2000/svg">
<mask id="mask0_593_34" style="mask-type:luminance" maskUnits="userSpaceOnUse" x="0" y="0" width="120" height="120">
<path d="M0 7.62939e-06H120V120H0V7.62939e-06Z" fill="white"/>
</mask>
<g mask="url(#mask0_593_34)">
<path d="M65.1355 43.9443L66.9674 42.1162L71.7615 37.3329C74.2356 34.8644 74.2356 30.8214 71.7615 28.353C69.2877 25.8843 65.2358 25.8843 62.7618 28.353L56.1357 34.9645" stroke="#1E2023" stroke-width="0.9" stroke-miterlimit="10" stroke-linecap="round" stroke-linejoin="round"/>
<path d="M95.9594 56.9737C93.7931 54.8121 90.2426 54.8121 88.0762 56.9737L79.6579 65.3798C77.4916 67.5415 77.4916 71.0775 79.6579 73.2389C81.8243 75.4005 85.3683 75.4005 87.5348 73.2389L95.9594 64.8328C98.126 62.6714 98.126 59.1354 95.9594 56.9737Z" stroke="#1E2023" stroke-width="0.9" stroke-miterlimit="10" stroke-linecap="round" stroke-linejoin="round"/>
<path d="M79.9194 47.1533C79.0768 47.994 80.8086 46.266 80.8353 46.2395C83.2355 43.7643 83.2091 39.7813 80.7617 37.3328C78.2879 34.8644 74.2358 34.8644 71.7617 37.3328L68.4453 40.6419" stroke="#1E2023" stroke-width="0.9" stroke-miterlimit="10" stroke-linecap="round" stroke-linejoin="round"/>
<path d="M78.9359 99.7516C78.8089 96.7294 79.3838 93.6738 80.6745 90.8787L51.5886 61.8506M85.0407 74.6735L90.9781 80.5976C98.0792 77.3419 106.805 78.6229 112.635 84.4404C117.289 89.0838 119.048 95.5685 117.905 101.6C116.707 107.931 113.364 103.141 112.682 102.46L104.518 94.3144C101.663 91.4655 97.0695 91.3455 94.0674 93.9607C91.4461 96.9562 91.5666 101.54 94.4215 104.388L102.586 112.534C103.268 113.215 108.069 116.551 101.723 117.745C95.6787 118.886 89.1795 117.131 84.526 112.488C83.0747 111.033 81.9047 109.405 81.0155 107.671M46.614 36.3386L39.3256 29.0599C42.5886 21.9747 41.3047 13.2684 35.4741 7.45099C30.8206 2.80756 24.3216 1.05279 18.2768 2.19373C11.9314 3.38787 16.7323 6.72373 17.4143 7.40412L25.5786 15.5501C28.4335 18.3989 28.554 22.9823 25.9329 25.9776C22.9306 28.593 18.3371 28.4728 15.4822 25.6242L7.31794 17.4783C6.63591 16.7976 3.29279 12.0075 2.0956 18.3389C0.952557 24.3701 2.71084 30.8547 7.36482 35.4982C13.1954 41.3156 21.9209 42.5967 29.022 39.341L36.7381 47.0397" stroke="#1E2023" stroke-width="0.9" stroke-miterlimit="10" stroke-linecap="round" stroke-linejoin="round"/>
<path d="M33.803 92.3197L43.8861 102.38C45.4442 103.935 45.4442 106.477 43.8861 108.031L34.9198 116.978C33.3617 118.532 30.8143 118.532 29.2564 116.978L4.49654 92.273C2.93865 90.7184 2.93865 88.1766 4.49654 86.622L13.463 77.6757C15.0209 76.1211 17.5683 76.1211 19.1265 77.6757L27.9926 86.5222" stroke="#1E2023" stroke-width="0.9" stroke-miterlimit="10" stroke-linecap="round" stroke-linejoin="round"/>
<path d="M43.8857 102.38L55.8276 90.465C60.3009 86.0018 61.17 86.9625 66.4523 87.7165C68.8193 88.0565 72.1959 86.7956 74.9107 85.1278" stroke="#1E2023" stroke-width="0.9" stroke-miterlimit="10" stroke-linecap="round" stroke-linejoin="round"/>
<path d="M88.0762 47.994C85.6021 45.5256 81.5503 45.5256 79.0764 47.994L72.4767 54.5788C69.9961 57.054 69.9961 61.0902 72.4767 63.5586C74.9507 66.0338 79.0026 66.0338 81.4767 63.5586L88.0762 56.9738C90.5568 54.5054 90.5568 50.4624 88.0762 47.994Z" stroke="#1E2023" stroke-width="0.9" stroke-miterlimit="10" stroke-linecap="round" stroke-linejoin="round"/>
<path d="M73.2924 53.7714C73.4731 52.0169 70.571 49.3682 67.5889 46.3926L54.477 33.3098C53.153 31.9888 50.9731 31.9888 49.6428 33.3166L38.8172 44.1177C36.3568 46.5728 35.2533 50.1822 35.4474 53.4245C35.7483 58.3881 33.4346 63.4051 26.5744 70.2435L19.126 77.6755M51.555 48.3541C51.6685 48.4741 56.1017 52.8909 56.2153 53.0043C59.7256 56.3934 66.8065 59.3153 71.3733 56.0598" stroke="#1E2023" stroke-width="0.9" stroke-miterlimit="10" stroke-linecap="round" stroke-linejoin="round"/>
<path d="M51.5554 48.3542C55.4667 52.257 54.3836 59.6625 49.1416 64.8928" stroke="#1E2023" stroke-width="0.9" stroke-miterlimit="10" stroke-linecap="round" stroke-linejoin="round"/>
</g>
</svg>
