<svg width="59" height="59" viewBox="0 0 59 59" fill="none" xmlns="http://www.w3.org/2000/svg">
<path d="M17.6973 16.9401L21.8517 13.5586L23.3976 14.7502L35.5551 24.138L37.3908 25.5711H28.9047L27.0529 24.138L19.2431 18.1317L17.6973 16.9401Z" fill="#F45B1E"/>
<path d="M15.2973 18.8887L16.8431 20.0803L22.0121 24.1381L23.8317 25.5713H7.08496L15.2973 18.8887Z" fill="#F45B1E"/>
<path d="M0 29.5C0 13.2364 13.2364 0 29.5 0C45.7636 0 59 13.2364 59 29.5C59 45.7636 45.7636 59 29.5 59C17.6324 59 7.375 51.9471 2.70524 41.8346H20.9173V34.1698C20.9173 32.6078 22.0928 31.2552 23.6547 31.1586C25.3616 31.0459 26.7787 32.3985 26.7787 34.0731V41.8346H38.4692V23.059L25.3938 13.1558L23.8319 11.9804L27.9219 8.64711L29.4678 9.8226L38.4531 16.6662V13.961C38.4531 12.5922 39.5641 11.4812 40.9329 11.4812C42.3016 11.4812 43.4127 12.5922 43.4127 13.961V20.4503L48.2596 24.1539L50.1275 25.571H43.4127V46.6815H13.5423C17.729 50.5783 23.3488 52.9615 29.5 52.9615C42.4304 52.9615 52.9615 42.4304 52.9615 29.5C52.9615 16.5696 42.4304 6.03848 29.5 6.03848C16.5696 6.03848 6.03848 16.5696 6.03848 29.5C6.03848 32.7205 6.69869 35.78 7.87418 38.5819H1.43313C0.499181 35.7156 0 32.6722 0 29.5Z" fill="#F45B1E"/>
</svg>
